<?xml version="1.0" encoding="UTF-8" standalone="no"?>
<svg
   xmlns:dc="http://purl.org/dc/elements/1.1/"
   xmlns:cc="http://creativecommons.org/ns#"
   xmlns:rdf="http://www.w3.org/1999/02/22-rdf-syntax-ns#"
   xmlns:svg="http://www.w3.org/2000/svg"
   xmlns="http://www.w3.org/2000/svg"
   xmlns:sodipodi="http://sodipodi.sourceforge.net/DTD/sodipodi-0.dtd"
   xmlns:inkscape="http://www.inkscape.org/namespaces/inkscape"
   id="svg8"
   version="1.1"
   viewBox="0 0 216.7083 131.74255"
   height="131.74255mm"
   width="216.7083mm"
   sodipodi:docname="bottom.svg"
   inkscape:version="0.92.3 (2405546, 2018-03-11)">
  <sodipodi:namedview
     pagecolor="#ffffff"
     bordercolor="#666666"
     borderopacity="1"
     objecttolerance="10"
     gridtolerance="10"
     guidetolerance="10"
     inkscape:pageopacity="0"
     inkscape:pageshadow="2"
     inkscape:window-width="1438"
     inkscape:window-height="884"
     id="namedview8"
     showgrid="false"
     inkscape:zoom="0.38336865"
     inkscape:cx="409.52749"
     inkscape:cy="-272.72877"
     inkscape:window-x="0"
     inkscape:window-y="0"
     inkscape:window-maximized="0"
     inkscape:current-layer="svg8" />
  <defs
     id="defs2" />
  <metadata
     id="metadata5">
    <rdf:RDF>
      <cc:Work
         rdf:about="">
        <dc:format>image/svg+xml</dc:format>
        <dc:type
           rdf:resource="http://purl.org/dc/dcmitype/StillImage" />
        <dc:title />
      </cc:Work>
    </rdf:RDF>
  </metadata>
  <path
     inkscape:connector-curvature="0"
     style="fill:#000000;stroke-width:0.26458332"
     d="M 59.411105,97.478348 0.14444,63.23412 0.07222,58.77684 0,54.31956 1.1967,53.68471 2.393403,53.04986 2.395503,49.87441 2.397603,46.69895 42.846795,23.34947 83.295985,0 h 2.79018 2.79018 l 2.39552,1.3890596 2.395516,1.38906 0.004,2.55082 0.004,2.55082 2.77087,1.61637 c 2.78457,1.6242404 3.31474,1.8404604 3.31474,1.3517804 0,-0.16381 1.412879,-0.26458 3.709469,-0.26458 h 3.70947 l 17.4572,10.08119 17.45719,10.0812 v 2.56369 2.56369 l 2.84427,1.62839 c 2.08597,1.19425 2.86708,1.52637 2.92982,1.24574 0.0696,-0.31129 0.76945,-0.38265 3.75288,-0.38265 h 3.66734 l 17.47993,10.09003 17.47993,10.09003 v 2.55483 2.55483 l 2.85596,1.64264 c 1.57075,0.90345 2.93997,1.64264 3.04271,1.64264 0.10271,0 0.18674,-0.1786 0.18674,-0.39688 0,-0.33302 0.57005,-0.39687 3.54285,-0.39687 h 3.54283 l 5.84761,3.37343 5.84761,3.37344 0.003,3.20905 0.003,3.20904 0.79375,0.32879 c 0.79131,0.32776 0.79375,0.33551 0.79375,2.51324 0,1.42698 -0.1147,2.27822 -0.33073,2.45484 -0.29168,0.23845 -19.51826,11.385798 -21.02832,12.191958 -0.52303,0.27923 -0.97914,0.0879 -4.05844,-1.70205 -2.75302,-1.60032 -3.64186,-1.996 -4.30554,-1.91669 -0.46,0.055 -3.30263,1.52527 -6.31698,3.26734 l -5.48066,3.1674 -0.0756,2.241112 -0.0756,2.24111 -3.70416,2.16549 -3.70417,2.1655 -0.0725,4.37728 -0.0725,4.37729 -0.72126,0.5045 c -1.41596,0.98986 -13.74144,7.98917 -14.06936,7.98917 -0.18379,0 -2.72108,-1.36921 -5.63843,-3.0427 -2.91735,-1.67349 -5.561,-3.04271 -5.87478,-3.04271 -0.31378,0 -5.31904,2.73844 -11.1228,6.08541 -5.80376,3.34698 -10.73787,6.07644 -10.96469,6.06546 -0.22681,-0.011 -27.082385,-15.42986 -59.679055,-34.264182 z m 59.654075,32.101332 -0.009,-1.91823 L 59.906845,93.530198 C 27.374705,74.75801 0.649432,59.35926 0.517346,59.31076 0.385261,59.26226 0.281735,60.09569 0.287286,61.16284 l 0.01011,1.94028 59.190419,34.177068 c 32.55474,18.797392 59.279725,34.186222 59.388865,34.197402 0.10914,0.0112 0.19418,-0.84289 0.18897,-1.89791 z m 10.93698,-4.12806 10.23915,-5.91399 v -5.66832 -5.66832 l -0.72761,0.39355 c -0.40018,0.21646 -4.59713,2.63939 -9.32656,5.38429 -4.72943,2.7449 -8.63864,4.89258 -8.68715,4.77261 -0.0485,-0.11996 -0.19734,-0.21812 -0.33073,-0.21812 -0.13659,0 -0.24253,1.7968 -0.24253,4.11335 v 4.11335 l -0.79208,0.45071 c -0.76644,0.43613 -0.79213,0.51352 -0.79375,2.391 -8e-4,1.06715 0.0937,1.90059 0.21022,1.85208 0.11654,-0.0485 4.81951,-2.74949 10.45104,-6.00219 z m -9.54251,1.17803 c 0.10692,-0.16011 0.19621,-2.02162 0.19844,-4.13667 l 0.004,-3.84556 -0.85989,-0.4908 c -0.47295,-0.26994 -1.24685,-0.72204 -1.7198,-1.00467 l -0.85989,-0.51387 v 3.9662 3.9662 l 1.65364,0.94095 c 0.90951,0.51752 1.53459,0.94046 1.38907,0.93987 -0.14552,-5.3e-4 -0.91943,-0.39141 -1.71979,-0.86849 l -1.45521,-0.86742 -0.0759,-2.25773 -0.0759,-2.25772 -2.84263,-1.62706 -2.84262,-1.62706 h -3.80915 -3.80916 l -17.544185,-10.12031 -17.54419,-10.120312 -0.0133,-2.24896 -0.0133,-2.24896 -2.90332,-1.653638 -2.90333,-1.65365 h -3.82805 -3.82805 l -17.3298,-9.98802 -17.32979,-9.98802 -0.009,-2.24896 -0.009,-2.24895 -2.90126,-1.65365 -2.90125,-1.65365 H 10.756875 6.9367152 L 4.7314482,59.8486 2.526186,58.57845 2.450456,56.01214 C 2.408806,54.60067 2.289743,53.44627 2.185873,53.44682 2.082,53.44735 1.610063,53.68374 1.13712,53.97209 0.278582,54.49556 0.277224,54.49983 0.277563,56.68308 l 2.65e-4,2.18671 59.441627,34.315978 c 52.039005,30.042402 59.510395,34.279802 59.993925,34.025492 0.30377,-0.15977 0.63978,-0.42149 0.74669,-0.58161 z m -9.58709,-6.05752 c -0.89035,-0.45044 -0.84923,-1.28022 0.0856,-1.7283 0.79654,-0.38177 1.60067,-0.28691 2.37615,0.2803 0.64526,0.47196 0.34168,1.15456 -0.67041,1.50737 -1.00087,0.34891 -0.98323,0.34949 -1.79139,-0.0594 z m 2.39798,-0.60376 c 0.3828,-0.46124 0.10174,-0.7724 -0.9531,-1.05518 -1.11387,-0.29861 -2.43777,0.65572 -1.79766,1.29583 0.35717,0.35717 2.40317,0.17817 2.75076,-0.24065 z M 62.076425,92.361098 c -0.43762,-0.48356 -0.43329,-0.53376 0.0913,-1.05833 0.94485,-0.944848 3.19653,-0.587258 3.19653,0.50764 0,1.07335 -2.44431,1.48276 -3.28781,0.55069 z m 2.60471,0.0825 c 0.23018,-0.0883 0.41851,-0.37325 0.41851,-0.63315 0,-0.51909 -0.50353,-0.793748 -1.45521,-0.793748 -0.33999,0 -0.80651,0.0723 -1.03669,0.1606 -0.42172,0.161828 -0.56918,0.923448 -0.24212,1.250508 0.22046,0.22046 1.75487,0.23092 2.31551,0.0158 z M 14.000525,64.58361 c -0.6133,-0.49663 -0.61505,-0.51197 -0.12059,-1.05834 0.61062,-0.67473 2.29799,-0.755 2.91436,-0.13863 0.55732,0.55733 0.52479,0.80078 -0.17227,1.28902 -0.79439,0.55641 -1.8672,0.51874 -2.6215,-0.0921 z m 2.55367,-0.1289 c 0.7466,-0.54593 0.086,-1.21926 -1.19621,-1.21926 -1.28221,0 -1.94281,0.67333 -1.19622,1.21926 0.27699,0.20253 0.81528,0.36824 1.19622,0.36824 0.38093,0 0.91923,-0.16571 1.19621,-0.36824 z m 136.855115,55.13699 0.0711,-5.68854 h -0.79873 -0.79873 v 5.57829 c 0,3.06807 0.0844,5.6627 0.18755,5.76585 0.10316,0.10315 0.43058,0.15276 0.72761,0.11025 0.52198,-0.0747 0.54243,-0.26768 0.61118,-5.76585 z m -1.79384,-0.33073 -0.003,-5.6224 -3.22032,-1.85208 c -1.77117,-1.01865 -3.91298,-2.24593 -4.75957,-2.7273 l -1.53928,-0.87522 v 5.66516 5.66516 l 4.56406,2.65895 c 2.51024,1.46242 4.65336,2.67046 4.7625,2.68453 0.10914,0.0141 0.19713,-2.50448 0.19552,-5.5968 z m 8.96586,1.79605 6.38289,-3.69405 v -5.63883 -5.63883 l -0.88187,0.46934 c -0.48503,0.25814 -3.46039,1.95762 -6.61191,3.77663 l -5.73003,3.30729 -0.003,5.64445 c -0.002,3.12079 0.10092,5.60501 0.22902,5.55625 0.12743,-0.0485 3.10399,-1.75052 6.61458,-3.78225 z m -43.62335,-4.73661 v -3.53592 l -2.77813,-1.59821 -2.77812,-1.5982 0.008,3.61273 0.008,3.61272 2.57138,1.49275 c 1.41426,0.82101 2.66067,1.50562 2.76981,1.52135 0.10915,0.0158 0.19844,-1.56253 0.19844,-3.50726 z m 24.87083,-2.68184 v -5.68854 h -0.66146 -0.66146 v 5.68854 5.68854 h 0.66146 0.66146 z m -20.06297,4.63402 c 0.0484,0.14529 4.31452,-2.17705 9.4802,-5.16076 5.16568,-2.98371 9.63157,-5.42525 9.9242,-5.42565 0.29263,-5.3e-4 2.91201,1.36817 5.82083,3.04127 2.90883,1.6731 5.46945,3.04232 5.69027,3.04271 0.50713,7.9e-4 14.3428,-7.97487 14.46157,-8.33657 0.0483,-0.14711 -1.37112,-1.11216 -3.15428,-2.14454 -2.12933,-1.2328 -3.24211,-2.03071 -3.24211,-2.32471 0,-0.30704 2.19886,-1.721262 7.00012,-4.502202 3.85007,-2.22999 7.04015,-4.17462 7.08907,-4.32138 0.0489,-0.14677 -0.57105,-0.63933 -1.37772,-1.094588 -0.80668,-0.45526 -1.46668,-0.93768 -1.46668,-1.07205 0,-0.3628 0.83551,-0.88712 7.96083,-4.99573 3.75206,-2.1635 6.79334,-3.75127 7.18535,-3.75127 0.37383,0 2.13055,0.83343 3.90382,1.85208 1.77326,1.01865 3.48096,1.85015 3.79489,1.84778 0.3139,-0.002 4.76086,-2.42423 9.88213,-5.38192 l 9.31141,-5.37761 -5.19486,-2.99883 c -2.85718,-1.64936 -5.4995,-3.05303 -5.87182,-3.11927 -0.37695,-0.0671 0.0852,0.29009 1.04283,0.80588 4.12922,2.2241 8.07598,4.65939 8.14914,5.02831 0.0437,0.2201 -0.11366,0.59322 -0.34962,0.82917 -0.86733,0.86734 -1.9331,0.52226 -6.5264,-2.11313 -2.43692,-1.39816 -4.57657,-2.71783 -4.75482,-2.93259 -0.42027,-0.50641 -0.008,-1.19506 0.8609,-1.43821 0.36999,-0.10353 -0.23905,-0.18912 -1.45471,-0.20446 -2.33373,-0.0294 -3.31727,-0.39691 -7.24355,-2.70639 -1.20502,-0.7088 -2.24068,-1.28873 -2.30148,-1.28873 -0.0608,0 -0.41431,-0.28154 -0.78563,-0.62565 -0.57568,-0.53354 -0.67542,-0.85492 -0.67733,-2.18281 l -0.003,-1.55716 -17.07217,-9.85573 -17.07217,-9.85573 h -2.73701 c -1.92273,0 -3.0418,-0.12733 -3.76151,-0.428 -1.40354,-0.58634 -4.99122,-2.64521 -6.50232,-3.7315 -1.22783,-0.88265 -1.24555,-0.91645 -1.32292,-2.52324 l -0.078,-1.6286 -16.80104,-9.72009 -16.80104,-9.72009 -2.85741,-0.0149 c -2.0193,-0.0105 -3.08638,-0.13327 -3.63802,-0.41854 -0.429339,-0.22201 -0.780609,-0.35483 -0.780609,-0.29516 0,0.15616 -5.55229,-3.1484104 -6.40405,-3.8115104 -0.618676,-0.48165 -0.726086,-0.77728 -0.793746,-2.18472 l -0.0782,-1.62769 -1.71861,-0.998 c -0.94523,-0.54889 -1.93959,-0.99799 -2.20968,-0.99799 -0.27009,0 0.20563,0.36415 1.05715,0.80922 0.85153,0.44508 1.77884,1.03619 2.06071,1.31358 0.49827,0.49038 0.49897,0.51928 0.0251,1.04286 -0.70375,0.77764 -2.00977,0.68279 -3.69511,-0.26836 -0.78633,-0.44378 -1.57176,-0.97804 -1.74539,-1.18726 -0.41522,-0.50031 -0.15124,-1.1343 0.59754,-1.43504 0.44183,-0.17746 0.0752,-0.24125 -1.3832,-0.24069 l -1.98437,8e-4 -39.6875,22.9350604 C 4.0352452,47.64929 3.8479152,47.76149 3.7635262,48.6424 c -0.139343,1.45456 0.0989,1.72259 0.857176,0.96431 0.806993,-0.80699 1.681613,-0.83346 3.140753,-0.0951 1.89662,0.9598 2.6248598,1.57592 2.4867798,2.10393 -0.11057,0.42282 0.0777,0.49526 1.49932,0.57677 0.99606,0.0571 0.48713,0.11295 -1.31399,0.14419 l -2.9397398,0.051 -2.01548,-1.12448 -2.015486,-1.12447 0.0054,-1.5875 0.0054,-1.5875 40.0285058,-23.0849 40.02851,-23.08489 h 2.52146 c 2.4752,0 2.55826,0.0206 4.52841,1.1244796 l 2.00696,1.12447 0.0804,1.69871 c 0.0519,1.09667 0.20188,1.73887 0.42322,1.81202 0.26424,0.0873 0.32491,-0.32672 0.26459,-1.80593 l -0.0783,-1.91926 -2.248944,-1.29656 -2.24895,-1.2965596 -2.91042,0.085 -2.91042,0.085 -40.08437,23.17054 -40.0843748,23.17054 -0.07787,1.74648 -0.07787,1.74647 2.06225,1.21015 2.062245,1.21015 3.6380198,-0.0421 c 2.00092,-0.0232 3.63802,-0.0772 3.63802,-0.12005 0,-0.0428 -1.60956,-0.99301 -3.5768,-2.11147 -1.9672398,-1.11846 -3.6481998,-2.1491 -3.7354698,-2.29031 -0.0873,-0.1412 0.004,-0.41683 0.20337,-0.61251 C 7.1249512,47.28734 24.254271,37.32728 44.990991,25.34955 75.450211,7.7560196 82.873031,3.5718696 83.625311,3.5718696 c 0.75506,0 12.678374,6.7811904 63.036709,35.8510404 39.54719,22.82901 62.10562,35.99677 62.10578,36.25223 0,0.43294 -13.18734,8.19777 -13.92291,8.19777 -0.23124,0 -2.00877,-0.90303 -3.95004,-2.00672 -2.56352,-1.45747 -3.67993,-1.959 -4.0789,-1.83238 -0.91133,0.28925 -16.771,9.5449 -16.8714,9.8461 -0.0512,0.15375 0.56682,0.65202 1.3735,1.10728 0.80667,0.455258 1.46668,0.876518 1.46668,0.936128 0,0.33963 -0.35509,0.94542 -0.55416,0.94542 -0.29405,0 -12.64471,7.09961 -13.27032,7.628252 -0.25466,0.2152 -0.46302,0.4755 -0.46302,0.57845 0,0.10295 1.48828,1.044 3.30729,2.09121 1.81901,1.04721 3.30729,2.01139 3.30729,2.14262 0,0.39942 -0.46219,0.69753 -6.21771,4.01045 -3.05593,1.75901 -5.8539,3.199 -6.21771,3.19995 -0.36454,10e-4 -2.94056,-1.32119 -5.73874,-2.94543 -2.86761,-1.66454 -5.37222,-2.94716 -5.75496,-2.94716 -0.39488,0 -3.90716,1.86431 -8.41647,4.46744 -4.25633,2.4571 -7.97691,4.53819 -8.26795,4.62464 -0.35831,0.10644 -1.42615,-0.3513 -3.30729,-1.41771 l -2.77813,-1.5749 -0.0804,1.4847 c -0.11228,2.07241 0.0423,2.35178 0.85283,1.54126 0.95829,-0.95829 2.30974,-0.83444 3.65087,0.33458 0.60173,0.5245 0.22452,1.23778 -0.8533,1.61351 -0.70359,0.24527 -1.00847,0.17265 -2.38243,-0.56748 l -1.57559,-0.84875 -0.004,-1.63803 c -0.002,-0.90092 -0.1254,-1.71282 -0.2733,-1.80422 -0.14789,-0.0914 -0.18903,-0.29542 -0.0914,-0.45338 0.10594,-0.1714 0.0543,-0.21107 -0.12797,-0.0984 -0.18634,0.11516 -0.30548,0.95168 -0.30548,2.14479 v 1.95599 l 1.78476,1.04564 c 1.30093,0.76217 1.90482,0.98138 2.22762,0.80862 0.27424,-0.14677 0.47637,-0.13643 0.5309,0.0272 z m 47.59431,-66.41422 c -9.07625,-5.23875 -16.55967,-9.525 -16.62983,-9.525 -0.0701,0 -0.27867,-0.20667 -0.46337,-0.45926 -0.90141,-1.23276 1.2096,-2.0727 2.95497,-1.17574 2.45688,1.26261 32.78684,18.89986 32.94707,19.15915 0.38947,0.63018 -0.69427,1.52585 -1.84624,1.52585 -0.25318,0 -7.88635,-4.28625 -16.9626,-9.525 z m 17.94574,9.02074 c 0.47358,-0.29993 1.83103,0.52594 -16.75349,-10.19284 -13.25612,-7.64559 -16.02421,-9.14665 -16.86719,-9.14665 -0.55467,0 -1.00849,0.096 -1.00849,0.21336 0,0.344 33.13409,19.36621 33.72554,19.36175 0.29591,-0.002 0.70255,-0.10825 0.90363,-0.23562 z m 0.12716,-1.33167 C 187.11926,59.26952 155.89492,41.275 155.39073,41.08153 c -0.2459,-0.0944 -0.36345,-0.0309 -0.29928,0.16165 0.14603,0.43807 32.35488,19.02137 32.47389,18.73621 0.0528,-0.1264 -0.007,-0.32078 -0.13229,-0.43195 z m -32.6573,-18.44431 c 0.0631,-0.0558 -0.0173,-0.2335 -0.17867,-0.39483 -0.3769,-0.37689 -2.08684,-0.0705 -2.26997,0.40669 -0.10598,0.27619 0.13733,0.32539 1.09893,0.22218 0.67928,-0.0729 1.28665,-0.17822 1.34971,-0.23404 z M 136.66779,33.0981 c -0.14462,-0.14444 -7.40669,-4.3847 -16.13794,-9.42279 -8.73125,-5.0381 -16.10562,-9.38577 -16.38748,-9.66151 -0.49828,-0.48744 -0.49897,-0.51626 -0.0251,-1.03984 1.07731,-1.19043 1.32892,-1.07019 18.59219,8.88472 8.98769,5.18277 16.57773,9.64927 16.86675,9.92555 0.81718,0.78115 0.25828,1.40249 -1.34813,1.49875 -0.71352,0.0427 -1.41563,-0.0404 -1.56025,-0.18488 z m 2.77977,-0.1358 c 0,-0.0609 0.0708,-0.32875 0.15725,-0.59531 0.11996,-0.36974 0.0955,-0.398 -0.10323,-0.11919 -0.20736,0.29093 -3.5983,-1.56698 -16.62757,-9.11033 -14.94256,-8.65106 -16.46985,-9.47502 -17.54796,-9.46689 -0.99745,0.008 -1.08062,-0.0282 -0.53539,-0.22988 0.35503,-0.13133 0.91619,-0.17084 1.24703,-0.0878 0.42792,0.1074 0.60154,0.035 0.60154,-0.25094 0,-0.55501 -1.93033,-0.54837 -2.39227,0.008 -0.27898,0.33614 -0.27289,0.47587 0.0337,0.7743 0.20579,0.20028 7.69649,4.59553 16.64603,9.76721 14.31543,8.2725 16.40707,9.40416 17.39635,9.41216 0.61846,0.005 1.12448,-0.0407 1.12448,-0.10156 z m -0.30317,-1.32487 c -0.84917,-0.72067 -32.25005,-18.53407 -32.19129,-18.26179 0.10538,0.48827 32.06501,18.95868 32.19129,18.60429 0.0515,-0.14463 0.0515,-0.29876 0,-0.3425 z m -16.6888,85.61486 c 0.24482,-0.15536 0.15004,-0.30039 -0.34318,-0.52512 -0.78658,-0.35839 -2.5086,-0.41764 -2.5086,-0.0863 0,0.59467 2.15134,1.05593 2.85178,0.61144 z m -11.31845,-4.14288 c 0,-2.20486 -0.10126,-3.57188 -0.26458,-3.57188 -0.14552,0 -0.26458,-0.17859 -0.26458,-0.39687 0,-0.33243 -0.55857,-0.39688 -3.43959,-0.39688 h -3.43958 v 3.96875 3.96875 h 3.70417 3.70416 z m 11.27235,2.84978 c -0.26895,-0.26895 -0.49086,0.13597 -0.27019,0.49302 0.16669,0.26972 0.22902,0.26993 0.31863,0.001 0.0613,-0.18383 0.0395,-0.40617 -0.0484,-0.49409 z m -19.00434,-3.4286 -0.0732,-3.8861 -17.065615,-9.863392 c -9.38609,-5.42487 -17.15811,-9.867368 -17.27114,-9.872228 -0.11303,-0.005 -0.17256,1.73376 -0.13229,3.863598 l 0.0732,3.87244 17.06563,9.873272 c 9.386086,5.4303 17.158095,9.87896 17.271125,9.8859 0.11303,0.007 0.17256,-1.73613 0.13229,-3.87349 z m 18.27567,3.47163 c 0.051,-0.0437 0.0142,-0.20647 -0.0818,-0.36167 -0.34718,-0.56176 -2.52442,-0.14055 -2.52442,0.48837 0,0.19546 2.36469,0.0805 2.60618,-0.1267 z m 11.08573,-5.17224 c 4.50931,-2.60313 8.02159,-4.46745 8.41647,-4.46745 0.38274,0 2.88735,1.28263 5.75496,2.94717 2.80395,1.62758 5.37345,2.94615 5.73874,2.94489 0.82954,-0.003 11.90625,-6.3747 11.90625,-6.84903 0,-0.30297 -4.19203,-2.97253 -5.38914,-3.4319 -0.38635,-0.14826 -0.43169,0.21799 -0.43169,3.48744 0,2.49937 -0.0858,3.56728 -0.27172,3.38138 -0.16891,-0.16892 -0.24399,-1.80263 -0.19844,-4.31786 l 0.0733,-4.04614 5.61328,-3.209542 5.61329,-3.20953 0.009,-2.17906 0.009,-2.179058 0.99219,-0.64531 c 1.81849,-1.18275 15.66473,-9.11237 16.21824,-9.28804 0.39354,-0.12491 1.52657,0.38498 4.07469,1.8337 1.94128,1.1037 3.71973,2.00673 3.95211,2.00673 0.43392,0 7.56491,-3.99551 7.55547,-4.23334 -0.0119,-0.29825 -117.878925,-68.1123 -118.558895,-68.2121 -0.59565,-0.0874 -7.4838,3.78623 -35.67037,20.0598 -19.2127,11.09248 -34.93216,20.24357 -34.93215,20.33575 2e-5,0.0922 13.60291,8.02143 30.22865,17.62057 80.874835,46.69439 80.451545,46.45256 81.011765,46.28332 0.30031,-0.0907 4.02846,-2.17529 8.2848,-4.63239 z m -15.98758,0.9702 c -0.26535,-0.18036 -1.37542,-0.83854 -2.46683,-1.46262 -1.0914,-0.62407 -2.36106,-1.36041 -2.82145,-1.63629 -0.83089,-0.4979 -0.83605,-0.49764 -0.69675,0.035 0.0772,0.29516 0.2275,0.53665 0.33404,0.53665 0.10654,0 1.42168,0.70945 2.92253,1.57656 1.50086,0.8671 2.83729,1.50951 2.96987,1.42758 0.13257,-0.0819 0.0239,-0.29654 -0.24141,-0.47691 z m -6.60805,-3.51942 c 0.0678,-0.10914 -1.26459,-0.16843 -2.96095,-0.13175 l -3.08429,0.0667 -17.065615,-9.870232 -17.06563,-9.870228 -0.0811,-1.56439 c -0.0446,-0.86041 -0.21024,-1.72006 -0.36815,-1.91033 -0.22133,-0.26669 -0.18761,-0.30776 0.1472,-0.17928 0.33942,0.13025 0.4343,0.53276 0.4343,1.84253 0,0.92173 0.11906,1.74945 0.26458,1.83939 0.14552,0.0899 0.26458,-0.0179 0.26458,-0.23966 0,-0.52404 0.81645,-0.95097 1.81859,-0.95097 0.56282,0 5.57194,2.75379 17.14916,9.427848 8.994766,5.185322 16.564165,9.610612 16.820885,9.833972 0.27912,0.24287 0.40491,0.60101 0.3129,0.89091 -0.13793,0.43459 0.0169,0.48477 1.49556,0.48477 0.90719,0 1.56743,-0.082 1.46721,-0.18222 -0.61635,-0.61635 -40.298805,-23.28149 -40.575605,-23.17527 -0.2352,0.0903 -0.33803,0.71631 -0.3319,2.0207 l 0.009,1.88992 17.25518,9.966448 17.255175,9.966452 3.35783,0.0216 c 1.8468,0.0119 3.41332,-0.0677 3.48116,-0.17687 z m 62.28166,-2.91765 2.18107,-1.24954 0.003,-5.622392 c 0,-3.09232 -0.0507,-5.6224 -0.11469,-5.6224 -0.0641,0 -3.07039,1.71215 -6.68074,3.80478 -4.83754,2.80341 -6.56518,3.933512 -6.56518,4.293902 0,0.34518 0.89542,1.00811 3.04271,2.25269 l 3.04271,1.76357 0.0787,1.61362 0.0787,1.61361 1.37648,-0.79916 c 0.75707,-0.43953 2.35797,-1.36144 3.55755,-2.04868 z m -66.13085,2.26938 c 0.17462,-0.17462 0.31567,-0.44251 0.31344,-0.59531 -0.002,-0.1528 -0.10936,-0.1115 -0.23807,0.0918 -0.18366,0.29006 -3.75583,-1.67015 -16.598545,-9.108362 C 75.643845,89.82255 73.284715,88.54 72.328335,88.5229 c -0.75854,-0.0135 -0.97874,-0.0908 -0.70137,-0.24603 0.22237,-0.12444 0.7497,-0.15719 1.17183,-0.0728 0.56945,0.11389 0.76752,0.0528 0.76752,-0.23675 0,-0.2753 -0.29228,-0.38907 -0.99219,-0.38621 -1.31471,0.005 -1.87774,0.36274 -1.50749,0.95686 0.15315,0.24576 7.65409,4.710638 16.66875,9.921968 16.842505,9.736572 17.632455,10.126412 18.586345,9.172532 z m -0.25026,-1.11665 c -0.2684,-0.22388 -31.519765,-18.18961 -31.883765,-18.32929 -0.26414,-0.10136 -0.38942,-0.0459 -0.326,0.14441 0.15411,0.46234 32.100965,18.84204 32.209765,18.53096 0.0515,-0.14736 0.0515,-0.30309 0,-0.34608 z m 74.88561,-10.472102 5.30688,-3.04271 0.007,-5.622388 c 0.004,-3.09232 -0.0558,-5.6224 -0.13303,-5.6224 -0.0772,0 -3.17558,1.75617 -6.8852,3.90261 -4.40939,2.55132 -6.71968,4.03404 -6.67229,4.28221 0.0399,0.20879 0.60813,0.6927 1.26281,1.07536 l 1.19033,0.695748 0.0735,3.77287 c 0.0404,2.07508 0.17907,3.7343 0.30808,3.68714 0.12901,-0.0471 2.62265,-1.45495 5.54146,-3.12844 z m 14.58214,-5.159368 v -5.68854 h -0.66145 -0.66146 v 5.68854 5.688538 h 0.66146 0.66145 z m -1.5875,-0.23667 v -5.66063 l -2.71198,-1.52227 c -1.49158,-0.83725 -2.80127,-1.57121 -2.91041,-1.63103 -0.10914,-0.0598 -0.19844,2.43331 -0.19844,5.54029 v 5.649038 l 2.84427,1.63524 c 1.56435,0.89939 2.87404,1.63856 2.91042,1.64262 0.0364,0.004 0.0661,-2.53992 0.0661,-5.653258 z m 12.43542,-0.45781 9.92188,-5.73231 0.0768,-1.98263 c 0.0598,-1.5448 -0.0175,-2.07679 -0.34965,-2.409 -0.60962,-0.60964 -0.91773,-0.52759 -0.91773,0.24439 0,0.6047 0.0586,0.64236 0.59531,0.38228 0.57166,-0.27703 0.57492,-0.27214 0.0817,0.12298 -0.28249,0.22632 -0.60992,0.41148 -0.7276,0.41148 -0.11771,0 -0.21402,-1.78711 -0.21402,-3.97134 0,-3.59905 -0.048,-4.01243 -0.51181,-4.40957 -0.28149,-0.24103 -2.86549,-1.78768 -5.7422,-3.437 l -5.23039,-2.99876 h -3.23803 c -2.09034,0 -3.30244,0.10426 -3.41981,0.29416 -0.18415,0.29795 0.42063,0.8469 0.66442,0.60311 0.0728,-0.0728 -0.003,-0.21512 -0.16688,-0.31634 -0.16451,-0.10123 1.12385,-0.1442 2.86309,-0.0955 l 3.16222,0.0886 5.63255,3.23405 c 4.47675,2.57042 5.60065,3.32497 5.47712,3.67714 -0.0855,0.24369 -4.26226,2.81337 -9.28172,5.71039 l -9.12627,5.26731 -0.0714,5.73635 c -0.057,4.584858 -0.004,5.693818 0.26458,5.524458 0.18476,-0.11655 4.80079,-2.79144 10.25782,-5.944208 z m -34.13329,1.947358 c 0.002,-0.3129 -1.47809,-1.381998 -1.91619,-1.384178 -0.10914,-5.3e-4 -0.19844,0.657408 -0.19844,1.462108 v 1.46311 l 1.0563,-0.60321 c 0.58096,-0.33177 1.05721,-0.75379 1.05833,-0.93783 z m 15.61246,-4.985038 v -5.66055 h -0.66146 -0.66146 l 1.9e-4,5.6224 1.8e-4,5.622388 0.66127,0.0382 0.66128,0.0382 z m -119.327145,1.15247 -7e-5,-3.50573 -2.56512,-1.45521 c -1.41082,-0.80036 -2.66094,-1.49489 -2.77806,-1.5434 -0.11711,-0.0485 -0.21293,1.50551 -0.21293,3.45338 v 3.54157 l 2.57968,1.5031 c 1.41883,0.8267 2.66899,1.505108 2.77813,1.507558 0.10914,0.002 0.1984,-1.573118 0.19837,-3.501268 z m -13.49368,-3.60329 v -3.93401 l -17.01963,-9.82432 c -9.3608,-5.40338 -17.10304,-9.82432 -17.20499,-9.82432 -0.10195,0 -0.15242,1.73938 -0.11214,3.86529 l 0.0732,3.86529 17.06562,9.87559 c 9.38609,5.43158 17.09539,9.88345 17.13177,9.89305 0.0364,0.01 0.0661,-1.75286 0.0661,-3.91657 z m 7.67291,0.51608 c 0,-1.87987 -0.0723,-3.60628 -0.1606,-3.83646 -0.13538,-0.35281 -0.71697,-0.41852 -3.70416,-0.41852 h -3.54357 v 3.83646 3.83646 h 3.70417 3.70416 z m 6.35,-0.91788 c 0,-0.0564 -1.04179,-0.69623 -2.3151,-1.42191 -1.27331,-0.72569 -2.78025,-1.59531 -3.34876,-1.93249 -0.91825,-0.54462 -1.00249,-0.55738 -0.75454,-0.11432 0.51767,0.92502 6.4184,4.11398 6.4184,3.46872 z m -7.12822,-3.9579 c 0.008,-0.12316 -9.01169,-5.43732 -20.04299,-11.80926 l -20.05691,-11.58533 -0.0804,1.46088 c -0.11503,2.08915 0.0617,2.4157 0.88762,1.63981 0.43865,-0.41209 0.957,-0.61266 1.54057,-0.59612 0.64798,0.0184 5.19084,2.51303 17.25754,9.47679 9.00792,5.19852 16.5864,9.63458 16.84106,9.85791 0.25466,0.22333 0.45362,0.53643 0.44213,0.69578 -0.0115,0.15934 -0.0854,0.12742 -0.16432,-0.071 -0.11008,-0.27682 -0.18994,-0.2854 -0.34351,-0.0369 -0.14065,0.22757 -5.1165,-2.51434 -16.75086,-9.23048 -16.09882,-9.29332 -17.40486,-9.9592 -18.34225,-9.35173 -0.1738,0.11263 6.54912,4.14473 15.98503,9.58709 l 16.28499,9.39271 2.88411,0.0628 c 1.58626,0.0346 3.04703,0.15362 3.24616,0.26459 0.19913,0.11096 -1.06702,0.16182 -2.81367,0.11303 l -3.17571,-0.0887 -16.98152,-9.79883 c -9.33983,-5.38935 -17.00421,-9.81712 -17.03194,-9.83948 -0.0277,-0.0224 -0.0752,-0.89047 -0.10557,-1.92913 -0.0427,-1.462 -0.13586,-1.8575 -0.41259,-1.7513 -0.25576,0.0981 -0.35394,0.67483 -0.34509,2.02709 l 0.0124,1.88992 17.25169,9.96707 17.25169,9.96708 3.37425,-0.0452 c 1.85583,-0.0249 3.3805,-0.14597 3.38815,-0.26913 z m -4.02286,-1.61112 c -0.0515,-0.0452 -7.34405,-4.26703 -16.20557,-9.38185 -14.14545,-8.16465 -17.20758,-9.82588 -16.13504,-8.75334 0.64428,0.64428 32.25711,18.70242 32.34061,18.47387 0.0515,-0.14107 0.0515,-0.29348 0,-0.33868 z M 208.1858,75.63318 C 208.1314,75.30212 189.37218,64.33621 147.78193,40.32343 114.60318,21.16717 86.828415,5.1373996 86.060215,4.7017196 l -1.39672,-0.79213 0.0738,3.61469 0.0738,3.6147004 58.993205,34.05976 58.9932,34.05977 2.73357,-1.57258 c 2.06484,-1.18785 2.71431,-1.69005 2.65472,-2.05275 z m 3.44009,-1.0736 c 0.17463,-0.17463 0.30914,-0.50205 0.2989,-0.72761 -0.0148,-0.3283 -0.055,-0.31814 -0.20119,0.0509 -0.15745,0.39751 -0.78343,0.11516 -4.54546,-2.05034 -4.18431,-2.40856 -5.75744,-2.9874 -6.19498,-2.27947 -0.0789,0.12774 1.8488,1.37754 4.28387,2.77735 4.41732,2.5393 5.62525,2.96276 6.35886,2.22916 z m -0.2617,-1.02321 c -0.14343,-0.43034 -7.74171,-4.72364 -7.84889,-4.43491 -0.1188,0.32006 -0.49268,0.0681 3.79788,2.55911 3.7279,2.16432 4.22373,2.39391 4.05101,1.8758 z m 2.68684,0.0839 c -0.005,-0.10915 -2.45549,-1.5969 -5.44562,-3.30614 -2.99011,-1.70923 -5.39652,-2.98745 -5.34752,-2.84048 0.083,0.24915 10.16812,6.2579 10.60373,6.31778 0.10914,0.015 0.19439,-0.062 0.18941,-0.17116 z m -10.83971,-4.73165 c 0,-0.41407 -0.9212,-0.61686 -1.77144,-0.38947 -1.19086,0.31849 -0.94797,0.69342 0.44786,0.69133 0.80756,-10e-4 1.32308,-0.11878 1.32358,-0.30186 z m -0.26376,-1.41992 c 0,-0.15875 -1.05834,-0.26458 -2.64584,-0.26458 -1.5875,0 -2.64583,0.10583 -2.64583,0.26458 0,0.15875 1.05833,0.26459 2.64583,0.26459 1.5875,0 2.64584,-0.10584 2.64584,-0.26459 z m -182.566185,-6.94531 -0.004,-3.50573 -2.53109,-1.45521 c -1.3921,-0.80036 -2.6406,-1.49489 -2.77444,-1.5434 -0.14034,-0.0509 -0.24335,1.4092 -0.24335,3.44905 v 3.53724 l 2.57969,1.49774 c 1.41883,0.82375 2.66898,1.5041 2.77812,1.51188 0.10914,0.008 0.19678,-1.56342 0.19475,-3.49157 z M 189.71839,62.7062 c -0.20984,-0.12969 -0.44109,-0.17628 -0.51385,-0.10351 -0.0728,0.0728 0.0394,0.2384 0.24927,0.3681 0.20984,0.12969 0.44108,0.17628 0.51384,0.10352 0.0728,-0.0728 -0.0394,-0.23841 -0.24926,-0.36811 z m 0.25572,-2.18281 -0.009,-1.91823 -17.33886,-9.98802 -17.33884,-9.98802 -3.22366,0.004 c -3.40165,0.004 -4.39979,0.23105 -3.39168,0.77057 0.32219,0.17243 0.56491,0.19412 0.56491,0.0505 0,-0.13852 -0.12068,-0.29153 -0.26817,-0.34004 -0.14749,-0.0485 1.18172,-0.048 2.9538,10e-4 l 3.22197,0.0893 17.02224,9.82971 17.02224,9.82972 v 1.61241 c 0,0.88683 0.0794,1.69179 0.1764,1.78881 0.46281,0.46283 0.61664,0.0225 0.60849,-1.74184 z M 6.8913152,56.91051 V 52.9669 l -1.25677,-0.72142 C 4.9433202,51.84869 3.9908212,51.29189 3.5178782,51.00813 L 2.657982,50.49221 v 3.96373 3.96373 l 2.0505212,1.19124 c 1.127782,0.65518 2.080282,1.20294 2.116662,1.21723 0.0364,0.0143 0.0661,-1.74864 0.0661,-3.91763 z m 7.6729198,0.37174 c 0,-2.20486 -0.10126,-3.57188 -0.26459,-3.57188 -0.14552,0 -0.26458,-0.17859 -0.26458,-0.39687 0,-0.33243 -0.55856,-0.39688 -3.43958,-0.39688 H 7.1558952 v 3.96875 3.96875 h 3.7041698 3.70417 z m 10.56128,2.87314 c 0.2499,-0.21538 -0.29449,-0.4478 -1.04888,-0.4478 -0.44349,0 -1.0062,0.19985 -1.25046,0.44411 -0.41576,0.41577 -0.36007,0.43309 0.87249,0.27141 0.72413,-0.095 1.36622,-0.21546 1.42685,-0.26772 z M 188.75891,58.99506 c -0.47996,-0.47997 -33.56377,-19.51566 -33.69873,-19.38951 -0.0716,0.0669 0.0475,0.22855 0.26458,0.35926 3.54657,2.13576 33.27328,19.27089 33.45436,19.28384 0.14362,0.0103 0.13494,-0.0984 -0.0201,-0.25359 z M 20.750255,56.36862 c -0.0777,-0.0777 -1.5311,-0.93984 -3.22979,-1.91587 -1.86546,-1.07186 -3.13043,-1.65405 -3.19436,-1.47016 -0.0582,0.16745 10e-4,0.34229 0.13229,0.38854 0.13097,0.0462 1.42875,0.78629 2.88396,1.64454 1.45521,0.85825 2.84909,1.54554 3.0975,1.52733 0.24842,-0.0182 0.3881,-0.0967 0.3104,-0.17438 z M 9.8017352,51.99593 c 0,-0.0698 -0.62508,-0.48542 -1.38907,-0.92356 -1.3457,-0.77175 -3.37343,-1.10645 -3.37343,-0.55682 0,0.5354 2.26025,1.55463 3.50573,1.58085 0.69122,0.0146 1.25677,-0.0307 1.25677,-0.10047 z m -0.26459,-0.93528 c 0,-0.26421 -1.53089,-1.31611 -1.91823,-1.31804 -0.47352,-0.002 -0.13105,0.52113 0.66146,1.01107 0.99596,0.61572 1.25677,0.67942 1.25677,0.30697 z M 47.981285,31.0885 l 34.83551,-20.10834 0.005,-3.5057204 c 0.003,-1.92816 -0.0654,-3.50573 -0.1515,-3.50573 -0.0861,0 -17.112,9.7890204 -37.83542,21.7533804 -24.39282,14.08283 -37.6771898,21.89635 -37.6739798,22.15885 0.005,0.42279 5.1913898,3.49773 5.7019598,3.38073 0.15562,-0.0357 15.95893,-9.11359 35.11846,-20.17317 z M 7.1162452,49.85631 c 0.051,-0.0437 0.0142,-0.20647 -0.0818,-0.36167 -0.34718,-0.56176 -2.52442,-0.14055 -2.52442,0.48837 0,0.19546 2.36469,0.0805 2.60618,-0.1267 z M 83.223605,1.5342996 c 0.18386,-0.20104 0.14349,-0.24598 -0.13229,-0.14731 C 82.199465,1.7060996 3.8541612,47.07913 3.7726192,47.32375 3.6779192,47.60785 82.779755,2.0196196 83.223605,1.5342996 Z M 153.53662,39.49239 c -0.76398,-0.0534 -2.01414,-0.0534 -2.77812,0 -0.76399,0.0534 -0.13891,0.0972 1.38906,0.0972 1.52797,0 2.15304,-0.0437 1.38906,-0.0972 z M 141.41303,34.8116 c -0.28018,-0.20488 -0.56896,-0.31298 -0.64172,-0.24022 -0.0728,0.0728 0.097,0.29993 0.37714,0.50481 0.28019,0.20488 0.56897,0.31297 0.64173,0.24021 0.0728,-0.0728 -0.097,-0.29992 -0.37715,-0.5048 z m 0.41012,-2.06942 -0.006,-1.91823 -17.33909,-9.99927 -17.3391,-9.99928 -3.5704,0.0382 c -2.43546,0.026 -3.53995,0.1295 -3.47464,0.32545 0.0527,0.158 0.25372,0.33992 0.44678,0.40427 0.20925,0.0697 0.27641,-0.004 0.16629,-0.1819 -0.1332,-0.21551 0.6501,-0.29778 2.80744,-0.29486 l 2.99218,0.004 17.06562,9.85388 17.06563,9.85387 0.0811,1.57616 c 0.0773,1.5026 0.37025,2.25593 0.87738,2.25593 0.12771,0 0.22964,-0.8632 0.22653,-1.91823 z m -1.46719,-1.75562 c -0.55635,-0.50791 -33.50716,-19.37808 -33.62753,-19.25771 -0.1467,0.1467 -0.74759,-0.20773 19.09309,11.26218 12.80941,7.40514 15.52268,8.89773 14.53444,7.99553 z m -33.98132,-19.3449 c 0,-0.15875 -1.05833,-0.26458 -2.64583,-0.26458 -1.5875,0 -2.64583,0.10583 -2.64583,0.26458 0,0.15875 1.05833,0.26459 2.64583,0.26459 1.5875,0 2.64583,-0.10584 2.64583,-0.26459 z M 84.414235,7.2760396 v -3.57188 h -0.66146 -0.66146 v 3.57188 3.5718704 h 0.66146 0.66146 z m 8.995826,-0.10399 c 0,-0.12995 -0.17859,-0.3048 -0.39688,-0.38857 -0.403296,-0.15476 -0.541856,0.12708 -0.22048,0.44846 0.25286,0.25286 0.61736,0.2175 0.61736,-0.0599 z m -2.169576,-2.19789 c 0.17462,-0.17462 0.31567,-0.44251 0.31344,-0.59531 -0.002,-0.1528 -0.10489,-0.11872 -0.22815,0.0757 -0.17735,0.27979 -0.52597,0.18319 -1.67099,-0.46302 -1.40316,-0.7919 -2.93878,-1.06555 -3.24044,-0.57746 -0.0813,0.13151 0.47724,0.60107 1.24116,1.04345 1.45571,0.84301 3.0315,1.07008 3.58498,0.5166 z m -0.21371,-0.80698 c -0.001,-0.1819 -0.47737,-0.60217 -1.05833,-0.93394 -0.7187,-0.41042 -1.05547,-0.49498 -1.05371,-0.26458 0.001,0.18624 0.44791,0.60125 0.99219,0.92223 1.18848,0.70088 1.12237,0.68457 1.11985,0.27629 z m 1.32496,-0.70473 c 0,-0.13294 -0.84324,-0.72787 -1.87385,-1.32206 -2.34014,-1.3491896 -2.32105,-0.9285696 0.0218,0.47956 2.03803,1.22494 1.85209,1.14036 1.85209,0.8425 z m -3.70499,-0.72179 c 0.001,-0.44396 -1.18132,-0.66443 -1.96519,-0.3664 -1.06139,0.40354 -0.80365,0.67256 0.64227,0.67041 0.8127,-0.001 1.32242,-0.11834 1.32292,-0.30401 z m -0.26376,-1.41775 c 0,-0.1567896 -0.97014,-0.2645796 -2.38125,-0.2645796 -1.41111,0 -2.38125,0.10779 -2.38125,0.2645796 0,0.15679 0.97014,0.26459 2.38125,0.26459 1.41111,0 2.38125,-0.1078 2.38125,-0.26459 z"
     id="path21" />
</svg>
