<?xml version="1.0" encoding="UTF-8" standalone="no"?>
<svg
   xmlns:dc="http://purl.org/dc/elements/1.1/"
   xmlns:cc="http://creativecommons.org/ns#"
   xmlns:rdf="http://www.w3.org/1999/02/22-rdf-syntax-ns#"
   xmlns:svg="http://www.w3.org/2000/svg"
   xmlns="http://www.w3.org/2000/svg"
   xmlns:sodipodi="http://sodipodi.sourceforge.net/DTD/sodipodi-0.dtd"
   xmlns:inkscape="http://www.inkscape.org/namespaces/inkscape"
   id="svg8"
   version="1.1"
   viewBox="0 0 207.42207 116.26431"
   height="116.26432mm"
   width="207.42207mm"
   sodipodi:docname="gaskettop.svg"
   inkscape:version="0.92.3 (2405546, 2018-03-11)">
  <sodipodi:namedview
     pagecolor="#ffffff"
     bordercolor="#666666"
     borderopacity="1"
     objecttolerance="10"
     gridtolerance="10"
     guidetolerance="10"
     inkscape:pageopacity="0"
     inkscape:pageshadow="2"
     inkscape:window-width="640"
     inkscape:window-height="480"
     id="namedview8"
     showgrid="false"
     inkscape:zoom="0.070804714"
     inkscape:cx="2030.71"
     inkscape:cy="196.50392"
     inkscape:window-x="0"
     inkscape:window-y="0"
     inkscape:window-maximized="0"
     inkscape:current-layer="svg8" />
  <defs
     id="defs2" />
  <metadata
     id="metadata5">
    <rdf:RDF>
      <cc:Work
         rdf:about="">
        <dc:format>image/svg+xml</dc:format>
        <dc:type
           rdf:resource="http://purl.org/dc/dcmitype/StillImage" />
        <dc:title />
      </cc:Work>
    </rdf:RDF>
  </metadata>
  <path
     inkscape:connector-curvature="0"
     style="fill:#000000;stroke-width:0.26458332"
     d="m 115.69883,115.95699 c -1.40712,-0.70955 -1.49698,-2.2186 -0.16232,-2.72603 0.8201,-0.31181 1.38621,-0.1734 2.33126,0.56998 1.73842,1.36744 -0.10294,3.19785 -2.16894,2.15605 z m 1.90895,-0.0629 c 0.37328,-0.14192 0.67869,-0.45416 0.67869,-0.69386 0,-0.35621 -0.0721,-0.37602 -0.39445,-0.10845 -0.21695,0.18005 -0.75273,0.27478 -1.19063,0.21051 -0.80203,-0.11771 -1.15635,0.39582 -0.46544,0.6746 0.50493,0.20375 0.63951,0.19562 1.37183,-0.0828 z m -2.05099,-0.84991 c -0.0845,-0.21107 -0.14716,-0.14838 -0.15985,0.15985 -0.0115,0.27891 0.051,0.43518 0.13896,0.34727 0.0879,-0.0879 0.0973,-0.31613 0.0209,-0.50712 z m 0.29738,-0.24229 c 0.76255,0.4081 1.7788,0.36363 2.15899,-0.0945 0.26384,-0.31791 0.16411,-0.48181 -0.56291,-0.92505 -1.01685,-0.61994 -1.03149,-0.62223 -1.89161,-0.29521 -0.46269,0.17592 -0.64561,0.4463 -0.64561,0.95429 0,0.42222 0.08,0.57938 0.19786,0.38868 0.14794,-0.23936 0.33549,-0.24649 0.74328,-0.0282 z m -32.624989,-17.56938 -16.66875,-9.63527 -0.082,-0.93454 c -0.0695,-0.79142 0.0246,-0.9831 0.61396,-1.25165 0.51999,-0.23692 0.89239,-0.24298 1.47265,-0.024 0.94032,0.35493 32.462429,18.50717 33.118849,19.07173 1.07207,0.92205 0.33145,2.45029 -1.17323,2.42093 -0.33699,-0.007 -8.113639,-4.34784 -17.281449,-9.64725 z m 18.234599,9.23401 c 0.85884,-0.32957 0.4333,-0.78083 -0.63981,-0.6785 -0.6807,0.0649 -1.058339,0.23263 -1.058339,0.47002 0,0.38221 0.943559,0.49805 1.698149,0.20848 z m -2.004869,-0.76348 c -0.48877,-0.48877 -32.33038,-18.64823 -32.46083,-18.5126 -0.2462,0.25598 -0.56714,0.0631 16.68231,10.02556 8.6286,4.98346 15.73054,8.95362 15.78208,8.82257 0.0515,-0.13105 0.0499,-0.28204 -0.004,-0.33553 z m 2.291099,-0.6538 c 0,-0.33998 -30.950089,-18.48237 -33.001639,-19.34496 -0.90411,-0.38014 -2.12223,-0.11152 -2.00709,0.4426 0.0461,0.22162 7.4656,4.67847 16.4879,9.90412 14.79744,8.57058 16.50782,9.49551 17.462499,9.44334 0.72631,-0.0397 1.05833,-0.17933 1.05833,-0.4451 z M 51.25992,78.71684 c -0.41164,-0.2147 -7.99917,-4.5765 -16.86117,-9.69289 -10.32822,-5.96288 -16.17028,-9.48378 -16.273,-9.80742 -0.25503,-0.80354 0.56173,-1.80191 1.47415,-1.80191 0.54926,0 5.68547,2.82733 17.12567,9.42717 8.98761,5.18494 16.48993,9.5453 16.67184,9.68969 0.1819,0.14438 0.33072,0.66761 0.33072,1.16271 0,0.72285 -0.1337,0.95103 -0.67868,1.15823 -0.86963,0.33063 -0.90009,0.32833 -1.78953,-0.13558 z m 1.60832,-0.0377 c 1.03976,-0.27865 0.69273,-0.78255 -0.46302,-0.67234 -1.04252,0.0994 -1.3749,0.40269 -0.72761,0.66387 0.46371,0.18711 0.52246,0.18753 1.19063,0.008 z M 51.04372,77.685 C 50.99222,77.6468 43.76706,73.47662 34.98791,68.41798 21.31244,60.53804 17.67283,58.57527 18.95307,59.77073 c 0.76192,0.71147 32.01273,18.49803 32.09065,18.26456 0.0515,-0.15444 0.0515,-0.31207 0,-0.35029 z m 2.28754,-0.50537 c 0,-0.66655 -32.59111,-19.50039 -33.74455,-19.50039 -0.61172,0 -0.85658,0.15755 -1.05471,0.67868 -0.30672,0.80673 -0.33049,1.16785 -0.0476,0.72276 0.14097,-0.22178 5.17619,2.56286 16.59855,9.1795 13.82886,8.01066 16.54121,9.48981 17.32225,9.44647 0.69586,-0.0386 0.92604,-0.1696 0.92604,-0.52702 z m 147.80815,-5.86992 c -2.37998,-1.37465 -4.49334,-2.6372 -4.69635,-2.80568 -0.45262,-0.37564 -0.48379,-1.6085 -0.0516,-2.0407 0.7353,-0.7353 1.94212,-0.30392 6.42937,2.29821 4.4224,2.56451 4.49929,2.62443 4.58007,3.56864 0.0709,0.8287 -0.013,0.99654 -0.61254,1.22445 -0.38208,0.14526 -0.83576,0.26194 -1.00819,0.25927 -0.17243,-0.003 -2.26076,-1.12955 -4.64077,-2.50419 z m 5.45174,2.07769 c 1.03976,-0.27864 0.69273,-0.78255 -0.46302,-0.67233 -1.01481,0.0968 -1.26209,0.28257 -0.88193,0.66271 0.21579,0.21579 0.56628,0.2183 1.34495,0.01 z m -1.8424,-0.66404 c -0.15772,-0.47321 -8.14562,-5.01579 -8.14562,-4.63227 0,0.29741 7.44405,4.85317 8.02569,4.91172 0.12128,0.0122 0.17526,-0.11355 0.11993,-0.27945 z m 2.37715,-0.76253 c 0.0519,-0.27461 -1.35316,-1.22709 -4.41706,-2.99426 -3.62074,-2.08836 -4.66214,-2.57527 -5.36342,-2.50771 -1.78022,0.17152 -1.16321,0.79584 3.41813,3.45859 3.61741,2.1025 4.60946,2.5674 5.36239,2.51293 0.57919,-0.0419 0.95223,-0.21707 0.99996,-0.46955 z M 164.85313,50.37777 c -8.94953,-5.17056 -16.50412,-9.62901 -16.78798,-9.90765 -0.41738,-0.4097 -0.46754,-0.64471 -0.26221,-1.22856 0.30919,-0.87917 1.2721,-1.18183 2.36582,-0.74363 1.22297,0.48999 33.04685,18.92658 33.2673,19.27281 0.60376,0.94825 -0.18454,2.02959 -1.47005,2.01658 -0.61484,-0.006 -5.21705,-2.53677 -17.11288,-9.40955 z m 18.22956,8.78879 c 0.82684,-0.9963 0.19306,-1.42179 -16.30884,-10.94898 -8.87006,-5.12104 -16.40263,-9.4128 -16.73905,-9.53725 -0.78873,-0.29177 -1.85042,-0.0881 -1.85042,0.35492 0,0.18941 -0.0708,0.56248 -0.15725,0.82905 -0.11468,0.35345 -0.0892,0.3898 0.0939,0.13426 0.19436,-0.27115 4.00149,1.81535 16.83379,9.22579 14.8386,8.56903 16.67224,9.55943 17.43472,9.41691 0.69154,-0.12926 0.76041,-0.1053 0.36552,0.12711 -0.26763,0.15752 -0.77364,0.23152 -1.12448,0.16445 -0.42146,-0.0806 -0.63788,2.6e-4 -0.63788,0.23824 0,0.48232 1.68894,0.47868 2.08997,-0.004 z m -2.65108,-0.71628 c -12.6876,-7.44881 -31.87688,-18.35624 -31.95071,-18.16119 -0.0552,0.14582 0.0639,0.36205 0.26458,0.4805 10.72909,6.332 31.87788,18.35247 31.95072,18.16003 0.0552,-0.1458 -0.0639,-0.3615 -0.26459,-0.47934 z M 1.79337,50.1985 c -2.11494,-1.17883 -2.39736,-2.58773 -0.64401,-3.21277 0.56246,-0.20051 0.99207,-0.063 2.48614,0.79588 1.47308,0.8468 1.8219,1.17501 1.89144,1.77975 0.19585,1.70317 -1.34823,1.96667 -3.73357,0.63714 z m 3.43376,0.19158 c 0.0538,-0.1641 -0.34323,-0.27229 -0.97089,-0.26458 -0.69209,0.008 -1.06214,0.13377 -1.06268,0.35974 -0.001,0.42096 1.89355,0.3323 2.03357,-0.0952 z M 2.92595,50.20469 c -10e-4,-0.1819 -0.47745,-0.58873 -1.05833,-0.90406 -1.37776,-0.74792 -1.43699,-0.1483 -0.064,0.64754 1.17931,0.68355 1.12503,0.67115 1.12229,0.25652 z M 4.89087,49.84565 C 5.70193,49.53442 5.291,48.96353 3.55852,47.99468 2.11433,47.18704 1.68658,47.05812 1.11641,47.25864 c -0.51126,0.17979 -0.707,0.44806 -0.75175,1.03027 -0.0354,0.46074 0.0246,0.64948 0.14471,0.45513 0.15465,-0.25024 0.55935,-0.13684 1.64272,0.46029 1.46063,0.80508 1.98938,0.92889 2.73878,0.64132 z M 116.66249,22.54301 c -8.9696,-5.19538 -16.5003,-9.60954 -16.734899,-9.80926 -1.18164,-1.00597 0.213049,-2.78894 1.732849,-2.21528 0.43069,0.16257 8.15774,4.5532 17.17121,9.75696 l 16.38815,9.46138 v 0.86499 c 0,0.94097 -0.56259,1.42236 -1.63625,1.40006 -0.33699,-0.007 -7.95147,-4.26348 -16.92106,-9.45885 z m 17.87421,9.04639 c 0.23019,-0.0883 0.41852,-0.32351 0.41852,-0.52262 0,-0.27649 -0.15573,-0.30281 -0.65917,-0.1114 -0.36253,0.13783 -0.83878,0.18168 -1.05833,0.0974 -0.25379,-0.0974 -0.39917,0.002 -0.39917,0.27201 0,0.43895 0.88459,0.57677 1.69815,0.26458 z m -2.01723,-0.77584 c -0.60454,-0.60454 -32.11945,-18.51447 -32.19821,-18.29826 -0.0582,0.1598 0.001,0.33477 0.13229,0.38884 0.13097,0.0541 7.38187,4.23695 16.11312,9.29529 8.73125,5.05834 15.91717,9.0905 15.96871,8.96036 0.0515,-0.13014 0.0444,-0.28594 -0.0159,-0.34623 z m 2.29211,-0.4181 c 0.15917,-0.14879 0.11002,-0.37102 -0.13229,-0.59818 -0.42512,-0.39854 -31.11616,-18.13191 -32.6311,-18.85433 -1.23543,-0.58914 -2.216409,-0.21801 -2.216409,0.83852 0,0.42275 0.0801,0.58084 0.197809,0.39038 0.13761,-0.22266 5.13959,2.53364 16.43724,9.05761 8.93168,5.15772 16.41802,9.44563 16.6363,9.52869 0.45439,0.17292 1.33562,-0.0142 1.70845,-0.36269 z M 84.019011,3.67137 c -1.96562,-1.04759 -2.50963,-1.5491 -2.50963,-2.31355 0,-0.9344 0.44242,-1.35782 1.41874,-1.35782 0.75107,0 2.70045,0.95362 3.67449,1.79752 0.63982,0.55434 0.57953,1.53046 -0.12502,2.02394 -0.77944,0.54594 -1.20089,0.52021 -2.45858,-0.15009 z m 2.27027,0.0235 c 0.83637,-0.44762 0.58362,-0.76226 -0.48042,-0.59807 -1.16715,0.18011 -1.2325,0.21853 -1.00306,0.58977 0.22088,0.3574 0.82486,0.36078 1.48348,0.008 z m -1.86948,-0.36496 c 0,-0.20584 -0.53578,-0.6737 -1.19062,-1.0397 -1.5359,-0.85843 -1.59243,-0.28688 -0.0661,0.66885 1.36543,0.85501 1.25677,0.82295 1.25677,0.37085 z m 2.08442,-0.65855 c 0.52119,-0.33011 0.21704,-0.67471 -1.42445,-1.61387 -0.99348,-0.56842 -1.71501,-0.80102 -2.30734,-0.74383 -1.34954,0.13031 -1.20537,0.7789 0.38249,1.72076 1.39861,0.82961 2.66491,1.07043 3.3493,0.63694 z"
     id="path73" />
</svg>
