<?xml version="1.0" encoding="UTF-8" standalone="no"?>
<svg
   xmlns:dc="http://purl.org/dc/elements/1.1/"
   xmlns:cc="http://creativecommons.org/ns#"
   xmlns:rdf="http://www.w3.org/1999/02/22-rdf-syntax-ns#"
   xmlns:svg="http://www.w3.org/2000/svg"
   xmlns="http://www.w3.org/2000/svg"
   xmlns:sodipodi="http://sodipodi.sourceforge.net/DTD/sodipodi-0.dtd"
   xmlns:inkscape="http://www.inkscape.org/namespaces/inkscape"
   id="svg8"
   version="1.1"
   viewBox="0 0 207.36482 116.28339"
   height="116.2834mm"
   width="207.36482mm"
   sodipodi:docname="gasketbottom.svg"
   inkscape:version="0.92.3 (2405546, 2018-03-11)">
  <sodipodi:namedview
     pagecolor="#ffffff"
     bordercolor="#666666"
     borderopacity="1"
     objecttolerance="10"
     gridtolerance="10"
     guidetolerance="10"
     inkscape:pageopacity="0"
     inkscape:pageshadow="2"
     inkscape:window-width="640"
     inkscape:window-height="480"
     id="namedview8"
     showgrid="false"
     inkscape:zoom="0.070824262"
     inkscape:cx="2048.4844"
     inkscape:cy="-1281.541"
     inkscape:window-x="0"
     inkscape:window-y="0"
     inkscape:window-maximized="0"
     inkscape:current-layer="svg8" />
  <defs
     id="defs2" />
  <metadata
     id="metadata5">
    <rdf:RDF>
      <cc:Work
         rdf:about="">
        <dc:format>image/svg+xml</dc:format>
        <dc:type
           rdf:resource="http://purl.org/dc/dcmitype/StillImage" />
        <dc:title />
      </cc:Work>
    </rdf:RDF>
  </metadata>
  <path
     inkscape:connector-curvature="0"
     style="fill:#000000;stroke-width:0.26458332"
     d="m 115.58881,115.92989 c -0.77565,-0.42051 -0.92604,-0.64676 -0.92604,-1.39311 0,-0.70365 0.14791,-0.96196 0.70319,-1.2281 1.18274,-0.56688 3.13326,0.46739 3.13326,1.66142 0,1.20733 -1.52573,1.71049 -2.91041,0.95979 z m 1.96714,-0.0358 c 0.37329,-0.14192 0.6787,-0.46338 0.6787,-0.71437 0,-0.35493 -0.0706,-0.38578 -0.3175,-0.13884 -0.17464,0.17462 -0.71042,0.3175 -1.19063,0.3175 -0.86429,0 -1.18079,0.36092 -0.5424,0.61852 0.50493,0.20375 0.63951,0.19562 1.37184,-0.0828 z m -2.05098,-0.8499 c -0.0845,-0.21107 -0.14716,-0.14838 -0.15986,0.15985 -0.0115,0.27891 0.051,0.43518 0.13896,0.34726 0.0879,-0.0879 0.0973,-0.31612 0.0209,-0.50711 z m -0.17696,-0.47956 c 0.12626,0 0.30316,0.11906 0.39308,0.26458 0.24039,0.38894 1.87172,0.32228 2.21427,-0.0905 0.35512,-0.42789 0.17458,-0.63596 -0.9662,-1.11361 -1.27609,-0.53429 -2.09171,-0.15127 -2.09445,0.98357 -10e-4,0.48509 0.0487,0.67363 0.11079,0.41897 0.0621,-0.25466 0.21624,-0.46302 0.34251,-0.46302 z m -32.150655,-17.32044 -16.66875,-9.63438 -0.082,-0.94082 c -0.0696,-0.79814 0.0235,-0.98891 0.61396,-1.25793 0.5024,-0.22891 0.89909,-0.24046 1.42615,-0.0415 0.89905,0.33935 32.521535,18.54393 33.165355,19.09279 1.07285,0.91459 0.33468,2.43897 -1.17323,2.4228 -0.33699,-0.004 -8.113645,-4.34204 -17.281455,-9.64095 z m 18.234605,9.22234 c 0.23019,-0.0883 0.41852,-0.31814 0.41852,-0.5107 0,-0.25532 -0.19696,-0.2945 -0.7276,-0.14471 -0.40019,0.11297 -0.87644,0.15427 -1.05835,0.0918 -0.181895,-0.0625 -0.330725,0.0749 -0.330725,0.30531 0,0.4326 0.890845,0.56811 1.698155,0.25832 z m -2.001315,-0.75779 c -0.49387,-0.48257 -32.34606,-18.64176 -32.47081,-18.51187 -0.24295,0.25296 -0.27025,0.23654 16.7501,10.07205 8.59485,4.96668 15.66917,8.91807 15.72071,8.78086 0.0515,-0.13721 0.0515,-0.29068 0,-0.34104 z m 2.287535,-0.67371 c 0,-0.32089 -32.055295,-19.06436 -33.290445,-19.46569 -0.75585,-0.2456 -1.81399,0.11564 -1.71828,0.5866 0.0665,0.32713 26.34915,15.76355 32.1607,18.88873 1.447625,0.77846 2.848035,0.77372 2.848035,-0.01 z M 51.16276,78.69525 C 50.7262,78.46868 43.14055,74.11279 34.30576,69.0155 23.73126,62.91447 18.18632,59.57069 18.07809,59.22967 c -0.27296,-0.86004 0.54899,-1.81832 1.53921,-1.7945 0.61978,0.0149 5.38634,2.64536 17.39025,9.59693 16.477,9.54196 16.53677,9.57966 16.62343,10.48497 0.14072,1.47003 -0.92536,1.97892 -2.46822,1.17818 z m 1.83045,-0.01 c 0.85883,-0.32957 0.43329,-0.78084 -0.63982,-0.6785 -1.04252,0.0994 -1.3749,0.40268 -0.72761,0.66387 0.47826,0.19298 0.89114,0.1974 1.36743,0.0146 z m -2.24307,-1.00092 c -0.69307,-0.64587 -31.7827,-18.4574 -31.94088,-18.29922 -0.0852,0.0852 -0.0438,0.26202 0.092,0.39285 0.51434,0.49545 31.96867,18.52289 32.09623,18.39534 0.0736,-0.0736 -0.0377,-0.29363 -0.24733,-0.48897 z m 2.60484,-0.45165 c 0.11143,-0.58893 -32.70416,-19.5535 -33.83465,-19.5535 -0.59611,0 -0.84349,0.16142 -1.04016,0.67869 -0.30546,0.80342 -0.33081,1.1683 -0.0506,0.72758 0.13695,-0.21537 5.33404,2.66048 16.59855,9.18492 13.88948,8.04483 16.54057,9.48977 17.32303,9.44166 0.60537,-0.0372 0.9514,-0.20247 1.00379,-0.47935 z m 147.78438,-5.87533 c -2.35154,-1.35358 -4.46489,-2.61823 -4.69635,-2.81034 -0.4958,-0.41148 -0.55629,-1.63074 -0.10337,-2.08366 0.72847,-0.72847 1.94844,-0.29068 6.42937,2.30716 4.27683,2.47952 4.5022,2.65083 4.58489,3.48556 0.0954,0.96334 -0.43953,1.56283 -1.39431,1.56251 -0.29961,-1e-4 -2.46872,-1.10765 -4.82023,-2.46123 z m 5.57676,2.03623 c 0.85883,-0.32957 0.43331,-0.78083 -0.63982,-0.6785 -1.01481,0.0968 -1.26209,0.28258 -0.88193,0.66271 0.22005,0.22007 0.96914,0.22784 1.52175,0.0158 z m -2.01843,-0.66795 c -0.15544,-0.46631 -8.19073,-5.01455 -8.09694,-4.58313 0.0742,0.34108 7.43633,4.83497 7.97624,4.86873 0.12128,0.008 0.17557,-0.12094 0.1207,-0.2856 z m 2.37548,-0.76016 c 0.0508,-0.26874 -1.38956,-1.24128 -4.43283,-2.99308 -3.59304,-2.06829 -4.68148,-2.57822 -5.36252,-2.51233 -1.79739,0.17389 -1.16387,0.81474 3.43136,3.47101 3.6146,2.08942 4.61301,2.55463 5.36493,2.49983 0.5738,-0.0418 0.95234,-0.21817 0.99906,-0.46543 z M 164.81339,50.39055 c -8.94288,-5.16777 -16.47358,-9.58943 -16.73489,-9.82591 -0.98155,-0.88829 -0.27946,-2.20004 1.17753,-2.20004 0.59661,0 5.16685,2.50508 16.716,9.16251 8.7422,5.03938 16.28185,9.45075 16.75479,9.80305 0.93859,0.69916 1.09107,1.40297 0.44413,2.04992 -0.99204,0.99204 -1.59686,0.69587 -18.35756,-8.98953 z m 18.21747,8.77602 c 0.81822,-0.9859 0.16602,-1.42208 -16.56484,-11.07853 C 149.11544,38.0739 148.67527,37.86318 148.126,39.30787 c -0.31295,0.82312 -0.32887,1.16554 -0.0325,0.69829 0.16137,-0.25438 4.47693,2.12043 16.73084,9.20684 14.93615,8.63754 16.60183,9.53692 17.43942,9.41627 0.74142,-0.10679 0.82902,-0.0777 0.43945,0.14606 -0.26763,0.1537 -0.77364,0.22457 -1.12448,0.15751 -0.42146,-0.0806 -0.63788,2.6e-4 -0.63788,0.23824 0,0.48232 1.68894,0.47868 2.08998,-0.005 z m -2.39312,-0.54764 c -0.0515,-0.047 -6.64217,-3.86377 -14.64581,-8.48165 -8.00365,-4.61788 -15.2367,-8.79494 -16.07344,-9.28236 -0.94153,-0.54845 -1.52135,-0.75809 -1.52135,-0.55006 0,0.42106 32.11242,19.00015 32.2406,18.65325 0.0515,-0.13952 0.0515,-0.29215 0,-0.33918 z M 1.47202,50.09702 C 0.0637,49.24845 -0.05776,49.10128 0.01681,48.33379 c 0.0589,-0.60584 0.2792,-0.93173 0.79684,-1.17858 0.81459,-0.38845 1.64472,-0.13471 3.60245,1.10115 0.86681,0.54719 1.10604,0.85773 1.10604,1.43572 0,1.66166 -1.68485,1.83011 -4.05012,0.40494 z M 5.1753,50.3901 c 0.0538,-0.16411 -0.34323,-0.2723 -0.97089,-0.26459 -0.69209,0.008 -1.06214,0.13377 -1.06268,0.35975 -10e-4,0.42095 1.89355,0.3323 2.03357,-0.0952 z M 2.87412,50.2047 C 2.87312,50.0228 2.39667,49.61598 1.81579,49.30064 1.01102,48.86378 0.75964,48.81504 0.75964,49.09589 c 0,0.20271 0.44648,0.60428 0.99219,0.89236 1.20187,0.6345 1.12495,0.61966 1.12229,0.21646 z m 2.09126,-0.44037 c 0.6285,-0.39796 0.15454,-0.93737 -1.61106,-1.83355 -1.3837,-0.70233 -1.82116,-0.81414 -2.36953,-0.60565 -0.53392,0.203 -0.67297,0.43747 -0.67467,1.13769 -0.001,0.48509 0.0487,0.67363 0.1108,0.41897 0.0621,-0.25467 0.14472,-0.46302 0.18356,-0.46302 0.0388,0 0.71472,0.35503 1.50195,0.78895 1.4788,0.81512 2.22213,0.95984 2.85895,0.55661 z M 116.25027,22.36168 c -15.77561,-9.1193 -16.673125,-9.67795 -16.750445,-10.42609 -0.11274,-1.09083 0.975275,-1.84495 2.067175,-1.43281 0.91117,0.34393 32.49271,18.52862 33.13795,19.08088 0.53148,0.45488 0.61346,1.6455 0.14552,2.11344 -0.84812,0.84812 -1.876,0.33223 -18.6002,-9.33542 z m 18.6084,8.77107 c 0.0793,-0.41829 0.0146,-0.44356 -0.47082,-0.18378 -0.30953,0.16566 -0.79641,0.22705 -1.08195,0.13642 -0.3707,-0.11766 -0.51917,-0.0416 -0.51917,0.2659 0,0.65086 1.94599,0.44561 2.07194,-0.21854 z m -2.63305,-0.4637 c -12.68759,-7.44881 -31.87687,-18.35624 -31.9507,-18.16119 -0.0552,0.14582 0.0639,0.36154 0.26458,0.47938 12.6876,7.44881 31.87688,18.35624 31.9507,18.16119 0.0552,-0.14582 -0.0639,-0.36154 -0.26458,-0.47938 z m 2.29647,-0.0935 c 0.45477,-0.33711 0.46815,-0.42358 0.11671,-0.75502 -0.4217,-0.39773 -31.63972,-18.43334 -32.87447,-18.99258 -1.10908,-0.50234 -1.967985,-0.0142 -1.970815,1.12011 -0.001,0.48633 0.0486,0.67587 0.11074,0.42121 0.0621,-0.25466 0.162745,-0.46302 0.223605,-0.46302 0.0609,0 7.04706,4.00752 15.52487,8.90559 19.74715,11.40897 17.92309,10.46513 18.86936,9.76371 z M 83.548705,3.4924 c -1.78364,-1.04759 -2.09115,-1.36359 -2.09115,-2.14896 0,-0.9205 0.44665,-1.34344 1.41874,-1.34344 0.75107,0 2.70045,0.95361 3.67449,1.79752 0.63982,0.55434 0.57953,1.53045 -0.12502,2.02394 -0.81801,0.57296 -1.46778,0.49864 -2.87706,-0.32906 z m 2.68875,0.20246 c 0.82098,-0.43938 0.5941,-0.67399 -0.54656,-0.56521 -0.6807,0.0649 -1.05834,0.23263 -1.05834,0.47002 0,0.43372 0.87534,0.48563 1.6049,0.0952 z m -1.86948,-0.32335 c 0,-0.18296 -0.53578,-0.65628 -1.19062,-1.05182 -0.85477,-0.5163 -1.19063,-0.61464 -1.19063,-0.34863 0,0.2763 1.49542,1.37868 2.3151,1.70664 0.0364,0.0146 0.0661,-0.12323 0.0661,-0.30619 z m 2.24896,-0.97375 c 0,-0.65172 -2.78059,-2.15494 -3.83426,-2.07286 -1.40278,0.10929 -1.28578,0.7347 0.32245,1.72359 1.05897,0.65115 1.65016,0.84241 2.45348,0.79375 0.7142,-0.0433 1.05833,-0.18779 1.05833,-0.44448 z"
     id="path60" />
</svg>
