<?xml version="1.0" encoding="UTF-8" standalone="no"?>
<svg
   xmlns:dc="http://purl.org/dc/elements/1.1/"
   xmlns:cc="http://creativecommons.org/ns#"
   xmlns:rdf="http://www.w3.org/1999/02/22-rdf-syntax-ns#"
   xmlns:svg="http://www.w3.org/2000/svg"
   xmlns="http://www.w3.org/2000/svg"
   xmlns:sodipodi="http://sodipodi.sourceforge.net/DTD/sodipodi-0.dtd"
   xmlns:inkscape="http://www.inkscape.org/namespaces/inkscape"
   id="svg8"
   version="1.1"
   viewBox="0 0 210.33944 118.54308"
   height="118.54309mm"
   width="210.33945mm"
   sodipodi:docname="plate.svg"
   inkscape:version="0.92.3 (2405546, 2018-03-11)">
  <sodipodi:namedview
     pagecolor="#ffffff"
     bordercolor="#666666"
     borderopacity="1"
     objecttolerance="10"
     gridtolerance="10"
     guidetolerance="10"
     inkscape:pageopacity="0"
     inkscape:pageshadow="2"
     inkscape:window-width="640"
     inkscape:window-height="480"
     id="namedview8"
     showgrid="false"
     inkscape:zoom="0.098744158"
     inkscape:cx="1398.6112"
     inkscape:cy="-348.21743"
     inkscape:window-x="0"
     inkscape:window-y="0"
     inkscape:window-maximized="0"
     inkscape:current-layer="svg8" />
  <defs
     id="defs2" />
  <metadata
     id="metadata5">
    <rdf:RDF>
      <cc:Work
         rdf:about="">
        <dc:format>image/svg+xml</dc:format>
        <dc:type
           rdf:resource="http://purl.org/dc/dcmitype/StillImage" />
        <dc:title />
      </cc:Work>
    </rdf:RDF>
  </metadata>
  <path
     inkscape:connector-curvature="0"
     style="fill:#000000;stroke-width:0.26458332"
     d="m 116.2182,117.59284 -1.65365,-0.94094 v -1.6429 -1.6429 l -4.19886,-2.43401 -4.19886,-2.43402 h -2.82621 -2.82621 L 83.462403,98.65153 66.410383,88.80498 v -1.63546 -1.63546 l -4.43667,-2.54091 -4.436673,-2.54091 h -2.79812 -2.79811 l -16.90844,-9.76147 -16.90844,-9.76146 -0.0798,-1.68177 -0.0798,-1.68176 -4.24919,-2.44739 -4.2492,-2.4474 H 6.68377 c -2.75792,0 -2.79917,-0.009 -4.73297,-1.07687 L 0,50.51726 0.003,48.35298 0.006,46.1887 39.88641,23.16995 79.766833,0.1512 82.208653,0.0756 84.650463,0 l 1.98957,1.13396 1.98958,1.13397 0.003,1.63158 0.003,1.63157 4.16402,2.40332 4.16402,2.40332 h 2.81155 2.811537 l 17.08629,9.85573 17.08629,9.85573 0.0814,1.68179 0.0814,1.68179 4.30118,2.48539 4.30117,2.4854 h 2.81461 2.81462 l 17.02744,9.82799 17.02744,9.82799 v 1.62332 1.62332 l 4.21788,2.43932 4.21788,2.43931 h 2.82729 2.82726 l 5.52256,3.20077 c 5.34977,3.10064 5.52241,3.22686 5.51792,4.03489 -0.005,0.81707 -0.19243,0.94237 -9.18623,6.1258 -5.04986,2.91042 -9.50148,5.32814 -9.89245,5.37273 -0.49335,0.0562 -1.71329,-0.49022 -3.9869,-1.78594 -1.80182,-1.02685 -3.54354,-1.867 -3.87049,-1.867 -0.53721,0 -12.65666,6.77342 -13.49363,7.54143 -0.28414,0.26073 -0.17219,0.426 0.59533,0.87884 0.7874,0.46458 0.94525,0.70701 0.94525,1.45168 0,1.12555 -0.0893,1.19829 -4.7625,3.87927 -2.11005,1.21053 -4.94813,2.85146 -6.30682,3.64653 l -2.47037,1.44557 2.86724,1.63136 c 2.85557,1.62472 2.86756,1.63574 2.94656,2.70737 l 0.0793,1.07602 -7.18173,4.14284 c -3.94994,2.27856 -7.39837,4.14284 -7.66317,4.14284 -0.26479,0 -2.85282,-1.36922 -5.75117,-3.04271 -2.89834,-1.67349 -5.48328,-3.04271 -5.7443,-3.04271 -0.26103,0 -4.69618,2.44078 -9.85591,5.42396 -5.15973,2.98318 -9.46096,5.41981 -9.55829,5.41474 -0.0973,-0.005 -0.92111,-0.43265 -1.83061,-0.95018 z m 1.48063,-0.48506 c -0.19589,-0.17797 -0.9217,-0.64516 -1.61293,-1.03821 l -1.25677,-0.71464 0.004,0.60647 c 0.005,0.78224 2.97632,2.56432 3.13069,1.87742 0.0504,-0.2241 -0.0687,-0.55307 -0.26458,-0.73104 z m 14.72509,-7.02875 c 3.05128,-1.76266 3.98914,-2.43089 4.05694,-2.89059 0.10301,-0.69847 1.20921,-1.27555 -10.62529,5.54297 -6.29968,3.62959 -7.57798,4.46408 -7.58201,4.94962 -0.004,0.51937 0.55877,0.25792 5.08839,-2.36267 2.80127,-1.62067 6.87916,-3.97837 9.06197,-5.23933 z m -4.72415,1.33766 c 5.04125,-2.91493 9.43613,-5.29987 9.7664,-5.29987 0.33026,0 2.97185,1.36922 5.8702,3.04271 2.89834,1.67349 5.43873,3.04069 5.6453,3.03823 0.59549,-0.007 14.3985,-8.08288 14.3985,-8.42418 0,-0.16892 -1.42875,-1.12375 -3.175,-2.12185 -2.14113,-1.22379 -3.175,-1.96431 -3.175,-2.27412 0,-0.32241 2.08916,-1.66946 7.0063,-4.51751 3.85346,-2.23196 7.04427,-4.17204 7.09068,-4.31129 0.0464,-0.13925 -0.57634,-0.63121 -1.3839,-1.09325 -0.80755,-0.46204 -1.46828,-0.93194 -1.46828,-1.04423 0,-0.11229 0.20835,-0.38045 0.46302,-0.59591 0.39813,-0.33685 12.37435,-7.28358 14.00558,-8.12386 0.73316,-0.37766 1.0549,-0.24994 4.84598,1.92371 1.67349,0.95951 3.26445,1.74519 3.53544,1.74597 0.42937,0.001 19.0717,-10.57654 18.89077,-10.71873 -0.0379,-0.0298 -2.4634,-1.43994 -5.38998,-3.13367 l -5.32106,-3.07952 -2.88103,-0.011 -2.88102,-0.0111 -4.23333,-2.47139 -4.23333,-2.47138 -0.0844,-1.68475 -0.0844,-1.68475 -16.87688,-9.72344 -16.87689,-9.72343 h -2.80859 -2.80858 l -4.49223,-2.57969 -4.49223,-2.57969 -0.0796,-1.6823 -0.0796,-1.6823 -16.00729,-9.25209 c -8.80401,-5.08866 -16.46205,-9.48772 -17.01787,-9.77569 -0.83288,-0.43152 -1.47236,-0.51501 -3.636757,-0.4748 l -2.62617,0.0488 -4.35887,-2.48143 -4.35886,-2.48142 -0.008,-1.64197 -0.008,-1.64198 -1.8321,-1.07 c -1.76869,-1.03296 -1.91367,-1.07001 -4.18759,-1.07001 h -2.35547 L 40.19622,23.26244 0.39681,46.24136 l -0.0793,1.34339 -0.0793,1.34339 1.84526,1.07768 1.84525,1.07769 2.86426,0.006 2.86425,0.006 4.23333,2.47218 4.23334,2.47217 0.0867,1.68912 0.0867,1.68912 16.88447,9.72344 16.88447,9.72343 h 2.82086 2.82087 l 4.470943,2.57969 4.47094,2.57969 0.0787,1.67643 0.0787,1.67643 16.66875,9.63019 16.668747,9.63018 2.84336,0.004 2.84337,0.004 4.48975,2.57968 4.48974,2.57969 0.009,1.64187 0.009,1.64187 1.52136,0.91687 c 0.83674,0.50428 1.6703,0.87046 1.85235,0.81373 0.18205,-0.0567 4.45567,-2.48809 9.49693,-5.40301 z m 15.85366,-4.12261 c -2.87491,-1.66614 -5.34348,-3.02934 -5.48573,-3.02934 -0.14224,0 -0.22012,-0.19233 -0.17307,-0.42739 0.0473,-0.23623 2.5052,-1.8255 5.49544,-3.55331 4.57867,-2.64562 5.49337,-3.08358 5.95313,-2.85038 1.79808,0.91202 10.72968,6.17074 10.72968,6.31739 0,0.14559 -8.83741,5.32226 -10.7394,6.2908 -0.47296,0.24085 -1.30914,-0.15667 -5.78005,-2.74777 z m 11.42622,-0.70746 c 2.51024,-1.44922 4.56407,-2.73154 4.56407,-2.8496 0,-0.20615 -9.53356,-5.82228 -9.88352,-5.82228 -0.0939,0 -0.17065,0.21173 -0.17065,0.47052 0,0.33064 1.39618,1.2831 4.69635,3.20381 2.583,1.50332 4.49009,2.66534 4.23797,2.58228 -0.2521,-0.0831 -2.4162,-1.28666 -4.80909,-2.67465 -2.3929,-1.388 -4.52299,-2.52363 -4.73354,-2.52363 -0.29168,0 -9.25714,5.03062 -9.66009,5.42038 -0.0451,0.0436 2.08688,1.33561 4.73765,2.87114 l 4.81958,2.79187 0.81861,-0.41745 c 0.45023,-0.2296 2.87243,-1.60318 5.38266,-3.05239 z m -11.4104,-5.00907 c 4.3803,-2.53366 5.04123,-3.03094 4.82078,-3.62717 -0.0691,-0.18677 -6.74976,3.50221 -10.01298,5.52901 -0.35278,0.21911 -0.35278,0.27599 0,0.51187 0.21828,0.14596 0.43053,0.2672 0.47167,0.26943 0.0411,0.002 2.16537,-1.20519 4.72053,-2.68314 z m 5.65572,-3.38261 c 0,-0.28245 -0.11907,-0.58714 -0.26459,-0.67707 -0.15006,-0.0928 -0.26458,0.12954 -0.26458,0.51355 0,0.37239 0.11906,0.67707 0.26458,0.67707 0.14552,0 0.26459,-0.2311 0.26459,-0.51355 z m -37.26298,9.50035 c -1.21313,-0.72264 -2.31445,-1.31388 -2.4474,-1.31388 -0.13294,0 -0.24171,-0.16231 -0.24171,-0.36068 0,-0.38852 10.46911,-6.51849 11.13264,-6.51849 0.54235,0 5.10989,2.71085 5.12622,3.04243 0.0154,0.31395 -10.39161,6.43807 -10.96719,6.45372 -0.21828,0.006 -1.38943,-0.58046 -2.60256,-1.3031 z m 7.47399,-1.60969 c 2.55946,-1.47237 4.65357,-2.7567 4.65357,-2.85406 0,-0.2242 -3.31705,-2.1418 -3.70488,-2.1418 -0.1588,0 -2.43525,1.23915 -5.05877,2.75366 l -4.77005,2.75366 1.80591,1.07223 c 0.99326,0.58972 1.94423,1.07698 2.11328,1.08279 0.16906,0.006 2.40148,-1.1941 4.96094,-2.66648 z m -4.28068,-2.40737 c 3.32351,-1.91112 4.70092,-2.84143 4.70092,-3.175 0,-0.2595 -0.0768,-0.47182 -0.17066,-0.47182 -0.14526,0 -9.78478,5.46603 -10.14043,5.75007 -0.12074,0.0964 0.52358,0.58769 0.78152,0.59588 0.0702,0.002 2.24314,-1.21238 4.82865,-2.69913 z m 9.98934,-1.06714 c -0.003,-0.28961 -3.60535,-2.57968 -4.05811,-2.57968 -0.0946,0 -0.17198,0.21243 -0.17198,0.47208 0,0.29919 0.60559,0.82742 1.65365,1.44238 1.71873,1.00849 2.58199,1.23138 2.57644,0.66522 z m -4.49467,-2.3151 c 0,-0.29104 -0.11907,-0.52917 -0.26459,-0.52917 -0.14552,0 -0.26458,0.23813 -0.26458,0.52917 0,0.29104 0.11906,0.52917 0.26458,0.52917 0.14552,0 0.26459,-0.23813 0.26459,-0.52917 z m -17.51579,1.38786 c -3.01248,-1.70921 -5.483017,-3.24435 -5.490097,-3.41142 -0.0154,-0.36241 10.373087,-6.44311 11.007577,-6.44311 0.4931,0 11.20456,6.10247 11.20456,6.3834 0,0.14859 -10.92037,6.58375 -11.16614,6.57998 -0.0433,-7.9e-4 -2.54341,-1.39965 -5.5559,-3.10885 z m 10.48456,0.0673 c 2.5479,-1.45521 4.63647,-2.72109 4.64126,-2.81305 0.0113,-0.21579 -9.20427,-5.52133 -9.59033,-5.52133 -0.5309,0 -9.712687,5.40043 -9.513667,5.59563 0.40562,0.39784 9.454707,5.51694 9.638087,5.4523 0.10566,-0.0372 2.27675,-1.25834 4.82465,-2.71355 z m -10.16305,-5.75469 c 4.03112,-2.3041 4.74578,-2.80609 4.75179,-3.33772 0.007,-0.58649 -0.0303,-0.60168 -0.58824,-0.24212 -0.32742,0.21099 -2.61938,1.55069 -5.09323,2.97711 -2.47386,1.42642 -4.539607,2.62878 -4.590557,2.67191 -0.16129,0.13655 0.24497,0.6428 0.51585,0.6428 0.14282,0 2.394797,-1.22039 5.004387,-2.71198 z m 15.79125,2.29123 c 0.0806,-0.24197 -9.36748,-5.92925 -9.84999,-5.92925 -0.0885,0 -0.12282,0.2377 -0.0763,0.52821 0.0592,0.36967 1.43464,1.31616 4.58246,3.15327 4.33896,2.53228 5.13734,2.8681 5.34385,2.24777 z M 109.0083,92.62302 c 0,-0.29104 -0.11906,-0.52916 -0.26458,-0.52916 -0.14552,0 -0.26459,0.23812 -0.26459,0.52916 0,0.29105 0.11907,0.52917 0.26459,0.52917 0.14552,0 0.26458,-0.23812 0.26458,-0.52917 z m 18.85156,5.62307 c -2.94679,-1.70356 -5.35575,-3.21918 -5.35323,-3.36804 0.004,-0.25612 10.23437,-6.27102 10.93924,-6.43188 0.18272,-0.0417 2.52784,1.19256 5.21138,2.7428 6.62824,3.82904 6.20075,3.53665 5.76964,3.9462 -0.57302,0.54435 -10.50698,6.21969 -10.87629,6.21371 -0.18311,-0.003 -2.74394,-1.39922 -5.69074,-3.10279 z m 10.64317,0.17162 c 2.55008,-1.4696 4.63263,-2.74952 4.62788,-2.84428 -0.005,-0.0948 -2.15403,-1.40424 -4.77617,-2.90997 l -4.76754,-2.73769 -4.46251,2.56034 c -2.45439,1.40819 -4.64871,2.69968 -4.87628,2.86998 -0.34475,0.258 0.36868,0.7611 4.27775,3.01658 2.58033,1.48882 4.8375,2.70921 5.01593,2.71198 0.17843,0.003 2.41085,-1.19735 4.96094,-2.66694 z m -10.114,-5.7823 c 3.49926,-2.01677 4.69635,-2.83541 4.69635,-3.21163 0,-0.27771 -0.0521,-0.50492 -0.11589,-0.50492 -0.0637,0 -1.52225,0.8161 -3.24114,1.81357 -1.71889,0.99746 -3.99535,2.31642 -5.05878,2.93102 -1.58361,0.91522 -1.87745,1.18502 -1.62367,1.49081 0.17042,0.20534 0.38567,0.33162 0.47832,0.2806 0.0926,-0.051 2.28181,-1.31077 4.86481,-2.79945 z m 15.80108,2.27441 c -0.004,-0.16633 -1.57502,-1.19539 -3.49055,-2.2868 -1.91553,-1.0914 -4.18414,-2.38381 -5.04135,-2.87201 -1.50629,-0.85786 -1.55561,-0.8677 -1.47039,-0.29334 0.068,0.45828 1.14793,1.21209 4.7184,3.29356 4.31705,2.5167 5.30345,2.91967 5.28389,2.15859 z m -10.31098,-5.72638 c 0,-0.29104 -0.11906,-0.52917 -0.26458,-0.52917 -0.14552,0 -0.26458,0.23813 -0.26458,0.52917 0,0.29104 0.11906,0.52917 0.26458,0.52917 0.14552,0 0.26458,-0.23813 0.26458,-0.52917 z m -41.493747,7.21889 c -2.01486,-1.20091 -2.40329,-1.53193 -2.11667,-1.80379 0.60503,-0.57386 10.513247,-6.20885 10.917267,-6.20885 0.62332,0 5.49621,2.96117 5.26018,3.19651 -0.50916,0.50766 -10.835997,6.32471 -11.196187,6.30675 -0.21828,-0.0109 -1.50735,-0.68166 -2.86459,-1.49062 z m 7.931517,-1.45015 c 3.10756,-1.78345 4.62031,-2.79237 4.463,-2.97656 -0.1309,-0.15325 -1.0036,-0.68751 -1.93934,-1.18725 l -1.70134,-0.90862 -4.796707,2.75286 c -2.63819,1.51408 -4.79588,2.81593 -4.79486,2.893 0.003,0.21806 3.25861,2.0725 3.68685,2.1 0.20978,0.0135 2.49686,-1.18957 5.082397,-2.67343 z m -4.405467,-2.31903 c 3.27554,-1.90224 4.520887,-2.76188 4.582457,-3.16321 0.0465,-0.30309 0.0331,-0.55108 -0.0298,-0.55108 -0.1083,0 -9.740887,5.52841 -9.936927,5.70308 -0.17887,0.15937 0.25955,0.64679 0.57128,0.63512 0.17331,-0.006 2.33917,-1.18725 4.81303,-2.62391 z m 9.999227,-1.35378 c -0.11531,-0.11106 -1.13239,-0.74511 -2.26017,-1.409 -1.93637,-1.13989 -2.05036,-1.17419 -2.04755,-0.61628 0.004,0.77317 3.63036,2.94934 4.17543,2.50558 0.18807,-0.15311 0.2476,-0.36925 0.13229,-0.4803 z m -4.57528,-2.09593 c 0,-0.29104 -0.11906,-0.52917 -0.26458,-0.52917 -0.14552,0 -0.26458,0.23813 -0.26458,0.52917 0,0.29104 0.11906,0.52917 0.26458,0.52917 0.14552,0 0.26458,-0.23813 0.26458,-0.52917 z m 49.47709,4.6315 c -2.83766,-1.65506 -5.15938,-3.16382 -5.15938,-3.35279 0,-0.18898 2.45606,-1.75396 5.4579,-3.47774 l 5.4579,-3.13414 5.58846,3.22284 c 3.07365,1.77256 5.58845,3.30198 5.58845,3.39871 0,0.30915 -10.75863,6.38519 -11.27635,6.36843 -0.27368,-0.009 -2.81933,-1.37025 -5.65698,-3.02531 z m 11.28495,-0.17685 c 2.82395,-1.62453 5.09621,-3.06844 5.04947,-3.20868 -0.0467,-0.14025 -2.31237,-1.54201 -5.03471,-3.11502 -4.38943,-2.53629 -4.94937,-2.79453 -4.94669,-2.28143 0.002,0.47057 0.86293,1.07262 4.60827,3.22433 2.53289,1.45514 4.5655,2.68547 4.51692,2.73405 -0.0486,0.0486 -2.16298,-1.11223 -4.69867,-2.57958 -2.53569,-1.46735 -4.80495,-2.6679 -5.0428,-2.6679 -0.55712,0 -9.77818,5.30717 -9.57466,5.51069 0.4906,0.4906 9.08194,5.30504 9.49284,5.31963 0.27256,0.01 2.80607,-1.31156 5.63003,-2.93609 z m -10.99193,-5.26356 c 2.53097,-1.46355 4.70223,-2.76059 4.82502,-2.88232 0.12279,-0.12172 0.18232,-0.40812 0.13229,-0.63645 -0.0694,-0.31692 -1.26485,0.26089 -5.05289,2.44234 -2.72906,1.57161 -5.04734,2.94287 -5.15171,3.04725 -0.1397,0.1397 0.31275,0.64276 0.61708,0.68612 0.0156,0.002 2.09923,-1.19339 4.63021,-2.65694 z m 5.79239,-3.55671 c 0,-0.36381 -0.11906,-0.66146 -0.26458,-0.66146 -0.14552,0 -0.26458,0.29765 -0.26458,0.66146 0,0.3638 0.11906,0.66145 0.26458,0.66145 0.14552,0 0.26458,-0.29765 0.26458,-0.66145 z m -39.30385,7.56924 c -0.39761,-0.37327 -9.95565,-5.84945 -10.20953,-5.84945 -0.12556,0 -0.22828,-0.16343 -0.22828,-0.36318 0,-0.51868 10.57743,-6.57385 11.26028,-6.44607 0.84093,0.15736 10.98413,6.08955 10.89083,6.36944 -0.0454,0.13608 -1.32721,0.96127 -2.84856,1.83377 -1.52135,0.87249 -3.94336,2.285 -5.38225,3.1389 -2.67658,1.58841 -3.0447,1.72758 -3.48249,1.31659 z m 5.61445,-2.83624 4.86303,-2.80763 -4.7645,-2.74862 c -2.62047,-1.51175 -4.89647,-2.74863 -5.05777,-2.74863 -0.50861,0 -9.74573,5.41525 -9.55503,5.60162 0.21402,0.20916 9.39335,5.50609 9.54672,5.50894 0.0575,0.001 2.29288,-1.26149 4.96755,-2.80568 z m -10.1907,-5.72519 c 3.82886,-2.19958 4.72089,-2.82025 4.72129,-3.28504 5.2e-4,-0.50592 -0.59628,-0.22962 -5.09275,2.35816 -2.80128,1.61217 -5.14931,2.97785 -5.21786,3.03484 -0.11453,0.0952 0.51398,0.59064 0.76116,0.59997 0.0591,0.002 2.23172,-1.21634 4.82816,-2.70793 z m 15.76301,2.2643 c 0.0789,-0.23683 -9.35192,-5.90232 -9.82508,-5.90232 -0.0868,0 -0.15783,0.21403 -0.15783,0.47563 0,0.33845 1.35385,1.25446 4.69386,3.17584 2.58162,1.4851 4.8066,2.66261 4.9444,2.61668 0.1378,-0.0459 0.29289,-0.21056 0.34465,-0.36583 z M 118.5333,80.45219 c 0,-0.29104 -0.11906,-0.52917 -0.26458,-0.52917 -0.14552,0 -0.26459,0.23813 -0.26459,0.52917 0,0.29104 0.11907,0.52917 0.26459,0.52917 0.14552,0 0.26458,-0.23813 0.26458,-0.52917 z m 17.00286,4.55148 c -2.94494,-1.70295 -5.35596,-3.21841 -5.35782,-3.3677 -0.004,-0.33085 10.60979,-6.48399 11.13361,-6.45442 0.56842,0.0321 10.91138,6.15941 10.9046,6.46004 -0.007,0.29377 -10.57346,6.49077 -11.03393,6.47093 -0.16062,-0.007 -2.70152,-1.4059 -5.64646,-3.10885 z m 10.71878,0.0891 c 2.50664,-1.44953 4.55731,-2.69969 4.55704,-2.77813 -5.1e-4,-0.15217 -9.33545,-5.56658 -9.59728,-5.56658 -0.23044,0 -9.00376,5.05233 -9.36784,5.3947 -0.2338,0.21985 0.86559,0.97476 4.36562,2.99773 2.57296,1.48713 4.85965,2.67775 5.08153,2.64583 0.22188,-0.0319 2.4543,-1.24403 4.96093,-2.69355 z m -10.16178,-5.73832 c 3.39631,-1.95493 4.66514,-2.81847 4.66514,-3.175 0,-0.26934 -0.0683,-0.48972 -0.15184,-0.48972 -0.13904,0 -8.17852,4.58658 -9.58003,5.46547 -0.61121,0.3833 -0.5799,0.88453 0.0553,0.88453 0.19048,0 2.44564,-1.20838 5.01147,-2.68528 z m 15.77538,2.35455 c -0.002,-0.29278 -2.15223,-1.60699 -8.27868,-5.05988 -1.71999,-0.96938 -1.81381,-0.9929 -1.72978,-0.43354 0.0682,0.45413 1.13315,1.19693 4.58676,3.19931 4.36909,2.53317 5.42639,2.98056 5.4217,2.29411 z m -10.31649,-5.75469 c 0,-0.29104 -0.11906,-0.52916 -0.26458,-0.52916 -0.14552,0 -0.26459,0.23812 -0.26459,0.52916 0,0.29105 0.11907,0.52917 0.26459,0.52917 0.14552,0 0.26458,-0.23812 0.26458,-0.52917 z m -68.791667,8.18261 c -2.69213,-1.58252 -5.10315,-2.94794 -5.35781,-3.03425 -0.25466,-0.0863 -0.46302,-0.30465 -0.46302,-0.48519 0,-0.32144 9.88995,-6.18807 10.85905,-6.4415 0.4909,-0.12837 11.36595,5.92748 11.36595,6.32922 0,0.10687 -1.16086,0.86991 -2.57969,1.69565 -1.41883,0.82573 -3.87216,2.25838 -5.45186,3.18365 -1.5797,0.92527 -3.00845,1.67048 -3.175,1.65602 -0.16655,-0.0145 -2.50548,-1.32108 -5.19762,-2.9036 z m 10.10485,-0.0388 c 2.5915,-1.48728 4.71182,-2.78009 4.71182,-2.87291 0,-0.20251 -9.20542,-5.53545 -9.55498,-5.53545 -0.1341,0 -2.39439,1.24066 -5.02287,2.75702 l -4.77904,2.75702 2.46855,1.438 c 1.3577,0.7909 3.48058,2.03985 4.71751,2.77545 1.23692,0.7356 2.36106,1.34815 2.49808,1.36123 0.13701,0.0131 2.36944,-1.19308 4.96093,-2.68036 z m -10.0395,-5.81468 c 3.35194,-1.9253 4.69715,-2.8346 4.69715,-3.175 0,-0.26236 -0.0726,-0.47701 -0.16133,-0.47701 -0.1857,0 -9.32939,5.23344 -9.82377,5.62268 -0.36856,0.29019 -0.20238,0.72732 0.27649,0.72732 0.17287,0 2.42803,-1.2141 5.01146,-2.69799 z m 15.67736,2.23619 c 0,-0.27242 -9.3498,-5.8882 -9.80337,-5.8882 -0.0854,0 -0.11726,0.23854 -0.0708,0.5301 0.0594,0.37218 1.42448,1.3123 4.58247,3.1558 4.29411,2.50673 5.29166,2.9219 5.29166,2.2023 z m -10.18646,-5.62362 c 0,-0.29104 -0.11906,-0.52917 -0.26458,-0.52917 -0.14552,0 -0.26458,0.23813 -0.26458,0.52917 0,0.29104 0.11906,0.52917 0.26458,0.52917 0.14552,0 0.26458,-0.23813 0.26458,-0.52917 z m 84.141777,7.94416 c -2.98083,-1.7358 -5.45555,-3.26359 -5.49938,-3.39509 -0.0981,-0.29423 10.48948,-6.40115 11.09764,-6.40115 0.69742,0 11.06621,6.09803 11.06621,6.50819 0,0.20404 -0.11025,0.37097 -0.24503,0.37097 -0.13475,0 -2.51388,1.31261 -5.28693,2.91691 -2.77307,1.6043 -5.19288,2.97074 -5.37738,3.03653 -0.1845,0.0658 -2.77431,-1.30057 -5.75513,-3.03636 z m 10.50849,0.0935 4.86751,-2.81022 -0.74482,-0.44721 c -3.41694,-2.05159 -8.7868,-5.04485 -9.0504,-5.04485 -0.23133,0 -8.98419,4.86802 -9.75722,5.42661 -0.0748,0.054 9.51545,5.66356 9.70676,5.67771 0.0608,0.004 2.30101,-1.25642 4.97817,-2.80204 z m -10.1975,-5.71476 c 3.32791,-1.90991 4.71182,-2.84244 4.71182,-3.175 0,-0.25897 -0.0796,-0.47086 -0.17679,-0.47086 -0.33647,0 -9.87738,5.60134 -9.87738,5.79889 0,0.2286 0.28772,0.55111 0.49166,0.55111 0.0764,0 2.25919,-1.21686 4.85069,-2.70414 z m 15.81664,2.4499 c 0.21408,-0.13538 0.33314,-0.29537 0.26459,-0.35552 -0.0685,-0.0602 -2.41658,-1.43075 -5.21785,-3.04578 -4.53241,-2.61308 -5.09268,-2.8721 -5.0882,-2.35241 0.004,0.47691 0.8653,1.08011 4.69635,3.28942 2.58024,1.48799 4.75086,2.70656 4.82362,2.70793 0.0728,10e-4 0.30744,-0.10827 0.52149,-0.24364 z m -10.31107,-5.83117 c 0,-0.29104 -0.11907,-0.52917 -0.26459,-0.52917 -0.14552,0 -0.26458,0.23813 -0.26458,0.52917 0,0.29104 0.11906,0.52916 0.26458,0.52916 0.14552,0 0.26459,-0.23812 0.26459,-0.52916 z m -71.108467,6.68042 c -2.94773,-1.7041 -5.3194,-3.21971 -5.27038,-3.36804 0.049,-0.14832 2.5501,-1.68625 5.55795,-3.41761 l 5.468807,-3.14794 5.46882,3.14794 c 3.00785,1.73136 5.50902,3.26958 5.55816,3.41826 0.0988,0.29891 -10.45689,6.47977 -11.05146,6.47115 -0.20482,-0.003 -2.78417,-1.39966 -5.731897,-3.10376 z m 11.026387,0.0265 c 2.70405,-1.54996 5.07097,-2.95889 5.25983,-3.13095 0.27161,-0.24747 -0.72374,-0.92774 -4.7625,-3.25495 -2.80823,-1.61816 -5.14688,-2.82468 -5.19698,-2.68115 -0.21254,0.60877 0.39523,1.06551 4.69342,3.5271 2.48919,1.42558 4.52581,2.64337 4.52581,2.70619 0,0.15394 -0.49824,-0.11829 -5.49011,-2.99973 l -4.29948,-2.48177 -4.299477,2.48177 c -4.99187,2.88144 -5.4901,3.15367 -5.4901,2.99973 0,-0.0628 2.03661,-1.28061 4.52581,-2.70619 4.298177,-2.46159 4.905947,-2.91833 4.693417,-3.5271 -0.0501,-0.14353 -2.387667,1.06237 -5.194587,2.67977 -3.00955,1.73416 -5.00615,3.03804 -4.86627,3.17792 0.46904,0.46905 10.242817,6.01666 10.609557,6.022 0.20637,0.003 2.58762,-1.26268 5.29166,-2.81264 z m -5.00542,-9.08814 c 0,-0.29104 -0.11907,-0.52917 -0.26459,-0.52917 -0.14552,0 -0.26458,0.23813 -0.26458,0.52917 0,0.29104 0.11906,0.52916 0.26458,0.52916 0.14552,0 0.26459,-0.23812 0.26459,-0.52916 z m 82.09713,6.92157 c -2.94121,-1.69681 -5.35119,-3.20418 -5.35551,-3.3497 -0.009,-0.29371 10.56146,-6.48229 11.07181,-6.48229 0.55782,0 11.13766,6.20498 11.04958,6.48047 -0.10692,0.33439 -10.69665,6.49222 -11.11001,6.46037 -0.16952,-0.0131 -2.71465,-1.41204 -5.65587,-3.10885 z m 10.61541,0.16886 c 2.55976,-1.48453 4.65412,-2.772 4.65412,-2.86104 0,-0.17434 -8.87571,-5.36886 -9.39321,-5.49739 -0.4096,-0.10174 -9.5245,5.16348 -9.5245,5.50184 0,0.27494 8.77549,5.49465 9.30265,5.53327 0.16875,0.0123 2.40117,-1.19214 4.96094,-2.67668 z m -10.05563,-5.80503 c 3.3981,-1.95857 4.65559,-2.81614 4.65559,-3.175 0,-0.27041 -0.0683,-0.49165 -0.1518,-0.49165 -0.14433,0 -5.38998,3.00319 -8.64835,4.95126 -1.40134,0.83783 -1.74898,1.39874 -0.86691,1.39874 0.19574,0 2.45092,-1.20751 5.01147,-2.68335 z m 15.76809,2.33862 c 0,-0.26629 -8.66749,-5.51976 -9.84735,-5.9686 -0.13824,-0.0526 -0.21156,0.15638 -0.16293,0.46437 0.0648,0.41075 1.28699,1.2604 4.58632,3.18843 4.40626,2.5749 5.42396,3.00942 5.42396,2.3158 z m -10.31875,-5.74069 c 0,-0.29104 -0.11907,-0.52917 -0.26459,-0.52917 -0.14552,0 -0.26458,0.23813 -0.26458,0.52917 0,0.29104 0.11906,0.52917 0.26458,0.52917 0.14552,0 0.26459,-0.23813 0.26459,-0.52917 z m -70.74681,6.98528 c -2.87283,-1.65909 -5.33458,-3.01653 -5.47055,-3.01653 -0.13597,0 -0.24723,-0.16899 -0.24723,-0.37553 0,-0.41983 10.48532,-6.62026 11.1125,-6.57132 0.60291,0.0471 10.98021,6.1098 10.98021,6.41499 0,0.23343 -9.64271,5.98699 -10.73518,6.40542 -0.25652,0.0983 -2.42226,-0.99889 -5.63975,-2.85703 z m 11.02961,-0.45193 c 2.73539,-1.58758 4.93467,-3.00279 4.8873,-3.14492 -0.0474,-0.14213 -2.31519,-1.54825 -5.03958,-3.12472 -4.37642,-2.5324 -4.95342,-2.79946 -4.95331,-2.29261 1.1e-4,0.46529 0.871,1.07355 4.60874,3.21895 2.53474,1.45489 4.56867,2.68519 4.51984,2.73401 -0.0488,0.0488 -2.16921,-1.11178 -4.71198,-2.5791 -2.54278,-1.46733 -4.78308,-2.66788 -4.97844,-2.66788 -0.4707,0 -9.77872,5.35818 -9.60676,5.53015 0.0734,0.0734 2.23309,1.34792 4.7993,2.83226 2.86693,1.65827 4.82692,2.63741 5.08365,2.53957 0.2298,-0.0876 2.65586,-1.45814 5.39124,-3.04571 z m -10.81403,-5.34272 c 3.89834,-2.2265 4.63393,-2.74361 4.64126,-3.26273 l 0.009,-0.61689 -0.8599,0.51916 c -0.47294,0.28554 -2.7649,1.62064 -5.09323,2.96689 -2.32833,1.34624 -4.28942,2.49802 -4.35796,2.55951 -0.15843,0.14211 0.59053,0.62446 0.84118,0.54173 0.10307,-0.034 2.27204,-1.25247 4.81994,-2.70767 z m 5.44373,-3.29168 c 0,-0.28245 -0.11907,-0.58714 -0.26459,-0.67707 -0.15006,-0.0927 -0.26458,0.12954 -0.26458,0.51355 0,0.37239 0.11906,0.67707 0.26458,0.67707 0.14552,0 0.26459,-0.2311 0.26459,-0.51355 z m 20.70906,6.66168 c -2.94381,-1.70798 -5.31553,-3.22331 -5.27048,-3.36741 0.11507,-0.36804 10.8192,-6.50775 11.19711,-6.42247 0.68133,0.15375 10.91604,6.17375 10.92525,6.42617 0.012,0.3286 -10.17061,6.26729 -10.94867,6.38548 -0.33266,0.0505 -2.67069,-1.14628 -5.90321,-3.02177 z m 9.44341,0.94161 c 1.82453,-1.04835 3.9495,-2.28413 4.72217,-2.74618 l 1.40485,-0.84009 -4.31527,-2.50531 c -2.37339,-1.37792 -4.58397,-2.64708 -4.9124,-2.82035 -0.53397,-0.28172 -1.05166,-0.0521 -4.89479,2.17081 -4.6097,2.66634 -5.72473,3.27475 -5.44008,2.96836 0.0993,-0.10685 2.18286,-1.34892 4.6302,-2.76013 3.50255,-2.01969 4.46849,-2.69586 4.5379,-3.1766 0.0864,-0.59854 0.0573,-0.59301 -1.45928,0.27691 -0.8511,0.4882 -3.12009,1.7806 -5.04219,2.87201 -1.9221,1.0914 -3.49784,2.10562 -3.50166,2.25381 -0.008,0.31356 9.99076,6.18032 10.56638,6.19978 0.21277,0.007 1.87965,-0.84467 3.70417,-1.89302 z m 6.86627,-4.01941 c 0.25122,-0.3027 -0.58651,-0.88688 -4.64787,-3.24115 -2.72488,-1.57954 -5.05086,-2.91157 -5.16885,-2.96008 -0.11799,-0.0485 -0.21452,0.15123 -0.21452,0.44386 0,0.4114 1.09498,1.16638 4.82864,3.32927 2.65576,1.53847 4.84383,2.79725 4.8624,2.79729 0.0186,3e-5 0.17165,-0.1661 0.3402,-0.36919 z m -10.29583,-5.98075 c 0,-0.29104 -0.11906,-0.52916 -0.26458,-0.52916 -0.14552,0 -0.26458,0.23812 -0.26458,0.52916 0,0.29105 0.11906,0.52917 0.26458,0.52917 0.14552,0 0.26458,-0.23812 0.26458,-0.52917 z M 58.06278,75.71254 c -0.13824,-0.13299 -2.4881,-1.53197 -5.2219,-3.10885 -2.7338,-1.57689 -4.98143,-2.98262 -4.99473,-3.12386 -0.0249,-0.26471 10.53189,-6.49008 11.0057,-6.49008 0.3276,0 10.969173,6.08911 11.148413,6.37912 0.0711,0.11511 -1.0349,0.88689 -2.45787,1.71507 -1.42297,0.82817 -3.87969,2.26281 -5.45939,3.18808 -2.8406,1.66382 -3.530943,1.91118 -4.020223,1.44052 z m 5.752453,-2.72693 c 2.5915,-1.48728 4.7079,-2.7672 4.70311,-2.84427 -0.0144,-0.23103 -9.25257,-5.4318 -9.648583,-5.4318 -0.3877,0 -9.63427,5.1984 -9.64779,5.42396 -0.0104,0.17366 9.30836,5.5438 9.63233,5.55084 0.13701,0.003 2.369443,-1.21145 4.960933,-2.69873 z M 57.903,64.69941 c 0.19588,-0.17831 0.31494,-0.51271 0.26458,-0.74312 -0.0706,-0.32315 -1.08971,0.15841 -4.4572,2.10624 -5.87629,3.39896 -5.65017,3.24212 -5.29366,3.67169 0.24264,0.29236 1.11846,-0.11188 4.71406,-2.17578 2.42884,-1.39416 4.57633,-2.68073 4.77222,-2.85903 z m 11.666643,4.56254 c -0.0641,-0.0497 -2.25967,-1.3182 -4.87905,-2.81885 -2.61937,-1.50064 -4.86181,-2.7857 -4.98319,-2.85568 -0.12137,-0.07 -0.18091,0.14753 -0.13229,0.48334 0.0696,0.48045 1.07518,1.18428 4.71861,3.30253 3.93166,2.28582 4.6877,2.63817 5.01133,2.3355 0.20962,-0.19604 0.32868,-0.39712 0.26459,-0.44684 z M 59.266633,63.7835 c 0,-0.29398 -0.176393,-0.52917 -0.396873,-0.52917 -0.22049,0 -0.39688,0.23519 -0.39688,0.52917 0,0.29398 0.17639,0.52917 0.39688,0.52917 0.22048,0 0.396873,-0.23519 0.396873,-0.52917 z m 22.64099,7.96664 c -2.8999,-1.69919 -5.30978,-3.20454 -5.35528,-3.34523 -0.0906,-0.28007 10.45777,-6.47349 11.02537,-6.47349 0.565,0 11.11184,6.16338 11.11184,6.49355 0,0.16537 -0.28828,0.43203 -0.64062,0.59256 -0.35235,0.16054 -2.80193,1.54887 -5.44353,3.08518 -2.6416,1.53631 -4.94293,2.7806 -5.11407,2.76508 -0.17113,-0.0155 -2.6838,-1.41845 -5.58371,-3.11765 z m 10.6536,0.11993 c 2.49746,-1.44598 4.54083,-2.71359 4.54083,-2.8169 0,-0.21712 -9.11863,-5.53425 -9.49098,-5.53425 -0.35191,0 -9.55902,5.33134 -9.55902,5.53511 0,0.26284 9.35701,5.5935 9.68052,5.51496 0.1583,-0.0384 2.33119,-1.25294 4.82865,-2.69892 z m -10.16892,-5.74284 c 3.39811,-1.95857 4.65558,-2.81614 4.65558,-3.175 0,-0.27041 -0.0652,-0.49166 -0.14487,-0.49166 -0.46686,0 -9.90929,5.7235 -9.90929,6.00648 0,0.66063 0.77742,0.32369 5.39858,-2.33982 z m 15.88292,2.28647 c -0.0162,-0.2456 -9.5303,-5.91482 -9.97057,-5.94122 -0.10914,-0.007 -0.19843,0.19942 -0.19843,0.4577 0,0.32785 1.3776,1.27981 4.56406,3.15386 4.14898,2.44015 5.65349,3.06548 5.60494,2.32966 z m -10.43359,-5.68854 c 0,-0.29104 -0.11906,-0.52917 -0.26458,-0.52917 -0.14552,0 -0.26458,0.23813 -0.26458,0.52917 0,0.29104 0.11906,0.52916 0.26458,0.52916 0.14552,0 0.26458,-0.23812 0.26458,-0.52916 z m 82.022097,6.72339 c -2.83696,-1.6564 -5.19352,-3.11788 -5.2368,-3.24771 -0.0433,-0.12984 2.42765,-1.6887 5.49095,-3.46413 l 5.56965,-3.22806 5.47627,3.16063 c 3.01196,1.73835 5.51638,3.28092 5.5654,3.42794 0.12317,0.36952 -10.4267,6.424 -11.13496,6.39025 -0.31483,-0.015 -2.89356,-1.38252 -5.73051,-3.03892 z m 10.95775,0.11585 c 2.56286,-1.47716 4.62812,-2.71662 4.58944,-2.75435 -0.39902,-0.38922 -9.42496,-5.40781 -9.72595,-5.40781 -0.22151,0 -2.46793,1.19815 -4.99208,2.66256 -2.52413,1.46441 -4.62898,2.62291 -4.67745,2.57445 -0.0485,-0.0485 1.98426,-1.27639 4.51716,-2.72871 3.87273,-2.22056 4.60658,-2.73872 4.61341,-3.25748 l 0.008,-0.61689 -0.85989,0.52608 c -0.47295,0.28934 -2.70537,1.59529 -4.96094,2.90211 -2.25557,1.30681 -4.10104,2.51705 -4.10104,2.6894 0,0.40523 9.60884,6.03548 10.35952,6.07011 0.31348,0.0145 2.66684,-1.1823 5.2297,-2.65947 z m 5.44515,-3.14397 c 0.35277,-0.23588 0.35277,-0.29262 0,-0.51063 -0.21828,-0.1349 -2.54,-1.48755 -5.15937,-3.00589 -4.30186,-2.4936 -4.77142,-2.70697 -4.85458,-2.20594 -0.0506,0.30508 0.009,0.59077 0.13229,0.63487 0.12341,0.0441 2.24843,1.26311 4.72229,2.70892 2.47385,1.4458 4.55744,2.63218 4.63021,2.63639 0.0728,0.004 0.31088,-0.11176 0.52916,-0.25772 z M 175.94788,60.4762 c 0,-0.3638 -0.11906,-0.66146 -0.26458,-0.66146 -0.14552,0 -0.26458,0.29766 -0.26458,0.66146 0,0.3638 0.11906,0.66146 0.26458,0.66146 0.14552,0 0.26458,-0.29766 0.26458,-0.66146 z m -71.10137,6.80518 c -2.94383,-1.70556 -5.317267,-3.22008 -5.274317,-3.3656 0.10527,-0.35663 10.521147,-6.44296 11.023607,-6.44144 0.504,0.002 10.91539,6.08597 11.02227,6.44144 0.0867,0.28833 -10.51904,6.48725 -11.07713,6.47445 -0.18811,-0.004 -2.7506,-1.4033 -5.69443,-3.10885 z m 10.8008,0.10306 4.76206,-2.74905 -4.89207,-2.82439 c -4.42836,-2.55667 -4.94988,-2.79387 -5.50209,-2.50244 -0.33552,0.17707 -2.55063,1.4486 -4.92248,2.82561 l -4.31244,2.50366 4.70932,2.74021 c 2.59012,1.50712 4.86374,2.74364 5.05247,2.74783 0.18874,0.004 2.48609,-1.22945 5.10523,-2.74143 z M 105.47282,61.6457 c 3.47313,-2.01635 4.59381,-2.79318 4.59381,-3.18432 0,-0.62396 0.40968,-0.81885 -5.75515,2.73776 -4.15085,2.39471 -5.039707,3.11352 -3.85013,3.11352 0.22971,0 2.48487,-1.20014 5.01147,-2.66696 z m 15.70405,2.33623 c -0.002,-0.29279 -2.15222,-1.60699 -8.27868,-5.05988 -1.71968,-0.96922 -1.81379,-0.99281 -1.72978,-0.43373 0.0682,0.45368 1.13548,1.19893 4.58676,3.20272 4.361,2.53197 5.42643,2.98216 5.4217,2.29089 z m -10.31649,-5.75469 c 0,-0.29104 -0.11906,-0.52916 -0.26458,-0.52916 -0.14552,0 -0.26458,0.23812 -0.26458,0.52916 0,0.29104 0.11906,0.52917 0.26458,0.52917 0.14552,0 0.26458,-0.23813 0.26458,-0.52917 z m 24.47396,9.01034 c -0.87312,-0.55571 -3.29462,-1.99197 -5.3811,-3.19169 -3.13781,-1.80423 -3.7324,-2.24083 -3.43958,-2.52568 0.60282,-0.5864 10.44297,-6.20338 10.86745,-6.20338 0.60801,0 11.05144,6.09401 11.04101,6.44272 -0.01,0.32658 -10.38971,6.35655 -11.08403,6.43899 -0.22893,0.0272 -1.13062,-0.40525 -2.00375,-0.96096 z m 6.66171,-1.77571 c 2.44793,-1.40522 4.59322,-2.68514 4.76729,-2.84427 0.23612,-0.21584 -0.88875,-0.9831 -4.42927,-3.02118 -2.61018,-1.50252 -4.90618,-2.69315 -5.10223,-2.64583 -0.52363,0.12637 -9.43898,5.31799 -9.43327,5.49321 0.005,0.16029 9.26832,5.5465 9.56727,5.56308 0.0987,0.005 2.18227,-1.13978 4.63021,-2.54501 z m -9.83757,-5.94852 c 3.37822,-1.9569 4.63107,-2.81584 4.63107,-3.175 0,-0.2708 -0.0619,-0.49236 -0.13753,-0.49236 -0.13102,0 -9.68361,5.50893 -9.87699,5.69601 -0.15289,0.14791 0.23732,0.65399 0.50427,0.65399 0.13646,0 2.33209,-1.20719 4.87918,-2.68264 z m 15.91443,2.28577 c 0.0453,-0.14552 -2.23675,-1.59516 -5.0713,-3.22142 -4.55518,-2.61343 -5.1533,-2.88999 -5.15006,-2.38125 0.003,0.46629 0.89475,1.09028 4.69636,3.28617 4.44023,2.56476 5.33128,2.93835 5.525,2.3165 z M 137.5833,56.11058 c 0,-0.29105 -0.11906,-0.52917 -0.26458,-0.52917 -0.14552,0 -0.26459,0.23812 -0.26459,0.52917 0,0.29104 0.11907,0.52916 0.26459,0.52916 0.14552,0 0.26458,-0.23812 0.26458,-0.52916 z M 33.93645,61.73036 c -2.94477,-1.70843 -5.31866,-3.21764 -5.2753,-3.35378 0.0975,-0.30604 10.7702,-6.50742 11.14934,-6.47832 0.45548,0.035 10.8131,6.17616 10.90634,6.46655 0.0987,0.30746 -10.03325,6.25813 -10.87543,6.38732 -0.3335,0.0512 -2.6631,-1.14098 -5.90495,-3.02177 z m 9.44516,0.94079 c 1.82452,-1.04835 3.94976,-2.28429 4.72274,-2.74653 l 1.40543,-0.84044 -4.89876,-2.82825 -4.89876,-2.82824 -4.31188,2.49409 c -4.86355,2.8132 -5.5025,3.1627 -5.5025,3.00979 0,-0.0594 2.03629,-1.27636 4.52508,-2.70429 4.29914,-2.4666 4.90626,-2.92417 4.69415,-3.53781 -0.10154,-0.29378 -9.79086,5.24705 -9.9304,5.6787 -0.096,0.29699 9.85733,6.17617 10.49073,6.1966 0.21277,0.007 1.87965,-0.84527 3.70417,-1.89362 z m 6.96655,-4.4531 c -0.11531,-0.10471 -2.41231,-1.45707 -5.10444,-3.00525 -3.82618,-2.20035 -4.91465,-2.72117 -4.98575,-2.38566 -0.05,0.23608 0.01,0.52653 0.13229,0.64546 0.12279,0.11893 2.29896,1.41239 4.83593,2.87436 3.59175,2.06979 4.69225,2.59209 4.97215,2.35979 0.19771,-0.16408 0.26513,-0.384 0.14982,-0.4887 z M 39.95205,52.67099 c 0,-0.29104 -0.11906,-0.52916 -0.26458,-0.52916 -0.14552,0 -0.26459,0.23812 -0.26459,0.52916 0,0.29104 0.11907,0.52917 0.26459,0.52917 0.14552,0 0.26458,-0.23813 0.26458,-0.52917 z m 27.648963,11.75636 c -0.29104,-0.22505 -1.39237,-0.88704 -2.4474,-1.47109 -1.05502,-0.58406 -1.91823,-1.15635 -1.91823,-1.27177 0,-0.25577 10.75976,-6.45679 11.198,-6.45358 0.54309,0.004 5.20652,2.77807 5.19833,3.09229 -0.008,0.3171 -10.35635,6.34066 -11.08041,6.44983 -0.23162,0.0349 -0.65925,-0.12063 -0.95029,-0.34568 z m 5.34162,-2.25685 c 2.30086,-1.3237 4.46739,-2.58717 4.81452,-2.8077 0.63,-0.40024 0.62787,-0.40279 -1.19063,-1.42424 -1.00197,-0.5628 -1.97938,-1.02574 -2.17204,-1.02876 -0.19265,-0.003 -2.30809,1.13016 -4.70099,2.51815 -2.39289,1.388 -4.55699,2.59159 -4.8091,2.67465 -0.25211,0.0831 1.65498,-1.07896 4.23797,-2.58227 3.30018,-1.92072 4.69636,-2.87318 4.69636,-3.20382 0,-0.25879 -0.0768,-0.47052 -0.17066,-0.47052 -0.35306,0 -9.88351,5.61708 -9.88351,5.82517 0,0.20995 4.44223,2.8865 4.81246,2.89962 0.10023,0.004 2.06476,-1.07657 4.36562,-2.40028 z m 6.3492,-3.82576 c 0.0512,-0.15365 -0.29617,-0.47395 -0.77183,-0.71177 -0.47565,-0.23782 -1.4899,-0.79912 -2.25389,-1.24733 -1.38087,-0.81013 -1.38905,-0.81139 -1.38673,-0.21427 0.002,0.46643 0.40093,0.82148 1.78594,1.58876 1.76276,0.97654 2.44545,1.1285 2.62651,0.58461 z m -4.67936,-2.38207 c 0,-0.38401 -0.11453,-0.60629 -0.26459,-0.51355 -0.14552,0.0899 -0.26458,0.39462 -0.26458,0.67707 0,0.28245 0.11906,0.51355 0.26458,0.51355 0.14552,0 0.26459,-0.30468 0.26459,-0.67707 z m 80.036447,4.69186 c -2.91041,-1.69912 -5.2815,-3.20824 -5.26907,-3.35361 0.0254,-0.29761 10.37081,-6.42829 10.90275,-6.46099 0.49222,-0.0302 11.15723,6.14489 11.15916,6.46127 0.003,0.31579 -10.65839,6.49106 -11.15611,6.46247 -0.18978,-0.0109 -2.72631,-1.41001 -5.63673,-3.10914 z m 10.71438,0.1524 c 4.17893,-2.39105 4.68645,-2.75308 4.28877,-3.05932 -0.24809,-0.19104 -2.44248,-1.4837 -4.87644,-2.87256 l -4.42537,-2.52522 -4.76525,2.74027 c -2.62089,1.50714 -4.7362,2.83234 -4.70069,2.94488 0.0867,0.27463 8.9637,5.43394 9.39771,5.46192 0.1878,0.0121 2.47437,-1.19838 5.08127,-2.68997 z m -10.18521,-5.73047 c 3.45128,-2.00379 4.51859,-2.74904 4.58676,-3.20272 0.0992,-0.66014 0.41184,-0.81287 -6.7773,3.31079 -3.00619,1.72435 -3.8857,2.5207 -2.7704,2.50847 0.25466,-0.003 2.48709,-1.18024 4.96094,-2.61654 z m 15.80981,2.22474 c -0.0574,-0.23323 -9.69105,-5.95312 -10.0264,-5.95312 -0.0724,0 -0.0936,0.24373 -0.0471,0.54163 0.0606,0.38806 1.35993,1.28486 4.58246,3.16276 4.03764,2.35289 5.68269,3.02659 5.49106,2.24873 z m -10.38585,-5.68854 c 0,-0.29104 -0.11906,-0.52917 -0.26458,-0.52917 -0.14553,0 -0.26459,0.23813 -0.26459,0.52917 0,0.29104 0.11906,0.52917 0.26459,0.52917 0.14552,0 0.26458,-0.23813 0.26458,-0.52917 z m -66.026767,9.81123 c -0.13825,-0.13361 -2.50826,-1.54651 -5.2667,-3.13978 -2.75844,-1.59327 -5.05416,-3.01331 -5.10161,-3.15564 -0.10008,-0.30024 10.45904,-6.42623 11.07662,-6.42623 0.65248,0 10.936877,6.04495 11.032127,6.48445 0.0471,0.21709 -0.0292,0.39472 -0.16947,0.39472 -0.27895,0 -9.814217,5.45098 -10.221597,5.84333 -0.32326,0.31135 -1.02681,0.31091 -1.34937,-7.9e-4 z m 1.84207,-0.64479 c 0.59486,-0.34273 2.78516,-1.60587 4.867327,-2.80699 l 3.78575,-2.18384 -4.7118,-2.74165 c -2.591477,-1.5079 -4.866207,-2.74507 -5.054947,-2.74926 -0.18874,-0.004 -2.48573,1.22925 -5.10444,2.74098 l -4.76127,2.7486 4.83985,2.80306 c 2.66192,1.54169 4.88892,2.80513 4.9489,2.80765 0.06,0.003 0.59576,-0.27582 1.19063,-0.61855 z m -6.39747,-7.90087 c 3.32351,-1.91112 4.70092,-2.84142 4.70092,-3.175 0,-0.2595 -0.0768,-0.47182 -0.17065,-0.47182 -0.32856,0 -9.88352,5.60953 -9.88352,5.80242 0,0.23087 0.29067,0.54758 0.50256,0.54758 0.0824,0 2.26519,-1.21643 4.85069,-2.70318 z m 15.805757,2.44893 c 0.21406,-0.13538 0.33313,-0.29075 0.26458,-0.34526 -0.0685,-0.0545 -2.41658,-1.42044 -5.21786,-3.03538 -4.494067,-2.59085 -5.092977,-2.86879 -5.091167,-2.36267 0.002,0.46428 0.89675,1.09035 4.696357,3.28493 2.58186,1.49123 4.75382,2.7098 4.82658,2.70793 0.0728,-0.002 0.30744,-0.11417 0.52151,-0.24955 z M 95.514553,49.49599 c 0,-0.29104 -0.11906,-0.52916 -0.26458,-0.52916 -0.14552,0 -0.26459,0.23812 -0.26459,0.52916 0,0.29104 0.11907,0.52917 0.26459,0.52917 0.14552,0 0.26458,-0.23813 0.26458,-0.52917 z M 57.14997,57.4244 c -2.69214,-1.58216 -5.04362,-2.8822 -5.22552,-2.88899 -1.11407,-0.0416 0.31374,-1.12807 5.21661,-3.96969 l 5.547353,-3.21514 5.56515,3.21106 c 3.11779,1.79895 5.56516,3.37606 5.56516,3.58625 0,0.20635 -0.12624,0.37519 -0.28053,0.37519 -0.15429,0 -2.54434,1.30968 -5.31123,2.91041 -2.76688,1.60073 -5.28979,2.90077 -5.60645,2.88898 -0.31666,-0.0118 -2.77841,-1.31592 -5.470543,-2.89807 z m 10.693593,-0.0303 4.65893,-2.68527 -1.39241,-0.8326 c -5.30168,-3.17016 -8.18554,-4.69439 -8.65136,-4.57258 -0.64683,0.16915 -9.538593,5.31117 -9.408763,5.44099 0.50123,0.50124 9.132833,5.29523 9.564743,5.31226 0.31347,0.0124 2.66646,-1.1859 5.22886,-2.6628 z M 57.43669,51.81115 c 4.004603,-2.29943 4.724403,-2.80717 4.731723,-3.33773 0.008,-0.58654 -0.0286,-0.60171 -0.58667,-0.24212 -0.32742,0.211 -2.619383,1.5507 -5.093233,2.97711 -2.47385,1.42642 -4.554,2.64318 -4.62255,2.70391 -0.11094,0.0983 0.50549,0.5965 0.75072,0.60675 0.0533,0.002 2.22232,-1.21634 4.82001,-2.70792 z m 15.845203,2.45773 c 0.21406,-0.13538 0.33313,-0.29666 0.26458,-0.35839 -0.0685,-0.0617 -2.41658,-1.43327 -5.21786,-3.04787 -4.534,-2.61332 -5.09225,-2.87129 -5.08436,-2.34955 0.007,0.4783 0.87104,1.0834 4.69636,3.28987 2.57811,1.48707 4.74701,2.70564 4.81977,2.70792 0.0728,0.002 0.30744,-0.1066 0.52151,-0.24198 z m -10.31109,-5.96346 c 0,-0.3638 -0.11906,-0.66146 -0.26458,-0.66146 -0.14552,0 -0.26459,0.29766 -0.26459,0.66146 0,0.3638 0.11907,0.66146 0.26459,0.66146 0.14552,0 0.26458,-0.29766 0.26458,-0.66146 z m 53.252377,7.85796 c -2.94405,-1.70251 -5.35507,-3.1731 -5.35781,-3.26799 -0.007,-0.24383 11.09465,-6.62543 11.35087,-6.52482 1.12995,0.44367 10.85537,6.24333 10.8613,6.47703 0.01,0.37641 -10.43212,6.44346 -11.05708,6.42463 -0.24445,-0.007 -2.85322,-1.40635 -5.79728,-3.10885 z m 10.89949,0.17269 c 2.56704,-1.47674 4.57185,-2.7741 4.45513,-2.88303 -0.58666,-0.5475 -9.10325,-5.27991 -9.50189,-5.27991 -0.25425,0 -2.5357,1.19932 -5.06991,2.66516 -2.53421,1.46584 -4.64725,2.62556 -4.69565,2.57717 -0.0484,-0.0484 1.98486,-1.27749 4.51835,-2.73131 3.76545,-2.16078 4.60713,-2.74998 4.61068,-3.22762 0.004,-0.52047 -0.53634,-0.2714 -4.94486,2.27989 -2.72206,1.5753 -4.98486,2.97117 -5.02844,3.10192 -0.0962,0.28859 9.92832,6.15114 10.54959,6.16963 0.24181,0.007 2.53996,-1.19517 5.107,-2.6719 z m 5.69813,-3.40451 c 0,-0.11662 -2.05383,-1.39693 -4.56406,-2.84513 -6.23366,-3.59632 -5.81509,-3.39869 -5.70965,-2.69586 0.0666,0.44391 1.20729,1.22643 4.81913,3.30596 4.21953,2.4294 5.45458,2.93547 5.45458,2.23503 z m -10.58333,-5.68448 c 0,-0.3638 -0.11907,-0.66145 -0.26459,-0.66145 -0.14552,0 -0.26458,0.29765 -0.26458,0.66145 0,0.36381 0.11906,0.66146 0.26458,0.66146 0.14552,0 0.26459,-0.29765 0.26459,-0.66146 z M 22.26356,54.95272 C 21.67734,54.62763 23.31951,53.63732 50.1771,38.11942 65.872133,29.05109 78.941463,21.64435 79.220063,21.66 c 0.5065,0.0285 1.41747,0.74357 1.19749,0.94002 -0.62178,0.55527 -56.747523,32.71448 -57.082593,32.70748 -0.24669,-0.005 -0.72882,-0.16481 -1.0714,-0.35478 z m 2.94733,-1.00286 c 1.03819,-0.60633 2.03599,-1.10243 2.21734,-1.10243 0.18134,0 0.27693,-0.0854 0.21242,-0.18978 -0.14026,-0.22694 1.48155,-0.94286 1.86036,-0.82122 0.14552,0.0467 0.17579,-0.004 0.0673,-0.11235 -0.25022,-0.25022 4.59841,-3.03109 4.92884,-2.82688 0.13476,0.0833 0.16861,0.0278 0.0752,-0.12332 -0.17785,-0.28776 1.34952,-1.05337 1.80784,-0.9062 0.14552,0.0467 0.17497,-0.005 0.0654,-0.11417 -0.25131,-0.2513 2.7468,-1.97177 3.07865,-1.76668 0.13472,0.0833 0.16853,0.0277 0.0751,-0.12337 -0.16716,-0.27047 1.33614,-1.05712 1.76136,-0.92169 0.11996,0.0382 0.15124,-0.0387 0.0695,-0.17097 -0.16261,-0.2631 1.40209,-1.00897 1.82905,-0.87187 0.14552,0.0467 0.17498,-0.005 0.0655,-0.11416 -0.25131,-0.25131 2.7468,-1.97178 3.07865,-1.76669 0.13472,0.0833 0.16853,0.0277 0.0751,-0.12337 -0.17785,-0.28775 1.34952,-1.05336 1.80784,-0.9062 0.14552,0.0467 0.17579,-0.004 0.0673,-0.11235 -0.25023,-0.25022 4.59841,-3.03109 4.92884,-2.82687 0.13476,0.0833 0.16861,0.0278 0.0752,-0.12333 -0.17784,-0.28775 1.34953,-1.05336 1.80784,-0.9062 0.14552,0.0467 0.17498,-0.005 0.0655,-0.11416 -0.25131,-0.25131 2.7468,-1.97178 3.07865,-1.76668 0.13472,0.0833 0.16853,0.0277 0.0751,-0.12337 -0.16717,-0.27048 1.336133,-1.05713 1.761363,-0.92169 0.11995,0.0382 0.15123,-0.0387 0.0695,-0.17097 -0.16262,-0.26311 1.40209,-1.00897 1.82905,-0.87188 0.14552,0.0467 0.17498,-0.005 0.0655,-0.11416 -0.25131,-0.25131 2.7468,-1.97178 3.07864,-1.76668 0.13472,0.0833 0.16854,0.0277 0.0751,-0.12337 -0.16716,-0.27048 1.33614,-1.05713 1.76136,-0.92169 0.11996,0.0382 0.15124,-0.0387 0.0695,-0.17097 -0.16261,-0.26311 1.4021,-1.00897 1.82906,-0.87188 0.14552,0.0467 0.17497,-0.005 0.0654,-0.11416 -0.25131,-0.25131 2.7468,-1.97178 3.07865,-1.76668 0.13472,0.0833 0.16853,0.0277 0.0751,-0.12337 -0.16716,-0.27047 1.33614,-1.05713 1.76136,-0.92169 0.11996,0.0382 0.16092,-0.023 0.091,-0.13614 -0.0699,-0.11308 0.93329,-0.80001 2.22929,-1.52651 1.86307,-1.04439 2.35636,-1.44409 2.35636,-1.90931 0,-0.57383 -0.0377,-0.5665 -1.52136,0.29601 -0.83674,0.48643 -13.12994,7.58045 -27.318233,15.76448 -30.70536,17.71137 -27.65036,15.8953 -27.20936,16.17482 0.54541,0.3457 0.66231,0.30774 2.67862,-0.86985 z m 54.164083,-31.4257 c 0,-0.28245 -0.11907,-0.58714 -0.26459,-0.67707 -0.15006,-0.0927 -0.26458,0.12954 -0.26458,0.51355 0,0.37239 0.11906,0.67707 0.26458,0.67707 0.14552,0 0.26459,-0.2311 0.26459,-0.51355 z m 0.44532,-0.32981 c -0.0845,-0.21107 -0.14716,-0.14837 -0.15985,0.15985 -0.0115,0.27892 0.0511,0.43519 0.13896,0.34727 0.0879,-0.0879 0.0973,-0.31612 0.0209,-0.50712 z m 59.618927,29.67947 c -2.98106,-1.73167 -5.45354,-3.24876 -5.49439,-3.37132 -0.0891,-0.26741 10.1079,-6.19584 10.92595,-6.35222 0.70917,-0.13557 11.06032,5.78733 11.18661,6.40094 0.0471,0.22861 -0.0236,0.41566 -0.15704,0.41566 -0.13343,0 -2.6127,1.36878 -5.50951,3.04173 -2.8968,1.67295 -5.32645,3.03542 -5.39921,3.02771 -0.0728,-0.008 -2.57134,-1.43084 -5.55241,-3.1625 z m 10.55823,0.10499 c 2.41279,-1.38957 4.47465,-2.61036 4.5819,-2.71287 0.20691,-0.19774 -8.99724,-5.59073 -9.54164,-5.59073 -0.17593,0 -2.45825,1.23362 -5.07181,2.74138 l -4.75193,2.74138 4.82269,2.79943 c 2.65247,1.53969 4.9917,2.74284 5.19829,2.67366 0.20658,-0.0692 2.34971,-1.26269 4.7625,-2.65225 z m -10.23213,-5.70992 c 3.35193,-1.92531 4.69715,-2.8346 4.69715,-3.175 0,-0.26236 -0.071,-0.47701 -0.15783,-0.47701 -0.32096,0 -9.89634,5.61386 -9.89634,5.80203 0,0.23296 0.29107,0.54797 0.50632,0.54797 0.0845,0 2.26726,-1.2141 4.8507,-2.69799 z m 15.80198,2.44374 c 0.21407,-0.13538 0.33313,-0.29748 0.26459,-0.36023 -0.0685,-0.0627 -2.38682,-1.42332 -5.15172,-3.0235 -4.52818,-2.62068 -5.03622,-2.85453 -5.11916,-2.35634 -0.0507,0.30418 0.009,0.59077 0.13229,0.63686 0.12341,0.0461 2.24844,1.26506 4.72229,2.70882 2.47386,1.44377 4.55745,2.62852 4.63021,2.63279 0.0728,0.004 0.30744,-0.10302 0.5215,-0.2384 z m -10.31108,-5.83117 c 0,-0.29104 -0.11907,-0.52917 -0.26459,-0.52917 -0.14552,0 -0.26458,0.23813 -0.26458,0.52917 0,0.29104 0.11906,0.52917 0.26458,0.52917 0.14552,0 0.26459,-0.23813 0.26459,-0.52917 z m -98.6183,9.44839 c -1.36848,-0.77248 -2.41543,-1.53227 -2.38125,-1.72811 0.0719,-0.41209 10.30963,-6.39736 10.94256,-6.39736 0.46403,0 5.018813,2.52334 5.260413,2.91426 0.0797,0.12901 -1.01928,0.91216 -2.442253,1.74034 -1.42297,0.82817 -3.87969,2.26281 -5.45939,3.18808 -1.5797,0.92527 -3.00845,1.67761 -3.175,1.67185 -0.16655,-0.006 -1.40184,-0.63083 -2.74508,-1.38906 z m 7.65231,-1.5692 c 2.5915,-1.48728 4.71072,-2.7672 4.70937,-2.84427 -0.003,-0.19887 -3.4326,-2.1245 -3.78327,-2.1245 -0.25379,0 -7.96654,4.3114 -9.26546,5.17936 -0.43445,0.29031 -0.3003,0.43297 1.32292,1.40686 0.99351,0.59609 1.91849,1.08445 2.05551,1.08524 0.13701,8e-4 2.36944,-1.21541 4.96093,-2.70269 z m -4.28037,-2.38909 c 4.00052,-2.28661 4.74582,-2.80873 4.75179,-3.32887 l 0.007,-0.61689 -0.8599,0.52657 c -0.47294,0.28962 -2.76489,1.62303 -5.09323,2.96315 -2.32833,1.34012 -4.27502,2.47417 -4.32597,2.52012 -0.15896,0.14333 0.24277,0.6479 0.51585,0.6479 0.14282,0 2.3948,-1.22039 5.00439,-2.71198 z m 9.959403,-1.12448 c 0.0714,-0.22237 -3.575933,-2.51354 -4.001383,-2.51354 -0.0775,0 -0.14083,0.22727 -0.14083,0.50504 0,0.34238 0.53259,0.80923 1.65365,1.44952 1.62419,0.92766 2.319883,1.08393 2.488563,0.55898 z M 55.56247,44.99813 c 0,-0.29105 -0.11907,-0.52917 -0.26459,-0.52917 -0.14552,0 -0.26458,0.23812 -0.26458,0.52917 0,0.29104 0.11906,0.52916 0.26458,0.52916 0.14552,0 0.26459,-0.23812 0.26459,-0.52916 z M 12.77626,49.53844 C 9.83505,47.84163 7.42403,46.3757 7.41845,46.28081 c -0.0101,-0.17227 10.93353,-6.57435 11.23814,-6.57435 0.0884,0 2.66391,1.44427 5.72325,3.2095 4.53976,2.61942 5.49756,3.27072 5.20951,3.54248 -0.70186,0.66219 -10.58249,6.21201 -11.01835,6.18886 -0.24589,-0.0131 -2.85352,-1.41204 -5.79474,-3.10886 z m 10.89433,0.18304 c 2.56704,-1.47673 4.56784,-2.78447 4.44623,-2.90608 -0.12161,-0.12162 -2.29431,-1.41086 -4.82822,-2.865 l -4.60712,-2.64388 -1.73398,0.96856 c -4.62323,2.58241 -7.80807,4.54582 -7.70188,4.74812 0.18992,0.36181 8.83619,5.33616 9.31797,5.36079 0.24181,0.0123 2.53996,-1.18577 5.107,-2.66251 z m -8.91586,-6.44315 c 2.59376,-1.48616 3.23283,-1.9675 3.23464,-2.43626 0.002,-0.52151 -0.51582,-0.28499 -4.82638,2.20439 -2.65576,1.53371 -4.94671,2.90288 -5.09102,3.04259 -0.17232,0.16684 -0.13048,0.33554 0.12188,0.49151 0.26462,0.16354 0.84256,-0.0252 1.85638,-0.60633 0.80967,-0.4641 2.92669,-1.67725 4.7045,-2.6959 z M 29.29994,46.247 c -0.0501,-0.15039 -2.31735,-1.56039 -5.03827,-3.13334 -4.41458,-2.55204 -4.94659,-2.79679 -4.94226,-2.27365 0.004,0.48047 0.84934,1.07022 4.68541,3.26873 4.20789,2.4116 5.56952,2.96145 5.29512,2.13826 z M 19.04997,40.5884 c 0,-0.37237 -0.15749,-0.61736 -0.39688,-0.61736 -0.23938,0 -0.39687,0.24499 -0.39687,0.61736 0,0.37238 0.15749,0.61737 0.39687,0.61737 0.23939,0 0.39688,-0.24499 0.39688,-0.61737 z m 86.90239,9.71959 c -0.13824,-0.13551 -2.4832,-1.5345 -5.21102,-3.10886 -2.727817,-1.57435 -4.986197,-2.98153 -5.018617,-3.12705 -0.0636,-0.2853 10.477167,-6.48229 11.026017,-6.48229 0.44302,0 11.06409,6.15812 11.09717,6.43416 0.0338,0.28204 -10.69523,6.51262 -11.23209,6.52271 -0.22556,0.004 -0.52321,-0.10316 -0.66146,-0.23867 z m 5.72119,-2.73018 c 2.60355,-1.49159 4.73369,-2.77151 4.73365,-2.84427 -1e-4,-0.16405 -9.3631,-5.55625 -9.64786,-5.55625 -0.28499,0 -9.647837,5.39232 -9.647497,5.55625 2.6e-4,0.16623 9.302637,5.54078 9.605447,5.5497 0.12239,0.004 2.35271,-1.21384 4.95626,-2.70543 z M 101.0716,42.07908 c 5.00295,-2.87761 5.10885,-2.95217 4.98891,-3.51238 -0.076,-0.35496 -1.07046,0.11716 -4.98971,2.36887 -2.692137,1.54671 -4.936477,2.84748 -4.987427,2.89061 -0.17026,0.1441 0.25233,0.64278 0.54469,0.64278 0.1587,0 2.15829,-1.07545 4.443537,-2.38988 z m 16.30662,1.993 c 0.0437,-0.14552 -2.23842,-1.5927 -5.0713,-3.21596 -4.52984,-2.59561 -5.15026,-2.88265 -5.14703,-2.38125 0.003,0.45921 0.91664,1.09748 4.69635,3.28071 4.43795,2.56344 5.33496,2.93974 5.52198,2.3165 z m -10.48659,-5.68854 c 0,-0.29104 -0.11906,-0.52916 -0.26458,-0.52916 -0.14552,0 -0.26458,0.23812 -0.26458,0.52916 0,0.29104 0.11906,0.52917 0.26458,0.52917 0.14552,0 0.26458,-0.23813 0.26458,-0.52917 z M 73.441593,49.26342 c -0.0791,-0.12795 -2.47702,-1.57254 -5.32877,-3.21021 -4.27003,-2.45214 -5.12284,-3.03788 -4.83278,-3.3193 0.61273,-0.59447 10.48774,-6.20245 10.92181,-6.20245 0.42206,0 10.31221,5.606 10.94081,6.20155 0.27621,0.26168 -0.75498,0.95797 -5.2491,3.54434 -3.07606,1.77028 -5.75379,3.21869 -5.95052,3.21869 -0.19672,0 -0.42237,-0.10468 -0.50145,-0.23262 z m 5.31975,-2.58239 c 2.44755,-1.40273 4.59845,-2.68644 4.77979,-2.85269 0.25405,-0.23291 -0.7599,-0.9276 -4.41913,-3.02766 -2.61186,-1.49896 -4.90629,-2.6858 -5.09872,-2.63741 -0.5425,0.13641 -9.46634,5.32019 -9.45441,5.49198 0.0111,0.16019 9.25145,5.53354 9.56226,5.56055 0.0991,0.009 2.18267,-1.13203 4.63021,-2.53477 z m -9.84373,-5.94239 c 3.44282,-1.98406 4.63652,-2.80149 4.63652,-3.175 0,-0.27666 -0.0509,-0.50301 -0.11306,-0.50301 -0.11515,0 -9.73234,5.53251 -9.90145,5.69604 -0.15127,0.14628 0.23597,0.65396 0.49881,0.65396 0.13346,0 2.32909,-1.2024 4.87918,-2.67199 z m 15.92575,2.27447 c 0.0486,-0.14588 -1.72751,-1.30754 -3.94682,-2.58147 -2.21932,-1.27393 -4.54113,-2.61985 -5.15959,-2.99092 l -1.12448,-0.67467 0.007,0.61031 c 0.006,0.51044 0.77444,1.05242 4.69635,3.31226 4.45901,2.56932 5.32471,2.93338 5.52739,2.32449 z m -10.49548,-5.6879 c 0,-0.29104 -0.11906,-0.52917 -0.26458,-0.52917 -0.14552,0 -0.26458,0.23813 -0.26458,0.52917 0,0.29104 0.11906,0.52917 0.26458,0.52917 0.14552,0 0.26458,-0.23813 0.26458,-0.52917 z m 49.609377,5.60229 c -2.91042,-1.69912 -5.26737,-3.20825 -5.23768,-3.35361 0.0534,-0.26163 10.59963,-6.47034 11.00365,-6.47803 0.45049,-0.009 11.02553,6.23115 11.03016,6.50826 0.006,0.35045 -10.55432,6.46121 -11.11623,6.43252 -0.21353,-0.0109 -2.76949,-1.41002 -5.6799,-3.10914 z m 10.78666,0.15576 c 4.17134,-2.39865 4.65694,-2.74769 4.24342,-3.05006 -0.25682,-0.18779 -2.44947,-1.47684 -4.87256,-2.86456 l -4.40561,-2.52312 -4.46345,2.56344 c -2.45491,1.40989 -4.61971,2.7091 -4.81068,2.88714 -0.27928,0.26036 0.54908,0.84489 4.23333,2.98722 2.5193,1.46494 4.7571,2.67366 4.97287,2.68604 0.21577,0.0124 2.51197,-1.19636 5.10268,-2.6861 z m -9.90557,-5.88422 c 3.8198,-2.18698 4.45766,-2.68049 4.2371,-3.2783 -0.0864,-0.23419 -9.19572,4.86263 -9.83714,5.50404 -0.49321,0.49322 0.36055,0.86641 1.01222,0.44245 0.29245,-0.19026 2.35697,-1.39095 4.58782,-2.66819 z m 15.58866,2.4396 c -0.0766,-0.22993 -9.82801,-6.0176 -10.13878,-6.0176 -0.0623,0 -0.11326,0.22622 -0.11326,0.50271 0,0.37352 1.23569,1.21672 4.80868,3.28126 4.29863,2.48384 5.72137,3.06765 5.44336,2.23363 z m -10.51663,-5.75301 c 0,-0.29105 -0.11906,-0.52917 -0.26458,-0.52917 -0.14552,0 -0.26458,0.23812 -0.26458,0.52917 0,0.29104 0.11906,0.52916 0.26458,0.52916 0.14552,0 0.26458,-0.23812 0.26458,-0.52916 z m -96.96979,9.63689 c -0.29104,-0.22025 -2.71191,-1.66087 -5.37971,-3.20138 -3.96554,-2.28989 -4.78621,-2.86197 -4.49792,-3.13549 0.60173,-0.57088 10.51267,-6.21044 10.91421,-6.21044 0.39593,0 10.3439,5.64122 10.9546,6.21206 0.28248,0.26404 -0.7189,0.94284 -5.22174,3.53961 -3.06419,1.7671 -5.72178,3.20913 -5.90576,3.2045 -0.18398,-0.005 -0.57264,-0.18862 -0.86368,-0.40886 z m 6.06058,-2.62544 c 2.54973,-1.4552 4.63867,-2.70536 4.6421,-2.77812 0.008,-0.16904 -9.35074,-5.55625 -9.65236,-5.55625 -0.31227,0 -9.65138,5.37501 -9.64041,5.54842 0.0161,0.25445 9.37708,5.55613 9.69932,5.4933 0.17352,-0.0338 2.40162,-1.25214 4.95135,-2.70735 z M 28.70726,35.21867 c 3.27555,-1.90224 4.52089,-2.76188 4.58246,-3.16321 0.0465,-0.3031 0.0331,-0.55108 -0.0298,-0.55108 -0.1083,0 -9.74088,5.52841 -9.93693,5.70308 -0.17886,0.15937 0.25956,0.64679 0.57128,0.63512 0.17331,-0.006 2.33918,-1.18725 4.81303,-2.62391 z m 15.91391,2.23883 c 0.0455,-0.14552 -2.23657,-1.59775 -5.0713,-3.22718 -4.57587,-2.63024 -5.15351,-2.89738 -5.14904,-2.38125 0.004,0.47333 0.87672,1.08471 4.69635,3.29038 4.44208,2.56511 5.33014,2.93777 5.52399,2.31805 z M 34.13122,31.76896 c 0,-0.29104 -0.11906,-0.52917 -0.26459,-0.52917 -0.14552,0 -0.26458,0.23813 -0.26458,0.52917 0,0.29104 0.11906,0.52917 0.26458,0.52917 0.14553,0 0.26459,-0.23813 0.26459,-0.52917 z m 48.388203,4.93341 c -6.30692,-3.66613 -6.19534,-3.58856 -5.75471,-4.00061 0.69356,-0.64855 10.64513,-6.24441 10.97016,-6.16861 0.69782,0.16274 10.94014,6.17644 10.94527,6.42643 0.007,0.31773 -10.6228,6.48883 -11.13925,6.46716 -0.19839,-0.008 -2.45805,-1.23429 -5.02147,-2.72437 z m 10.10185,-0.23706 c 3.87778,-2.22267 4.65894,-2.76656 4.32953,-3.01451 -0.22106,-0.16639 -2.41993,-1.45825 -4.88638,-2.8708 l -4.48444,-2.56827 -4.90585,2.83234 -4.90584,2.83234 4.70594,2.7353 c 2.58827,1.50442 4.86561,2.74212 5.06076,2.75045 0.19516,0.008 2.48398,-1.20526 5.08628,-2.69685 z m -10.20359,-5.73047 c 3.46873,-2.01392 4.51837,-2.74775 4.58734,-3.20712 0.0863,-0.57524 0.0356,-0.56491 -1.48106,0.30143 -0.86376,0.49341 -3.13601,1.79007 -5.04943,2.88148 -3.22693,1.84061 -4.15557,2.65323 -3.01779,2.64075 0.25466,-0.003 2.48708,-1.18023 4.96094,-2.61654 z m 15.875,2.27273 c 0,-0.18589 -9.79678,-6.00111 -10.10995,-6.00111 -0.0623,0 -0.0753,0.24799 -0.0288,0.55109 0.0615,0.40102 1.30937,1.26386 4.58247,3.16861 4.00313,2.32958 5.55625,2.9673 5.55625,2.28141 z m -10.45105,-5.73653 c 0,-0.29104 -0.11906,-0.52916 -0.26458,-0.52916 -0.14552,0 -0.26458,0.23812 -0.26458,0.52916 0,0.29104 0.11906,0.52917 0.26458,0.52917 0.14552,0 0.26458,-0.23813 0.26458,-0.52917 z m 25.655137,9.69728 c -0.21309,-0.19629 -2.6287,-1.64171 -5.36803,-3.21204 -4.08828,-2.34362 -4.91782,-2.91604 -4.63021,-3.19503 0.61385,-0.59546 10.48758,-6.20062 10.92266,-6.20062 0.41622,0 10.28737,5.59998 10.93499,6.20351 0.27026,0.25186 -0.8096,0.98264 -5.22984,3.53923 -3.06373,1.77201 -5.72156,3.22184 -5.90629,3.22184 -0.18472,0 -0.5102,-0.1606 -0.72328,-0.35689 z m 5.50474,-2.46171 c 2.43462,-1.40471 4.57052,-2.68463 4.74644,-2.84427 0.23991,-0.2177 -0.78697,-0.9315 -4.10802,-2.85554 -2.43534,-1.41091 -4.63744,-2.64571 -4.89356,-2.74399 -0.31993,-0.12277 -1.95313,0.67569 -5.21853,2.5513 -2.61408,1.50149 -4.74854,2.79582 -4.74325,2.87627 0.011,0.1665 9.27435,5.53571 9.58671,5.55662 0.11199,0.007 2.19559,-1.13568 4.63021,-2.54039 z m -9.85227,-5.94002 c 3.42145,-1.97904 4.62156,-2.80352 4.62156,-3.175 0,-0.27599 -0.0509,-0.5018 -0.11306,-0.5018 -0.11516,0 -9.73234,5.53251 -9.90146,5.69605 -0.15574,0.15061 0.23971,0.65395 0.51378,0.65395 0.14169,0 2.33732,-1.20294 4.87918,-2.6732 z m 15.90769,2.27633 c 0.0469,-0.14552 -1.72922,-1.30713 -3.94682,-2.58135 -2.21761,-1.27422 -4.53803,-2.62042 -5.1565,-2.99155 l -1.12448,-0.6748 0.009,0.61031 c 0.007,0.50962 0.78215,1.05693 4.69635,3.31765 4.44332,2.56632 5.32406,2.93628 5.52257,2.31974 z m -10.49238,-5.68854 c 0,-0.29105 -0.11906,-0.52917 -0.26458,-0.52917 -0.14552,0 -0.26459,0.23812 -0.26459,0.52917 0,0.29104 0.11907,0.52916 0.26459,0.52916 0.14552,0 0.26458,-0.23812 0.26458,-0.52916 z m -71.10677,6.67735 c -2.9468,-1.70374 -5.35781,-3.17709 -5.35781,-3.27412 0,-0.097 2.51282,-1.6273 5.58405,-3.4006 l 5.58406,-3.22419 5.4623,3.13667 c 3.00426,1.72516 5.462303,3.29129 5.462303,3.48028 0,0.4064 -10.236633,6.3975 -10.912963,6.38693 -0.25527,-0.004 -2.87514,-1.40122 -5.82194,-3.10497 z m 10.71323,0.29962 c 2.43879,-1.40141 4.53074,-2.63503 4.64879,-2.74139 0.25653,-0.23113 -8.86159,-5.5585 -9.51372,-5.5585 -0.24907,0 -2.52629,1.19932 -5.0605,2.66516 -2.53421,1.46584 -4.64725,2.62557 -4.69564,2.57717 -0.0484,-0.0484 1.98486,-1.27748 4.51835,-2.7313 3.76545,-2.16078 4.60713,-2.74999 4.61067,-3.22762 0.004,-0.52043 -0.53804,-0.27042 -4.9566,2.28667 -2.72851,1.57905 -4.96093,3.00099 -4.96093,3.15989 0,0.35864 9.88067,6.10088 10.51479,6.11077 0.25335,0.004 2.456,-1.13943 4.89479,-2.54085 z m 5.470863,-3.16882 c 0.23018,-0.0883 0.41851,-0.25207 0.41851,-0.36386 0,-0.11178 -1.815703,-1.24652 -4.034893,-2.52162 C 53.8063,24.80195 51.474,23.45989 50.84261,23.0947 l -1.14798,-0.66398 0.0897,0.59932 c 0.0785,0.52494 3.21286,2.54934 9.39457,6.06776 0.0245,0.0139 0.232843,-0.0469 0.463023,-0.13527 z M 49.47705,22.90542 c 0,-0.3638 -0.11906,-0.66146 -0.26458,-0.66146 -0.14552,0 -0.26459,0.29766 -0.26459,0.66146 0,0.3638 0.11907,0.66146 0.26459,0.66146 0.14552,0 0.26458,-0.29766 0.26458,-0.66146 z m 43.993603,2.42468 c -2.79763,-1.63188 -5.2133,-3.09376 -5.36816,-3.24862 -0.19902,-0.19902 1.34748,-1.22474 5.27572,-3.49912 3.05651,-1.76966 5.62271,-3.21757 5.70268,-3.21757 0.29253,0 11.250047,6.40951 11.241327,6.57553 -0.0159,0.30235 -10.802437,6.38967 -11.292697,6.37295 -0.25975,-0.009 -2.76123,-1.35129 -5.55887,-2.98317 z m 10.667687,0.0521 c 2.55076,-1.47542 4.54116,-2.77536 4.42312,-2.88877 -0.60386,-0.58016 -9.065227,-5.27586 -9.498927,-5.27151 -0.58681,0.006 -9.52335,5.13559 -9.45586,5.42779 0.0735,0.31806 8.90691,5.37823 9.42226,5.39746 0.25941,0.01 2.558647,-1.18956 5.109407,-2.66497 z m -8.939527,-6.44556 c 2.59652,-1.49333 3.22088,-1.96647 3.22323,-2.4426 0.003,-0.55495 -0.12855,-0.51352 -2.17989,0.68783 -1.20054,0.70309 -3.46273,2.02156 -5.02708,2.92994 -2.78539,1.61741 -3.18138,1.96533 -2.51354,2.2084 0.33986,0.12369 0.96578,-0.20226 6.49728,-3.38357 z m 14.537047,2.97643 c -0.0487,-0.14612 -2.31593,-1.55268 -5.03827,-3.12569 -4.38819,-2.53557 -4.949287,-2.79439 -4.946037,-2.28143 0.003,0.4705 0.876207,1.08066 4.673537,3.26566 4.1713,2.40017 5.58734,2.97116 5.31077,2.14146 z M 99.483303,16.29081 c 0,-0.41158 -0.14993,-0.66146 -0.39687,-0.66146 -0.24695,0 -0.39688,0.24988 -0.39688,0.66146 0,0.41157 0.14993,0.66145 0.39688,0.66145 0.24694,0 0.39687,-0.24988 0.39687,-0.66145 z M 58.89801,23.07652 c -2.89488,-1.69562 -5.27591,-3.20169 -5.29118,-3.34683 -0.0311,-0.29559 10.343513,-6.43071 10.926993,-6.46177 0.52609,-0.028 11.13803,6.126 11.13207,6.45563 -0.006,0.32552 -10.672,6.50068 -11.16245,6.46252 -0.18811,-0.0146 -2.71055,-1.41394 -5.605433,-3.10955 z m 10.724063,0.11544 c 4.6503,-2.68453 4.75823,-2.76635 4.15476,-3.14951 -1.30243,-0.82694 -8.9939,-5.20685 -9.14364,-5.20685 -0.26577,0 -9.598893,5.41438 -9.599403,5.56886 -5.3e-4,0.17556 9.294563,5.54364 9.599143,5.54364 0.11815,0 2.36326,-1.24026 4.98914,-2.75614 z m -10.22314,-5.68953 c 3.46435,-2.00862 4.51841,-2.7444 4.58711,-3.20202 l 0.0892,-0.59416 -1.27982,0.71355 c -7.807983,4.35325 -9.820793,5.7258 -8.357433,5.69898 0.25466,-0.005 2.48708,-1.18203 4.960943,-2.61635 z m 15.84712,2.22796 c -0.0268,-0.25456 -9.53545,-5.91558 -9.97855,-5.94079 -0.11926,-0.007 -0.17879,0.22536 -0.13229,0.51588 0.0591,0.36955 1.43563,1.31734 4.58247,3.15532 4.08143,2.38385 5.60636,3.00988 5.52837,2.26959 z m -10.42317,-5.68854 c 0,-0.29104 -0.11906,-0.52917 -0.26458,-0.52917 -0.14552,0 -0.26458,0.23813 -0.26458,0.52917 0,0.29104 0.11906,0.52916 0.26458,0.52916 0.14552,0 0.26458,-0.23812 0.26458,-0.52916 z m 84.931247,98.88801 c 0,-0.48506 -0.14699,-0.59531 -0.79375,-0.59531 -0.64676,0 -0.79375,0.11025 -0.79375,0.59531 0,0.48507 0.14699,0.59532 0.79375,0.59532 0.64676,0 0.79375,-0.11025 0.79375,-0.59532 z m -35.18958,-0.44576 c 0,-0.38131 -1.0252,-1.10695 -4.01847,-2.84427 -4.80536,-2.78908 -4.51367,-2.66011 -4.40432,-1.94745 0.0656,0.42752 1.11217,1.17938 4.05716,2.91471 2.18282,1.28621 4.05805,2.3499 4.16719,2.36374 0.10914,0.0138 0.19844,-0.20518 0.19844,-0.48673 z m 33.3375,0.0438 c 0,-0.42346 -2.51212,-2.00749 -8.42358,-5.31152 l -1.14753,-0.64138 0.0892,0.59396 c 0.0687,0.45718 1.12507,1.19539 4.58712,3.20543 2.47385,1.43631 4.58721,2.61375 4.69635,2.61654 0.10914,0.003 0.19844,-0.20557 0.19844,-0.46303 z m 8.86354,-3.22086 c 4.89565,-2.83534 6.37025,-3.81035 6.43841,-4.25713 0.0486,-0.31873 -0.0176,-0.53648 -0.14714,-0.48389 -0.12955,0.0526 -3.11613,1.75867 -6.63685,3.7913 -4.58136,2.64498 -6.40129,3.82974 -6.40129,4.16719 0,0.25932 0.0893,0.46895 0.19843,0.46583 0.10914,-0.003 3.05594,-1.6606 6.54844,-3.6833 z m -50.93229,-1.73499 v -0.66146 h -2.64583 -2.64584 v 0.66146 0.66146 h 2.64584 2.64583 z m -5.55625,-0.10559 c 0,-0.38618 -3.677937,-2.62559 -15.890777,-9.67553 -8.73992,-5.04518 -16.31104,-9.42101 -16.82469,-9.72407 l -0.93393,-0.55103 0.0898,0.62751 c 0.0751,0.52462 2.80123,2.19788 16.62626,10.20485 9.09505,5.26754 16.62575,9.58711 16.734887,9.59904 0.10914,0.0119 0.19844,-0.20442 0.19844,-0.48077 z m 37.83542,-0.55587 c 0,-0.38805 -0.17639,-0.52916 -0.66146,-0.52916 -0.48507,0 -0.66146,0.14111 -0.66146,0.52916 0,0.38806 0.17639,0.52917 0.66146,0.52917 0.48507,0 0.66146,-0.14111 0.66146,-0.52917 z m 26.33277,-10.88928 c 4.7617,-2.75423 6.47556,-3.87464 6.47556,-4.23334 0,-0.26828 -0.0893,-0.48164 -0.19844,-0.47413 -0.62244,0.0429 -13.17576,7.63076 -13.24842,8.00805 -0.0471,0.24473 0.0451,0.44495 0.20502,0.44495 0.15989,0 3.20471,-1.68549 6.76628,-3.74553 z m 12.63755,-11.72018 c 3.92353,-2.26445 5.47968,-3.2976 5.47968,-3.63802 0,-0.26149 -0.0729,-0.47543 -0.16201,-0.47543 -0.18325,0 -13.07189,7.38803 -13.43302,7.7001 -0.12846,0.111 -0.16054,0.39215 -0.0713,0.62477 0.14032,0.36565 0.33464,0.32326 1.43462,-0.31295 0.69977,-0.40473 3.73816,-2.15904 6.75201,-3.89847 z M 66.236763,84.14866 c -0.26075,-0.25244 -8.002663,-4.75473 -8.176013,-4.75473 -0.0644,0 -0.11703,0.22731 -0.11703,0.50515 0,0.70946 8.289623,5.51919 8.425333,4.88846 0.05,-0.2325 -0.01,-0.52 -0.13229,-0.63888 z m 125.586117,0.008 c 0,-0.38806 -0.1764,-0.52917 -0.66146,-0.52917 -0.48506,0 -0.66145,0.14111 -0.66145,0.52917 0,0.38805 0.17639,0.52916 0.66145,0.52916 0.48506,0 0.66146,-0.14111 0.66146,-0.52916 z m -1.5875,-0.24294 c 0,-0.36717 -0.77552,-0.9525 -2.80442,-2.11666 -1.54244,-0.88504 -2.85213,-1.60915 -2.91042,-1.60915 -0.0583,0 -0.10599,0.2288 -0.10599,0.50844 0,0.36541 0.76295,0.95426 2.71198,2.0931 1.49159,0.87155 2.80127,1.59525 2.91041,1.60822 0.10915,0.013 0.19844,-0.20481 0.19844,-0.48395 z m 11.19383,-4.82209 c 4.53917,-2.62106 8.35351,-4.86275 8.4763,-4.98154 0.1228,-0.11878 0.18233,-0.40972 0.13229,-0.64653 -0.14083,-0.66667 -17.78447,9.58892 -17.9053,10.40769 -0.10594,0.71798 -1.18322,1.27182 9.29671,-4.77962 z m -17.27924,1.38917 c 0,-0.52048 -0.66308,-0.93405 -1.0822,-0.67501 -0.1324,0.0818 -0.24072,0.37986 -0.24072,0.66232 0,0.37139 0.18309,0.51355 0.66146,0.51355 0.4726,0 0.66146,-0.143 0.66146,-0.50086 z M 52.07514,79.63641 c -0.0648,-0.4226 -3.98031,-2.80227 -16.7533,-10.18184 -9.16781,-5.29668 -16.75804,-9.63242 -16.86718,-9.63496 -0.10915,-0.003 -0.19844,0.20398 -0.19844,0.45894 0,0.33462 4.65519,3.16069 16.73489,10.1594 9.2042,5.33271 16.83248,9.70801 16.95174,9.7229 0.11926,0.0149 0.17879,-0.22112 0.13229,-0.52444 z m 5.60399,0.0223 c 0,-0.49389 -0.17639,-0.52917 -2.64583,-0.52917 -2.46944,0 -2.64583,0.0353 -2.64583,0.52917 0,0.49389 0.17639,0.52917 2.64583,0.52917 2.46944,0 2.64583,-0.0353 2.64583,-0.52917 z m -39.6875,-22.9643 c 0,-0.33299 -1.18382,-1.16245 -3.96503,-2.77813 -2.18077,-1.26687 -4.03452,-2.3034 -4.11944,-2.3034 -0.0849,0 -0.11636,0.2401 -0.0699,0.53356 0.0591,0.37277 1.24073,1.20625 3.921,2.76566 2.11005,1.22764 3.92576,2.2377 4.0349,2.24456 0.10914,0.007 0.19843,-0.20116 0.19843,-0.46225 z M 9.52497,51.87746 c 0,-0.49557 -0.17639,-0.52916 -2.77813,-0.52916 -2.60173,0 -2.77812,0.0336 -2.77812,0.52916 0,0.49557 0.17639,0.52917 2.77812,0.52917 2.60174,0 2.77813,-0.0336 2.77813,-0.52917 z M 3.70414,51.66993 c 0,-0.25967 -0.38696,-0.69299 -0.8599,-0.96292 C 2.3713,50.43707 1.59739,49.98497 1.12445,49.70234 l -0.8599,-0.51387 0.004,0.61689 c 0.003,0.47416 0.35477,0.81346 1.52135,1.46645 1.77798,0.99521 1.91465,1.02363 1.91465,0.39812 z"
     id="path86" />
</svg>
