<?xml version="1.0" encoding="UTF-8" standalone="no"?>
<!-- Created with Inkscape (http://www.inkscape.org/) -->

<svg
   xmlns:dc="http://purl.org/dc/elements/1.1/"
   xmlns:cc="http://creativecommons.org/ns#"
   xmlns:rdf="http://www.w3.org/1999/02/22-rdf-syntax-ns#"
   xmlns:svg="http://www.w3.org/2000/svg"
   xmlns="http://www.w3.org/2000/svg"
   xmlns:sodipodi="http://sodipodi.sourceforge.net/DTD/sodipodi-0.dtd"
   xmlns:inkscape="http://www.inkscape.org/namespaces/inkscape"
   width="186.23489mm"
   height="114.62695mm"
   viewBox="0 0 186.23489 114.62694"
   version="1.1"
   id="svg8"
   inkscape:version="0.92.3 (2405546, 2018-03-11)"
   sodipodi:docname="screws.svg">
  <defs
     id="defs2" />
  <sodipodi:namedview
     id="base"
     pagecolor="#ffffff"
     bordercolor="#666666"
     borderopacity="1.0"
     inkscape:pageopacity="0.0"
     inkscape:pageshadow="2"
     inkscape:zoom="0.49497475"
     inkscape:cx="622.69458"
     inkscape:cy="6.204585"
     inkscape:document-units="mm"
     inkscape:current-layer="layer1"
     showgrid="false"
     inkscape:window-width="1920"
     inkscape:window-height="1017"
     inkscape:window-x="-8"
     inkscape:window-y="-8"
     inkscape:window-maximized="1" />
  <metadata
     id="metadata5">
    <rdf:RDF>
      <cc:Work
         rdf:about="">
        <dc:format>image/svg+xml</dc:format>
        <dc:type
           rdf:resource="http://purl.org/dc/dcmitype/StillImage" />
        <dc:title />
      </cc:Work>
    </rdf:RDF>
  </metadata>
  <g
     inkscape:label="Layer 1"
     inkscape:groupmode="layer"
     id="layer1"
     transform="translate(174.28013,71.834967)">
    <path
       style="fill:#000000;stroke-width:0.26458332"
       d="m -76.281607,42.604973 c -0.30732,-0.1321 -0.82497,-0.57752 -1.15033,-0.98982 -0.49927,-0.6327 -0.57417,-0.99251 -0.48012,-2.30638 0.0942,-1.31562 0.22111,-1.63663 0.8196,-2.07259 0.66429,-0.4839 0.70816,-0.64505 0.70816,-2.60115 0,-2.31054 0.22474,-2.63307 1.83469,-2.63307 1.38178,0 1.86948,0.76658 1.86948,2.93848 0,1.69858 0.0649,1.93124 0.67248,2.40913 0.62274,0.48985 0.66678,0.66679 0.59531,2.39202 -0.0693,1.67372 -0.14999,1.91728 -0.7938,2.39684 -0.79589,0.59283 -3.15369,0.86274 -4.07547,0.46654 z m 3.98331,-0.64695 c 0.52969,-0.34707 0.6765,-0.66204 0.6765,-1.4514 0,-0.55447 -0.0822,-1.09035 -0.1827,-1.19084 -0.10049,-0.10048 -0.18978,-0.5563 -0.19844,-1.01292 -0.019,-1.00179 -0.67719,-1.37583 -0.67719,-0.38483 0,0.39088 -0.24421,0.83956 -0.58804,1.08038 -1.30707,0.91551 -3.11613,0.20048 -3.11613,-1.23163 0,-0.80299 -0.0108,-0.80996 -0.52917,-0.34086 -0.98408,0.89057 -0.45042,1.77144 1.37019,2.26168 0.84995,0.22887 1.33059,0.20939 2.2427,-0.0909 1.34555,-0.44297 1.81021,-0.15007 0.57415,0.36192 -1.28498,0.53226 -3.30988,0.40659 -4.21352,-0.2615 l -0.76727,-0.56726 v 0.81906 c 0,1.13573 0.42596,1.82013 1.4099,2.26531 1.0434,0.47209 3.08734,0.34113 3.99902,-0.25622 z m -1.89815,-3.25045 c -0.17913,-0.0725 -0.53632,-0.0769 -0.79375,-0.01 -0.25743,0.0671 -0.11087,0.12638 0.32569,0.13177 0.43656,0.005 0.64719,-0.0495 0.46806,-0.12197 z m 0.59027,-0.35561 c -0.0899,-0.14552 -0.30532,-0.26276 -0.47863,-0.26054 -0.18934,0.002 -0.15671,0.10643 0.0818,0.26054 0.5083,0.32849 0.59989,0.32849 0.39687,0 z m -1.93325,-0.73262 c -0.17545,-0.0585 -0.23964,-0.24499 -0.14264,-0.41446 0.097,-0.16947 0.0744,-0.21539 -0.0501,-0.10204 -0.42275,0.38473 -0.3585,0.95678 0.0882,0.78537 0.27679,-0.10622 0.31301,-0.19938 0.10455,-0.26887 z m 2.43517,-0.28162 c 0.075,-0.12127 -0.0319,-0.22049 -0.23733,-0.22049 -0.20548,0 -0.31228,0.0992 -0.23733,0.22049 0.075,0.12127 0.18174,0.22049 0.23733,0.22049 0.0556,0 0.16238,-0.0992 0.23733,-0.22049 z m -1.09219,-0.48223 c -0.17913,-0.0725 -0.53632,-0.0769 -0.79375,-0.01 -0.25743,0.0671 -0.11087,0.12638 0.32569,0.13178 0.43656,0.005 0.64719,-0.0495 0.46806,-0.12197 z m 0.59027,-0.35562 c -0.0899,-0.14552 -0.36485,-0.25621 -0.61092,-0.24598 -0.36473,0.0152 -0.34962,0.0606 0.0818,0.24598 0.708,0.30424 0.71719,0.30424 0.52916,0 z m -1.93325,-0.73261 c -0.17545,-0.0585 -0.23964,-0.24499 -0.14264,-0.41446 0.097,-0.16947 0.0744,-0.21539 -0.0501,-0.10204 -0.42275,0.38473 -0.3585,0.95678 0.0882,0.78536 0.27679,-0.10621 0.31301,-0.19937 0.10455,-0.26886 z m 2.43517,-0.28162 c 0.075,-0.12127 -0.0319,-0.22049 -0.23733,-0.22049 -0.20548,0 -0.31228,0.0992 -0.23733,0.22049 0.075,0.12126 0.18174,0.22048 0.23733,0.22048 0.0556,0 0.16238,-0.0992 0.23733,-0.22048 z m -1.09219,-0.48223 c -0.17913,-0.0725 -0.53632,-0.0769 -0.79375,-0.01 -0.25743,0.0671 -0.11087,0.12638 0.32569,0.13177 0.43656,0.005 0.64719,-0.0495 0.46806,-0.12197 z m -0.99022,-0.5691 c -0.0815,-0.0815 -0.29496,-1.7e-4 -0.47444,0.18065 -0.25936,0.26131 -0.22897,0.2917 0.14812,0.14811 0.26093,-0.0994 0.40778,-0.2473 0.32632,-0.32876 z m 1.58049,0.21348 c -0.0899,-0.14552 -0.36485,-0.25621 -0.61092,-0.24599 -0.36473,0.0152 -0.34962,0.0606 0.0818,0.24599 0.708,0.30424 0.71719,0.30424 0.52916,0 z m -0.58781,-0.89688 c 0.86209,-0.0774 0.98469,-0.16994 0.98469,-0.74354 0,-0.24694 -0.0706,-0.24694 -0.3175,0 -0.44972,0.44972 -1.54122,0.39352 -2.09526,-0.10789 -0.4424,-0.40036 -0.46697,-0.37077 -0.41771,0.50307 0.0452,0.80143 0.11672,0.894 0.52286,0.67665 0.25879,-0.13849 0.8541,-0.28622 1.32292,-0.32829 z m 0.45552,-1.08749 c 0,-0.43219 -1.44538,-0.5763 -1.69698,-0.1692 -0.22031,0.35647 0.13045,0.56607 0.94733,0.56607 0.48997,0 0.74965,-0.13748 0.74965,-0.39687 z m -50.958263,-18.09885 c -1.27225,-0.57779 -1.42924,-0.89374 -1.42924,-2.87655 0,-1.25163 0.11192,-1.60204 0.71155,-2.2279295 0.62285,-0.65011 0.71575,-0.97109 0.74518,-2.57468 0.0393,-2.13913 0.3619,-2.6647 1.63577,-2.6647 1.69574,0 1.93459,0.30896 1.93459,2.5025 0,1.81912 0.055,2.00977 0.79375,2.74846 0.70264,0.7026395 0.79375,0.9729995 0.79375,2.3554795 0,1.27795 -0.10818,1.66307 -0.59532,2.1194 -1.27226,1.1918 -2.85682,1.40515 -4.59003,0.61802 z m 4.12701,-0.52194 c 0.48749,-0.35532 0.68286,-0.77092 0.74282,-1.5802 l 0.0814,-1.09808 -0.94982,0.5604 c -1.19571,0.70549 -3.77175,0.6195 -4.62695,-0.15444 -0.53368,-0.48298 -0.53904,-0.47751 -0.53503,0.54533 0.005,1.33494 0.22483,1.64843 1.47761,2.10941 1.23855,0.45575 2.88705,0.29028 3.81,-0.38242 z m -0.50406,-2.42399 c 0.87981,-0.36443 1.17958,-1.07385 0.774,-1.8316895 -0.41326,-0.77217 -0.7991,-0.66489 -0.7991,0.2221995 0,0.96047 -0.59326,1.46114 -1.73136,1.46114 -0.97322,0 -2.01257,-0.75189 -1.95074,-1.41121 0.0713,-0.7607095 -0.019,-0.8786195 -0.41894,-0.5467095 -0.51209,0.425 -0.51308,1.5595295 -0.002,1.7558195 0.21744,0.0835 0.3465,0.23076 0.28679,0.32738 -0.19789,0.32019 3.07609,0.33986 3.84087,0.0231 z m -1.54646,-1.22316 c -0.1819,-0.0734 -0.47955,-0.0734 -0.66146,0 -0.1819,0.0734 -0.0331,0.13345 0.33073,0.13345 0.36381,0 0.51263,-0.06 0.33073,-0.13345 z m -0.98518,-1.0965895 c -0.0815,-0.0815 -0.29496,-1.7e-4 -0.47444,0.18065 -0.25936,0.26131 -0.22897,0.2917 0.14812,0.14812 0.26094,-0.0994 0.40778,-0.24731 0.32632,-0.32877 z m 1.84508,0.21348 c -0.0899,-0.14552 -0.30533,-0.26276 -0.47864,-0.26053 -0.18934,0.002 -0.1567,0.10643 0.0818,0.26053 0.5083,0.32849 0.59989,0.32849 0.39688,0 z m -0.8599,-0.96897 c -0.1819,-0.0734 -0.47955,-0.0734 -0.66146,0 -0.1819,0.0734 -0.0331,0.13345 0.33073,0.13345 0.36381,0 0.51263,-0.0601 0.33073,-0.13345 z m 1.15978,-0.1555 c -0.0815,-0.53698 -0.44035,-0.99249 -0.77852,-0.98814 -0.18815,0.002 -0.15521,0.10514 0.0818,0.25493 0.21828,0.13799 0.41176,0.37429 0.42995,0.52512 0.0527,0.43695 0.092,0.53881 0.2081,0.53881 0.0599,0 0.0863,-0.14882 0.0587,-0.33072 z m -0.76841,-0.3583 c -0.0879,-0.0879 -0.31613,-0.0973 -0.50712,-0.0209 -0.21107,0.0845 -0.14838,0.14716 0.15985,0.15985 0.27891,0.0115 0.43519,-0.051 0.34727,-0.13896 z m -1.37655,-0.58279 c -0.0815,-0.0815 -0.29496,-1.7e-4 -0.47444,0.18065 -0.25936,0.26131 -0.22897,0.2917 0.14812,0.14811 0.26094,-0.0994 0.40778,-0.2473 0.32632,-0.32876 z m 0.98518,-0.7555 c -0.1819,-0.0734 -0.47955,-0.0734 -0.66146,0 -0.1819,0.0734 -0.0331,0.13346 0.33073,0.13346 0.36381,0 0.51263,-0.0601 0.33073,-0.13346 z m 1.13334,-0.42008 c -0.0974,-1.38947 -0.40188,-1.78594 -1.37165,-1.78594 -0.62829,0 -0.89346,0.10736 -0.81689,0.33073 0.0624,0.1819 0.47793,0.33024 0.9235,0.32964 0.44556,-5.3e-4 0.75463,0.0887 0.68681,0.19844 -0.21782,0.35243 -1.22603,0.21311 -1.7249,-0.23836 -0.45023,-0.40745 -0.48385,-0.40745 -0.48385,0 0,0.24084 -0.0298,0.51689 -0.0661,0.61347 -0.0364,0.0966 0.52871,0.18586 1.25576,0.19843 0.84913,0.0147 1.33409,0.14114 1.35599,0.35359 0.0488,0.4734 0.088,0.59531 0.19166,0.59531 0.0503,0 0.0727,-0.26789 0.0497,-0.59531 z m -1.00105,-0.11624 c -0.25466,-0.0665 -0.67138,-0.0665 -0.92604,0 -0.25466,0.0666 -0.0463,0.121 0.46302,0.121 0.50933,0 0.71769,-0.0545 0.46302,-0.121 z M 6.6678529,-5.9089865 c -0.86251,-0.58015 -0.90215,-0.67994 -0.97562,-2.45759 -0.07,-1.6923505 -0.0183,-1.9075905 0.59531,-2.4841305 0.59833,-0.56212 0.67191,-0.83898 0.67191,-2.52849 0,-1.502 0.1008,-1.98846 0.48384,-2.33512 0.60918,-0.5513 1.86463,-0.5637 2.6322901,-0.026 0.51596,0.36139 0.58803,0.64763 0.58803,2.33513 0,1.71735 0.0719,1.99083 0.67191,2.55449 0.61371,0.57654 0.6653,0.79177 0.59532,2.4841205 -0.0735,1.77765 -0.11311,1.87745 -0.97563,2.45759 -0.61963,0.41679 -1.2858201,0.60471 -2.1436801,0.60471 -0.85786,0 -1.52405,-0.18792 -2.14368,-0.6047 z m 4.3978801,-0.30045 c 0.66598,-0.43637 0.69143,-0.53874 0.57536,-2.31479 -0.0802,-1.22735 -0.26672,-2.0035405 -0.54943,-2.2862505 -0.39434,-0.39433 -0.42805,-0.36224 -0.42805,0.40741 0,0.5633805 -0.19147,0.9695605 -0.58803,1.2473205 -1.3152201,0.92121 -3.1161301,0.20034 -3.1161301,-1.2473205 0,-0.77182 -0.0328,-0.80264 -0.43074,-0.40469 -0.51406,0.51404 -0.71885,1.8096305 -0.27268,1.7250905 0.16859,-0.0319 0.28527,0.0652 0.25929,0.21595 -0.0506,0.29368 0.25014,0.3515 2.26499,0.4354 0.82021,0.0342 1.5284701,-0.10133 1.9403001,-0.37117 0.51551,-0.33778 0.64857,-0.35106 0.64857,-0.0647 0,0.95851 -3.1045701,1.34295 -4.6438601,0.57505 l -0.85336,-0.42571 0.0807,1.11147 c 0.0703,0.96826 0.20005,1.17302 1.00677,1.58915 1.11755,0.57645 3.0728701,0.48493 4.1062801,-0.1922 z m -1.9184401,-3.23715 c -0.17913,-0.0725 -0.53631,-0.0769 -0.79375,-0.01 -0.25742,0.0671 -0.11086,0.12638 0.3257,0.13178 0.43656,0.005 0.6472,-0.0495 0.46805,-0.12198 z m -0.99021,-0.5691005 c -0.0815,-0.0815 -0.29495,-1.7e-4 -0.47445,0.1806505 -0.25934,0.26131 -0.22897,0.2917 0.14812,0.14811 0.26093,-0.0994 0.40777,-0.2473 0.32633,-0.3287605 z m 2.1363001,-0.17949 c 0.0305,-0.20771 -0.13472,-0.53169 -0.3671301,-0.71995 -0.3188,-0.25826 -0.37378,-0.26109 -0.22384,-0.0116 0.11814,0.19665 0.0583,0.33399 -0.14766,0.33878 -0.21117,0.005 -0.16344,0.11452 0.12223,0.28084 0.25773,0.15004 0.3874901,0.4143105 0.28832,0.5872705 -0.0991,0.17295 -0.0784,0.22172 0.0462,0.10837 0.12456,-0.11335 0.2514,-0.37604 0.28188,-0.5837605 z m -1.2889101,-0.56063 c -0.0879,-0.0879 -0.31613,-0.0973 -0.50713,-0.0209 -0.21106,0.0845 -0.14838,0.14716 0.15986,0.15985 0.2789,0.0115 0.43519,-0.051 0.34727,-0.13896 z m 0.14282,-0.54287 c -0.17913,-0.0725 -0.53631,-0.0769 -0.79375,-0.01 -0.25742,0.0671 -0.11086,0.12638 0.3257,0.13177 0.43656,0.005 0.6472,-0.0495 0.46805,-0.12197 z m -0.99021,-0.5691 c -0.0815,-0.0815 -0.29495,-1.6e-4 -0.47445,0.18066 -0.25934,0.2613 -0.22897,0.29169 0.14812,0.14811 0.26093,-0.0994 0.40777,-0.2473 0.32633,-0.32877 z m 2.1275701,-0.12002 c 0.0353,-0.24042 -0.12599,-0.59115 -0.3584001,-0.77941 -0.3188,-0.25826 -0.37378,-0.2611 -0.22384,-0.0116 0.11665,0.19417 0.0621,0.33073 -0.13208,0.33073 -0.18611,0 -0.10612,0.17958 0.18283,0.41057 0.4940801,0.39498 0.4884401,0.40437 -0.14788,0.24725 -0.50988,-0.12589 -0.57052,-0.0997 -0.26458,0.11429 0.51006,0.35679 0.8629401,0.24021 0.9439501,-0.31188 z m -1.1373601,-1.16296 c -0.17913,-0.0725 -0.53631,-0.0769 -0.79375,-0.01 -0.25742,0.0671 -0.11086,0.12638 0.3257,0.13177 0.43656,0.005 0.6472,-0.0495 0.46805,-0.12197 z m -0.99021,-0.5691 c -0.0815,-0.0815 -0.29495,-1.7e-4 -0.47445,0.18065 -0.25934,0.26131 -0.22897,0.2917 0.14812,0.14812 0.26093,-0.0994 0.40777,-0.24731 0.32633,-0.32877 z m 1.58049,0.21349 c -0.0899,-0.14553 -0.30533,-0.26276 -0.47863,-0.26054 -0.18933,0.002 -0.15671,0.10643 0.0818,0.26054 0.50829,0.32848 0.59989,0.32848 0.39687,0 z m 0.5145601,-0.72761 c -0.0358,-0.40018 -0.077,-0.84071 -0.0914,-0.97896 -0.0145,-0.13824 -0.1691201,-0.10848 -0.3437401,0.0662 -0.47591,0.4759 -1.73276,0.38635 -2.04256,-0.14552 -0.29141,-0.50032 -0.32266,-0.4747 -0.41291,0.33867 -0.0531,0.47823 0.0883,0.53623 1.29019,0.52916 0.8904,-0.005 1.3611801,0.10463 1.3832201,0.32279 0.0477,0.4723 0.0872,0.59532 0.191,0.59532 0.0503,0 0.0621,-0.32743 0.0262,-0.72761 z m -0.6468501,-1.25677 c 0,-0.26458 -0.26458,-0.39687 -0.79375,-0.39687 -0.52917,0 -0.79375,0.13229 -0.79375,0.39687 0,0.26458 0.26458,0.39688 0.79375,0.39688 0.52917,0 0.79375,-0.1323 0.79375,-0.39688 z m -181.1072929,2.63741 c -0.14552,-0.0427 -0.59503,-0.15056 -0.99892,-0.23975 -1.36807,-0.30211 -1.7792,-1.00456 -1.7792,-3.03991 0,-1.63106 0.0715,-1.88915 0.64965,-2.3439 0.57653,-0.4535 0.65843,-0.74575 0.72761,-2.59622 0.0746,-1.99481 0.11033,-2.10069 0.82506,-2.44239 0.41091,-0.19645 1.02766,-0.28677 1.37056,-0.20071 1.1698,0.2936 1.4542,0.85068 1.4542,2.84848 0,1.67805 0.0662,1.91329 0.67209,2.38992 0.62908,0.49483 0.66718,0.65724 0.59532,2.53777 -0.0735,1.92394 -0.11043,2.02795 -0.87053,2.45366 -0.80383,0.4502 -2.16154,0.77505 -2.64584,0.63305 z m 2.52668,-0.79212 c 0.68362,-0.35351 0.78061,-0.54723 0.78061,-1.55898 v -1.15531 l -0.98198,0.50065 c -0.54009,0.27535 -1.40789,0.50064 -1.92843,0.50064 -0.52055,0 -1.38834,-0.22529 -1.92843,-0.50064 l -0.98199,-0.50065 0.004,0.96367 c 0.005,1.08862 0.16529,1.40903 0.92199,1.83813 0.76645,0.43462 3.20478,0.38276 4.11418,-0.0875 z m -0.5762,-2.53458 c 1.04646,-0.3648 1.48305,-1.094 1.09223,-1.82425 -0.38721,-0.7235 -0.79375,-0.66543 -0.79375,0.11339 0,0.91352 -0.67844,1.47411 -1.784,1.47411 -1.1191,0 -1.92017,-0.6242 -1.92017,-1.49622 0,-0.75143 -0.40954,-0.80917 -0.78349,-0.11045 -0.79921,1.49334 1.8497,2.65897 4.18918,1.84342 z m -1.70899,-1.59729 c 0.76053,-0.20276 0.74804,-0.21005 -0.18127,-0.10574 -0.72018,0.0808 -0.94781,0.0243 -0.81748,-0.20304 0.0994,-0.17328 0.0787,-0.22231 -0.0458,-0.10896 -0.33822,0.30779 -0.38769,1.01585 -0.0567,0.81128 0.15642,-0.0967 0.65199,-0.27377 1.10125,-0.39354 z m 1.08143,-0.49154 c -0.0899,-0.14552 -0.54345,-0.24891 -1.0078,-0.22976 l -0.84428,0.0348 0.92604,0.19493 c 0.50932,0.1072 0.96283,0.21059 1.0078,0.22975 0.045,0.0192 0.008,-0.0842 -0.0818,-0.22975 z m 0.55599,-0.39956 c -0.0323,-0.21975 -0.21778,-0.54717 -0.41228,-0.7276 -0.28661,-0.26588 -0.30943,-0.25283 -0.12043,0.0688 0.12826,0.21828 0.24991,0.48617 0.27033,0.59532 0.0739,0.39489 0.10509,0.46302 0.21215,0.46302 0.0599,0 0.0825,-0.1798 0.0502,-0.39956 z m -2.48925,-0.86222 c -0.17545,-0.0585 -0.23963,-0.245 -0.14264,-0.41447 0.097,-0.16947 0.0745,-0.21539 -0.0501,-0.10203 -0.42275,0.38472 -0.3585,0.95678 0.0882,0.78536 0.27679,-0.10621 0.31301,-0.19938 0.10454,-0.26886 z m 1.33795,-0.23637 c -0.1819,-0.0734 -0.47956,-0.0734 -0.66146,0 -0.1819,0.0734 -0.0331,0.13345 0.33073,0.13345 0.3638,0 0.51263,-0.06 0.33073,-0.13345 z m 0.59531,-0.35394 c -0.0899,-0.14552 -0.54345,-0.24891 -1.0078,-0.22975 l -0.84428,0.0348 0.92604,0.19492 c 0.50932,0.10721 0.96283,0.2106 1.0078,0.22976 0.045,0.0191 0.008,-0.0842 -0.0818,-0.22976 z m 0.56446,-0.33073 c -0.0815,-0.53697 -0.44034,-0.99248 -0.77851,-0.98813 -0.18815,0.002 -0.15521,0.10513 0.0818,0.25493 0.21828,0.13799 0.41176,0.37429 0.42995,0.52512 0.0527,0.43695 0.092,0.53881 0.2081,0.53881 0.0599,0 0.0863,-0.14883 0.0587,-0.33073 z m -2.58538,-1.01477 c -0.49927,-0.30857 0.35966,-0.59688 1.34665,-0.45202 0.46006,0.0675 0.75411,-0.001 0.72436,-0.16889 -0.0275,-0.1554 0.0944,-0.25421 0.27112,-0.21957 0.18342,0.036 0.25752,-0.10299 0.17273,-0.32393 -0.13002,-0.33885 -0.19692,-0.33845 -0.53854,0.003 -0.63613,0.63613 -1.93978,0.40509 -1.93978,-0.34379 0,-0.22696 -0.0893,-0.32339 -0.19843,-0.21429 -0.10914,0.10911 -0.20357,0.65154 -0.20985,1.20542 -0.008,0.74939 0.0818,0.97127 0.35292,0.86723 0.29609,-0.11362 0.29962,-0.17979 0.0188,-0.35333 z m 1.2878,-0.13727 c -0.0879,-0.0879 -0.31612,-0.0973 -0.50711,-0.0209 -0.21107,0.0845 -0.14838,0.14715 0.15985,0.15985 0.27891,0.0115 0.43518,-0.051 0.34726,-0.13897 z m 0.46854,-1.42402 c 0,-0.47102 -0.87273,-0.69194 -1.2486,-0.31607 -0.14648,0.14648 -0.18213,0.40258 -0.0792,0.56911 0.26301,0.42555 1.32782,0.22264 1.32782,-0.25304 z m 129.513673,-10.35504 c -1.41081,-0.56256 -1.85222,-1.26421 -1.85222,-2.94422 0,-1.38248 0.0911,-1.65284 0.79375,-2.35549 0.73542,-0.73542 0.79375,-0.93418 0.79375,-2.70485 0,-2.20164 0.22193,-2.54611 1.64042,-2.54611 1.56147,0 1.98205,0.60279 1.95444,2.80111 -0.0211,1.68263 0.0353,1.87866 0.70462,2.44793 0.64357,0.54736 0.72761,0.80148 0.72761,2.20021 0,1.97796 -0.2428,2.43288 -1.58514,2.96998 -1.20171,0.48083 -2.1977,0.52203 -3.17723,0.13144 z m 2.70292,-0.24336 c 1.36508,-0.37912 1.79486,-0.89757 1.79486,-2.16513 0,-1.07031 -0.005,-1.07586 -0.53908,-0.59258 -0.84921,0.76853 -3.43109,0.86002 -4.61174,0.16343 l -0.93459,-0.55143 v 1.0084 c 0,1.83207 1.92924,2.79311 4.29055,2.13731 z m 0.85062,-2.92842 c -0.0611,-0.0988 0.0669,-0.24796 0.2843,-0.3314 0.47384,-0.18183 0.52303,-1.25773 0.0779,-1.7029 -0.48329,-0.48329 -0.67975,-0.38183 -0.55224,0.2852 0.15762,0.82454 -0.77364,1.6198 -1.89682,1.6198 -1.1352,0 -1.73136,-0.50026 -1.73136,-1.45285 0,-0.54248 -0.10525,-0.71266 -0.37642,-0.6086 -0.89984,0.3453 -0.78598,1.69116 0.18381,2.17258 0.62277,0.30915 4.20073,0.32537 4.01087,0.0182 z m -0.78685,-1.0106 c 0.0837,-0.13547 0.0128,-0.33246 -0.15756,-0.43776 -0.18749,-0.11588 -0.23907,-0.0771 -0.13067,0.0983 0.12164,0.19682 -0.1411,0.25526 -0.81902,0.18217 -0.92255,-0.0995 -0.93802,-0.0906 -0.20437,0.11666 1.11367,0.31467 1.14169,0.31554 1.31162,0.0406 z m -2.09837,-1.2901 c -0.0815,-0.0815 -0.29495,-1.7e-4 -0.47443,0.18065 -0.25936,0.26131 -0.22897,0.2917 0.14812,0.14811 0.26093,-0.0994 0.40778,-0.2473 0.32631,-0.32876 z m 2.13802,-0.44032 c -0.0314,-0.21407 -0.15904,-0.48196 -0.2836,-0.59531 -0.12455,-0.11336 -0.14082,-0.0573 -0.0361,0.12463 0.11089,0.19269 0.0458,0.33242 -0.15601,0.33478 -0.25167,0.003 -0.23786,0.0742 0.0505,0.26053 0.50735,0.32788 0.49228,0.3323 0.42522,-0.12463 z m -1.15283,-0.31518 c -0.1819,-0.0734 -0.47956,-0.0734 -0.66146,0 -0.1819,0.0734 -0.0331,0.13346 0.33073,0.13346 0.3638,0 0.51263,-0.0601 0.33073,-0.13346 z m -0.98519,-1.09659 c -0.0815,-0.0815 -0.29495,-1.7e-4 -0.47443,0.18065 -0.25936,0.26131 -0.22897,0.2917 0.14812,0.14812 0.26093,-0.0994 0.40778,-0.2473 0.32631,-0.32877 z m 2.13802,-0.44031 c -0.0314,-0.21407 -0.15904,-0.48196 -0.2836,-0.59532 -0.12455,-0.11335 -0.14082,-0.0573 -0.0361,0.12464 0.11089,0.19268 0.0458,0.33242 -0.15601,0.33478 -0.25167,0.003 -0.23786,0.0742 0.0505,0.26053 0.50735,0.32788 0.49228,0.3323 0.42522,-0.12463 z m -1.15283,-0.31518 c -0.1819,-0.0734 -0.47956,-0.0734 -0.66146,0 -0.1819,0.0734 -0.0331,0.13345 0.33073,0.13345 0.3638,0 0.51263,-0.0601 0.33073,-0.13345 z m -0.40238,-0.51379 c -0.0879,-0.0879 -0.31613,-0.0973 -0.50712,-0.0209 -0.21107,0.0845 -0.14838,0.14716 0.15985,0.15985 0.27891,0.0115 0.43518,-0.051 0.34727,-0.13896 z m 1.63593,-0.48725 c 0.50897,-0.31457 0.0356,-0.70104 -0.50461,-0.41195 -0.71777,0.38414 -1.34688,0.32683 -1.8992,-0.173 -0.45708,-0.41366 -0.48136,-0.4025 -0.43182,0.19843 0.0478,0.58017 0.16297,0.63377 1.29584,0.60324 0.68384,-0.0185 1.37675,-0.11596 1.53979,-0.21672 z m -0.57045,-0.87425 c 0.0733,-0.22326 -0.19949,-0.33073 -0.83949,-0.33073 -0.90446,0 -1.16944,0.21961 -0.75955,0.6295 0.29253,0.29254 1.47759,0.0711 1.59904,-0.29877 z m -50.15747,-17.78785 c -0.48245,-0.11561 -1.16706,-0.48253 -1.52135,-0.81537 -0.55183,-0.51841 -0.64417,-0.84691 -0.64417,-2.29147 0,-1.45887 0.0892,-1.76899 0.66145,-2.29933 0.58321,-0.54049 0.66146,-0.83039 0.66146,-2.45034 0,-2.29758 0.34878,-2.85247 1.79294,-2.85247 1.62411,0 1.91123,0.39748 1.91123,2.64585 0,1.79347 0.0568,1.9884 0.79375,2.72538 0.67615,0.67615 0.79375,0.99534 0.79375,2.15441 0,0.74836 -0.12259,1.58973 -0.27243,1.8697 -0.54849,1.02487 -2.63852,1.68223 -4.17663,1.31364 z m 3.10722,-0.65705 c 0.86232,-0.44593 1.07726,-0.87829 1.07726,-2.167 0,-0.85918 -0.0304,-0.89289 -0.43794,-0.48536 -1.03217,1.03217 -3.10166,1.21942 -4.66549,0.42213 l -0.98199,-0.50064 v 1.01061 c 0,1.4294 0.90944,2.10734 2.82695,2.10734 0.78796,0 1.76951,-0.17419 2.18121,-0.38708 z m -0.11946,-2.48533 c -0.057,-0.057 0.15485,-0.31305 0.47085,-0.56893 0.50246,-0.40687 0.53496,-0.55213 0.259,-1.15778 -0.42139,-0.92486 -0.85605,-0.8782 -0.85605,0.0919 0,0.90942 -0.59665,1.33222 -1.88,1.33222 -1.04576,0 -1.82417,-0.65228 -1.82417,-1.52861 0,-0.55031 -0.0623,-0.60111 -0.39687,-0.32347 -0.71549,0.5938 -0.48818,1.57261 0.46302,1.99385 0.73643,0.32613 4.07204,0.46864 3.76422,0.16082 z m -3.17016,-2.15669 c -0.0782,-0.12652 0.0687,-0.3528 0.32642,-0.50284 0.25772,-0.15004 0.32678,-0.27642 0.15347,-0.28084 -0.33789,-0.009 -0.69681,0.44557 -0.7787,0.9854 -0.0277,0.18259 0.0602,0.26366 0.19531,0.18015 0.13512,-0.0835 0.1817,-0.25535 0.1035,-0.38187 z m 1.52261,0.35596 c -0.18191,-0.0734 -0.47956,-0.0734 -0.66146,0 -0.1819,0.0734 -0.0331,0.13345 0.33073,0.13345 0.3638,0 0.51263,-0.06 0.33073,-0.13345 z m 1.15977,-0.1555 c -0.0815,-0.53697 -0.44035,-0.99248 -0.77852,-0.98814 -0.18814,0.002 -0.1552,0.10514 0.0818,0.25494 0.21828,0.13798 0.41175,0.37428 0.42994,0.52511 0.0527,0.43696 0.092,0.53882 0.2081,0.53882 0.0599,0 0.0863,-0.14883 0.0587,-0.33073 z m -0.76841,-0.35829 c -0.0879,-0.0879 -0.31612,-0.0973 -0.50712,-0.0209 -0.21107,0.0845 -0.14837,0.14716 0.15985,0.15985 0.27892,0.0115 0.43519,-0.051 0.34727,-0.13896 z m -1.91397,-1.69425 c -0.0782,-0.12652 0.0687,-0.3528 0.32642,-0.50284 0.25772,-0.15004 0.32678,-0.27642 0.15347,-0.28085 -0.33789,-0.009 -0.69681,0.44558 -0.7787,0.98541 -0.0277,0.18259 0.0602,0.26366 0.19531,0.18015 0.13512,-0.0835 0.1817,-0.25535 0.1035,-0.38187 z m 1.52261,0.35596 c -0.18191,-0.0734 -0.47956,-0.0734 -0.66146,0 -0.1819,0.0734 -0.0331,0.13345 0.33073,0.13345 0.3638,0 0.51263,-0.0601 0.33073,-0.13345 z m 1.15977,-0.1555 c -0.0799,-0.52673 -0.43782,-0.99219 -0.76294,-0.99219 -0.16474,0 -0.0684,0.17035 0.21405,0.37856 0.46775,0.34478 0.40732,0.36918 -0.67703,0.27335 -1.16298,-0.10279 -1.16752,-0.10025 -0.19552,0.10942 0.54732,0.11806 1.07317,0.29271 1.16858,0.38812 0.25152,0.25152 0.30941,0.21552 0.25286,-0.15726 z m -1.68478,-2.05053 c 0.41703,0 0.96869,0.11264 1.22591,0.2503 0.33988,0.1819 0.46767,0.15264 0.46767,-0.10707 0,-0.21556 -0.16622,-0.29522 -0.41892,-0.20075 -0.3522,0.13166 -0.3648,0.09 -0.0791,-0.26178 0.28088,-0.34578 0.26368,-0.49456 -0.0991,-0.85737 -0.52284,-0.52284 -1.56365,-0.44407 -1.56365,0.11834 0,0.28407 0.25748,0.38437 0.90584,0.35287 0.62791,-0.0305 0.79027,0.0291 0.52916,0.19438 -0.5656,0.35797 -1.1977,0.29496 -1.5726,-0.15677 -0.40943,-0.49333 -0.62608,-0.31268 -0.67275,0.56098 -0.0246,0.46127 0.0486,0.57757 0.24199,0.3842 0.15252,-0.15253 0.61852,-0.27733 1.03554,-0.27733 z m 0.52501,0.35394 c -0.18191,-0.0734 -0.47956,-0.0734 -0.66146,0 -0.1819,0.0734 -0.0331,0.13346 0.33073,0.13346 0.3638,0 0.51263,-0.0601 0.33073,-0.13346 z"
       id="path47"
       inkscape:connector-curvature="0" />
  </g>
</svg>
