<?xml version="1.0" encoding="UTF-8" standalone="no"?>
<svg
   xmlns:dc="http://purl.org/dc/elements/1.1/"
   xmlns:cc="http://creativecommons.org/ns#"
   xmlns:rdf="http://www.w3.org/1999/02/22-rdf-syntax-ns#"
   xmlns:svg="http://www.w3.org/2000/svg"
   xmlns="http://www.w3.org/2000/svg"
   xmlns:sodipodi="http://sodipodi.sourceforge.net/DTD/sodipodi-0.dtd"
   xmlns:inkscape="http://www.inkscape.org/namespaces/inkscape"
   id="svg8"
   version="1.1"
   viewBox="0 0 220.93599 138.86401"
   height="138.86401mm"
   width="220.93599mm"
   sodipodi:docname="top.svg"
   inkscape:version="0.92.3 (2405546, 2018-03-11)">
  <sodipodi:namedview
     pagecolor="#ffffff"
     bordercolor="#666666"
     borderopacity="1"
     objecttolerance="10"
     gridtolerance="10"
     guidetolerance="10"
     inkscape:pageopacity="0"
     inkscape:pageshadow="2"
     inkscape:window-width="640"
     inkscape:window-height="480"
     id="namedview8"
     showgrid="false"
     inkscape:zoom="0.13294765"
     inkscape:cx="447.59504"
     inkscape:cy="-121.66978"
     inkscape:window-x="0"
     inkscape:window-y="0"
     inkscape:window-maximized="0"
     inkscape:current-layer="svg8" />
  <defs
     id="defs2" />
  <metadata
     id="metadata5">
    <rdf:RDF>
      <cc:Work
         rdf:about="">
        <dc:format>image/svg+xml</dc:format>
        <dc:type
           rdf:resource="http://purl.org/dc/dcmitype/StillImage" />
        <dc:title />
      </cc:Work>
    </rdf:RDF>
  </metadata>
  <path
     inkscape:connector-curvature="0"
     style="fill:#000000;stroke-width:0.26458332"
     d="M 60.06673,104.25673 0.1386,69.649511 0.0693,59.757881 0,49.866251 1.18248,49.220292 c 0.6955,-0.379934 1.21436,-0.864177 1.2599,-1.175835 0.0584,-0.399796 10.17778,-6.361734 41.22011,-24.285268 L 84.8052,0.0038 88.70223,0.0019 92.59926,0 155.96903,36.578644 c 47.06599,27.167691 63.37068,36.700937 63.37327,37.053967 0.003,0.26143 0.35997,0.67815 0.7956,0.92604 l 0.79209,0.45072 0.003,7.18831 0.003,7.18832 -0.8966,0.55412 -0.89659,0.55412 -6.4426,-3.70754 -6.44068,-3.70754 h -3.81748 -3.81752 l -2.86607,-1.65365 -2.86607,-1.65364 -0.0143,-2.24896 -0.0143,-2.24896 -17.35032,-9.988017 -17.35033,-9.98802 h -3.81031 -3.81031 l -2.90126,-1.653646 -2.90125,-1.653646 -0.0114,-2.248958 -0.0114,-2.248958 -17.33822,-9.98802 -17.33823,-9.988021 -3.8862,-0.01 -3.8862,-0.01 -1.7198,-1.030137 c -1.7115,-1.02517 -1.72361,-1.027919 -2.51354,-0.570249 -0.43656,0.252937 -14.98907,8.654688 -32.33891,18.670555 -17.34984,10.015868 -31.49276,18.29545 -31.42872,18.399072 0.064,0.103624 21.13693,12.321265 46.82864,27.150325 l 46.71221,26.961889 -0.0699,3.56905 -0.0699,3.56903 -1.64658,0.92888 c -0.98498,0.55566 -1.64942,1.10775 -1.65365,1.37407 -0.004,0.24485 -0.24519,0.52077 -0.53623,0.61314 -0.49944,0.15852 -0.52926,0.40109 -0.53084,4.31731 l -0.002,4.14936 -0.77221,0.43931 c -0.50875,0.28943 -0.80156,0.69124 -0.85823,1.17769 -0.0572,0.49089 -0.35205,0.89082 -0.87975,1.19321 l -0.79375,0.45484 z m 59.53124,27.27699 v -6.8433 L 60.08387,90.329771 C 27.35111,71.431411 0.60769,55.931194 0.65404,55.884836 0.70044,55.838476 27.333,71.155671 59.8376,89.923041 c 32.5046,18.767369 59.23611,34.162149 59.40336,34.210629 0.16726,0.0485 0.32211,-0.0117 0.34412,-0.13379 0.0404,-0.2241 -118.37248,-68.70203 -118.8004,-68.70203 -0.12688,0 -0.26667,-1.220391 -0.31064,-2.711979 -0.044,-1.491589 -0.10824,1.694905 -0.14281,7.081099 l -0.0629,9.793081 59.59865,34.437489 c 32.77926,18.94062 59.62842,34.44694 59.6648,34.45848 0.0364,0.0115 0.0661,-3.05849 0.0661,-6.8223 z m 0.79375,-0.0515 c 0,-4.22292 -0.0953,-6.59897 -0.26458,-6.59897 -0.16949,0 -0.26458,2.43056 -0.26458,6.76249 0,4.44095 0.0908,6.70636 0.26458,6.59897 0.16495,-0.10194 0.26458,-2.64858 0.26458,-6.76249 z m 1.00528,5.66695 c 0.0548,-0.54654 0.31995,-0.9324 0.85989,-1.25135 l 0.78067,-0.46115 v -4.07677 c 0,-3.80599 0.0351,-4.09559 0.52916,-4.35998 0.29105,-0.15576 0.52917,-0.44736 0.52917,-0.648 0,-0.20063 0.77391,-0.79758 1.71979,-1.32655 l 1.71979,-0.96176 -0.004,-3.09591 c -0.002,-1.70275 -0.10958,-3.26257 -0.23856,-3.46627 -0.18781,-0.29663 -0.76412,-0.064 -2.89479,1.16846 -1.46316,0.84636 -2.59555,1.64359 -2.51642,1.77163 0.0791,0.12803 0.81806,-0.14504 1.64207,-0.60682 3.07796,-1.7249 3.86804,-2.13389 3.45513,-1.78859 -0.23338,0.19517 -1.39232,0.89063 -2.57544,1.54548 l -2.15111,1.19062 -0.004,1.40137 c -0.004,1.27769 -0.0742,1.44115 -0.79633,1.85208 l -0.79207,0.45072 -0.002,6.83507 c -0.001,5.35016 0.0702,6.81148 0.32906,6.7265 0.1819,-0.0597 0.36638,-0.46417 0.40996,-0.89878 z m -0.46052,-13.03047 c 0.46967,-0.28562 0.70247,-0.57391 0.54303,-0.67245 -0.30901,-0.19098 -1.61695,0.56797 -1.61695,0.93827 0,0.33388 0.14806,0.29723 1.07392,-0.26582 z m 0.1167,-2.12505 v -1.10526 L 61.96078,86.770201 C 29.45997,68.005202 2.81973,52.652017 2.76027,52.652017 c -0.0595,0 -0.10419,0.446484 -0.0994,0.992187 l 0.009,0.992188 59.12132,34.1135 c 32.51672,18.762418 59.08346,34.151348 59.03719,34.197618 -0.0463,0.0463 -26.68457,-15.27374 -59.19622,-34.044458 L 2.52001,54.774472 2.44521,51.861161 C 2.40401,50.258839 2.28173,48.94785 2.17335,48.94785 c -0.10837,0 -0.46166,0.185346 -0.78508,0.411877 -0.53901,0.377534 -0.58804,0.626086 -0.58804,2.980783 v 2.568905 l 59.59739,34.426726 c 53.39902,30.846189 59.65244,34.392189 60.12657,34.094749 0.39174,-0.24575 0.52916,-0.61901 0.52916,-1.43723 z m 0.92604,0.24377 c 0,-0.58208 -0.11906,-1.05833 -0.26458,-1.05833 -0.14552,0 -0.26458,0.47625 -0.26458,1.05833 0,0.58208 0.11906,1.05833 0.26458,1.05833 0.14552,0 0.26458,-0.47625 0.26458,-1.05833 z m -0.2413,-1.69174 C 121.56956,120.34282 94.7704,104.78399 62.18421,85.970501 L 2.93661,51.76415 l -0.0933,-2.003468 -0.0933,-2.003467 -0.015,2.27253 -0.015,2.272528 59.03431,34.085088 c 32.46885,18.746809 59.18312,34.085339 59.36502,34.085629 0.1819,2.7e-4 0.33073,0.0998 0.33073,0.22103 0,0.12126 0.13364,0.22048 0.29698,0.22048 0.21522,0 0.21271,-0.10153 -0.009,-0.36882 z m 3.48245,-2.60919 c 0.83674,-0.46656 1.52135,-0.92595 1.52135,-1.02085 0,-0.0949 -22.11585,-12.93693 -49.14635,-28.537829 -27.03049,-15.6009 -49.29955,-28.511972 -49.4868,-28.691272 -0.18725,-0.1793 -0.2746,-0.497612 -0.19411,-0.707361 0.0805,-0.209746 14.57567,-8.714089 32.21151,-18.898536 48.56933,-28.048088 44.67315,-25.851172 45.58138,-25.701651 0.43656,0.07187 24.54672,13.848475 53.57812,30.614675 29.03141,16.766204 53.03412,30.597825 53.33939,30.736945 0.44845,0.20437 1.02074,-0.0119 2.98088,-1.12635 1.33424,-0.75861 2.48147,-1.46923 2.54942,-1.57915 0.0679,-0.10993 -28.15447,-16.526034 -62.71644,-36.480236 L 92.59877,0.264509 88.70202,0.266409 84.80527,0.268309 44.05943,23.796204 3.3136,47.3241 v 2.196131 2.196132 l 59.13438,34.159769 59.13437,34.159758 1.05833,-0.62554 c 0.58209,-0.34404 1.74295,-1.00727 2.57969,-1.47383 z M 24.14769,57.405587 C 23.06628,56.971022 9.67474,49.172799 9.16382,48.680113 8.88894,48.415043 8.72755,48.039425 8.80518,47.845406 8.91803,47.563376 36.74,31.386206 65.72284,14.750456 c 2.9032,-1.666398 4.77099,-2.579688 5.27576,-2.579688 0.87078,0 16.01211,8.574576 16.25388,9.204612 0.0763,0.198781 -0.0264,0.519652 -0.22822,0.713047 -0.46304,0.443752 -59.86066,34.739659 -61.01414,35.229278 -0.97038,0.411898 -1.04711,0.415518 -1.86243,0.08788 z M 48.82193,43.990011 C 61.33673,36.769397 73.74366,29.610754 76.39289,28.081918 l 4.81679,-2.779705 -2.43554,-1.406092 c -1.33955,-0.77335 -2.60313,-1.343214 -2.80796,-1.266362 -0.32119,0.120508 -49.12144,28.234413 -54.07416,31.152208 -2.0502,1.207839 -2.10818,1.049716 0.98622,2.689969 1.32716,0.703487 2.02532,0.928542 2.51354,0.810252 0.37179,-0.09008 10.91536,-6.07156 23.43015,-13.292177 z m -0.92604,-5.489839 c 14.91589,-8.609571 27.34236,-15.776518 27.61439,-15.926547 0.4271,-0.235552 0.16498,-0.461407 -1.92062,-1.654903 -1.92448,-1.101297 -2.53975,-1.337487 -3.02812,-1.162435 -0.89113,0.319411 -55.47398,31.878216 -55.47398,32.074034 0,0.0907 1.0418,0.775838 2.3151,1.522513 1.9109,1.120561 2.4075,1.309013 2.84427,1.07935 0.29105,-0.153033 12.73308,-7.322439 27.64896,-15.932012 z M 42.37453,35.650271 69.9886,19.70686 70.0634,16.575353 C 70.1045,14.853024 70.037,13.484826 69.91331,13.534912 68.4592,14.123829 9.79593,48.315419 9.79593,48.574018 c 0,0.345286 4.06959,2.962926 4.66509,3.000679 0.16471,0.01045 12.7258,-7.15555 27.91355,-15.924426 z M 9.53131,48.169716 c 0,-0.136933 -0.11906,-0.322554 -0.26458,-0.412491 -0.14552,-0.08994 -0.26459,0.02209 -0.26459,0.248968 0,0.226869 0.11907,0.412491 0.26459,0.412491 0.14552,0 0.26458,-0.112036 0.26458,-0.248968 z M 39.78798,30.65779 C 55.96176,21.328555 69.36636,13.533898 69.57598,13.336331 69.7856,13.138764 69.89815,12.91817 69.82611,12.846123 69.6394,12.65942 9.68484,47.304886 9.56135,47.670839 c -0.0644,0.190889 0.0683,0.237545 0.35875,0.126098 0.25355,-0.0973 13.6941,-7.809913 29.86788,-17.139147 z m 43.95895,-6.798864 c 3.39399,-2.016227 4.46414,-1.033423 -10.50002,-9.642989 l -1.27394,-0.732956 v 3.120971 3.12097 l 4.69636,2.702312 c 2.58299,1.486271 4.75588,2.699342 4.82864,2.695713 0.0728,-0.0036 1.0848,-0.572438 2.24896,-1.264021 z m 3.30729,-2.276513 c 0,-0.299943 -14.43331,-8.82858 -14.69631,-8.68404 -0.0662,0.03638 -0.13351,0.148449 -0.1496,0.249042 -0.047,0.294141 13.88514,8.254707 14.15503,8.087902 0.13563,-0.08382 0.18076,0.09449 0.10105,0.399282 -0.1036,0.396172 -0.041,0.511227 0.22291,0.409941 0.20181,-0.07744 0.36692,-0.285399 0.36692,-0.462127 z M 71.70839,16.337956 v -3.108854 h -0.66146 -0.66145 v 3.108854 3.108854 h 0.66145 0.66146 z m 0.26458,-3.638021 c 0,-0.145521 -0.41671,-0.264583 -0.92604,-0.264583 -0.50932,0 -0.92604,0.119062 -0.92604,0.264583 0,0.145521 0.41672,0.264583 0.92604,0.264583 0.50933,0 0.92604,-0.119062 0.92604,-0.264583 z m 147.37292,76.808536 c 0,-0.55562 -0.0706,-0.64382 -0.3175,-0.396869 -0.17463,0.174619 -0.4355,0.3175 -0.57973,0.3175 -0.29437,0 0.65286,-0.772171 0.96337,-0.785341 0.10915,-0.005 0.19844,0.29025 0.19844,0.655291 0,0.59747 0.0528,0.630719 0.52917,0.33323 0.50689,-0.316551 0.52901,-0.614721 0.52512,-7.079851 -0.003,-3.71216 -0.10928,-6.91555 -0.23789,-7.118659 -0.30279,-0.478191 -1.08098,-0.180221 -1.08098,0.4139 0,0.356299 0.0706,0.387539 0.3175,0.140589 0.17462,-0.174619 0.4355,-0.3175 0.57973,-0.3175 0.29437,0 -0.65286,0.77217 -0.96338,0.785341 -0.10914,0.005 -0.19843,-0.517631 -0.19843,-1.160571 0,-1.26894 -0.19717,-2.00602 -0.53661,-2.00602 -0.43232,0 -4.90061,2.686471 -5.35037,3.216821 -0.38439,0.45326 -0.46302,1.080149 -0.46302,3.691659 0,2.0372 0.0987,3.145691 0.28014,3.145691 0.1861,0 0.2527,-1.065881 0.19843,-3.1755 -0.0449,-1.746521 0.0146,-3.17527 0.13235,-3.175 0.11774,2.7e-4 0.15274,-0.0987 0.0778,-0.219981 -0.075,-0.121269 0.007,-0.22237 0.18282,-0.22467 0.1755,-0.002 1.35308,-0.617459 2.61686,-1.36702 1.26379,-0.74955 2.39488,-1.36066 2.51355,-1.358 0.11866,0.003 -1.00463,0.7231 -2.49621,1.601 l -2.71198,1.59617 v 3.02921 c 0,1.666061 0.0893,3.026521 0.19843,3.02323 0.10914,-0.003 0.85106,-0.412229 1.6487,-0.90877 0.81275,-0.505929 1.5199,-0.790129 1.60867,-0.64652 0.0871,0.140951 0.35721,0.17997 0.60023,0.0867 0.4005,-0.15368 0.44188,0.19665 0.44188,3.74052 0,3.26707 0.072,3.98965 0.43789,4.39393 0.61108,0.67524 0.88503,0.60389 0.88503,-0.23052 z m -1.5875,-3.92514 c 0,-3.57697 -0.0324,-3.82912 -0.46302,-3.60763 -0.25466,0.13098 -0.61055,0.18521 -0.79084,0.12052 -0.18031,-0.0647 -0.96872,0.24906 -1.75199,0.69722 -0.7833,0.44815 -1.54305,0.81482 -1.68836,0.81482 -0.14528,0 -1.6786,-0.822589 -3.40736,-1.82798 l -3.14322,-1.827979 -0.0812,1.492239 c -0.0446,0.82074 0.0148,1.5264 0.1323,1.568151 0.11739,0.0417 2.65424,1.496779 5.63742,3.233419 2.98318,1.736641 5.45372,3.163261 5.4901,3.17026 0.0364,0.007 0.0661,-1.717869 0.0661,-3.83304 z m -5.15215,-9.539559 c -0.004,-0.0131 -23.70066,-13.692115 -52.65931,-30.397747 -28.95864,-16.70563 -52.80091,-30.49095 -52.98281,-30.634044 -0.23269,-0.183051 -0.33073,-0.144493 -0.33073,0.130076 0,0.240819 20.25267,12.081309 52.89166,30.922499 29.09041,16.792738 52.85359,30.571646 52.80708,30.619796 -0.0636,0.0658 -82.51294,-47.431693 -102.86259,-59.257248 l -3.11698,-1.811331 0.0743,3.170335 0.0743,3.170336 52.91667,30.551989 52.91666,30.551989 0.13952,-3.49639 c 0.0768,-1.92301 0.13628,-3.50713 0.13229,-3.52026 z m -13.89785,3.088229 v -3.682519 l -2.77813,-1.594061 -2.77812,-1.59405 v 3.68307 3.68307 l 2.71198,1.59089 c 1.49159,0.87499 2.74174,1.592061 2.77812,1.593501 0.0364,9.99e-4 0.0662,-1.654521 0.0662,-3.679901 z m 7.40833,2.12293 v -1.55959 l -2.71198,-1.533329 c -1.49158,-0.843331 -3.09893,-1.76062 -3.57187,-2.03842 l -0.8599,-0.50509 v 3.598 3.598009 h 3.57188 3.57187 z m 13.61475,-6.359629 c 0.0837,-0.13547 0.0312,-0.32109 -0.11668,-0.412491 -0.14791,-0.0914 -0.2689,0.0194 -0.2689,0.246301 0,0.464749 0.15878,0.53318 0.38558,0.16619 z m -26.84391,-1.412861 v -1.39458 l -15.79581,-9.122609 c -8.6877,-5.017436 -16.49255,-9.519983 -17.34411,-10.005657 l -1.54829,-0.88305 0.08,1.535663 0.08,1.535663 17.06563,9.859888 c 9.38609,5.422942 17.15492,9.861993 17.26406,9.864573 0.10914,0.003 0.19844,-0.622881 0.19844,-1.389891 z M 69.29142,42.23045 104.51672,21.887007 v -3.12013 -3.120131 l -5.12269,2.958366 C 96.57655,20.232212 79.61048,30.016914 61.69165,40.348892 34.6699,55.929601 29.12311,59.222848 29.17736,59.65332 c 0.0675,0.535802 4.01695,3.098501 4.59374,2.98078 0.16225,-0.03312 16.14639,-9.214757 35.52032,-20.40365 z M 28.77975,59.4879 C 28.74335,59.318572 45.67959,49.378097 66.4158,37.397952 98.76349,18.709391 106.2966,14.240036 103.89557,15.161398 c -0.92214,0.353859 -74.9492,43.158872 -75.44655,43.625809 -0.45672,0.428789 -0.47483,0.531293 -0.13229,0.748635 0.51089,0.324165 0.54227,0.320916 0.46302,-0.04794 z m 129.18281,-6.009187 v -1.554554 l -3.70417,-2.136206 -3.70417,-2.136207 v 3.690761 3.69076 h 3.70417 3.70417 z m -7.67319,-2.34805 -2.6e-4,-3.638021 -1.25651,-0.719479 c -0.69107,-0.395713 -1.88487,-1.084612 -2.65288,-1.530887 l -1.39639,-0.811411 0.0735,3.743928 0.0735,3.743926 2.38125,1.40295 c 1.30969,0.771626 2.47054,1.412867 2.57969,1.424982 0.10914,0.01212 0.19831,-1.615077 0.19816,-3.615988 z m -5.55598,-5.434383 v -1.399487 l -16.47031,-9.504502 c -9.05867,-5.227479 -16.86367,-9.732936 -17.34444,-10.01213 l -0.87413,-0.507625 0.0804,1.537905 0.0804,1.537904 17.06562,9.864177 c 9.38609,5.425299 17.15492,9.868471 17.26406,9.873712 0.10914,0.0052 0.19844,-0.620236 0.19844,-1.389954 z m -34.925,-20.008892 v -1.564626 l -1.87532,-1.081205 c -1.03143,-0.594663 -2.14753,-1.081206 -2.48022,-1.081206 -0.33269,0 -1.15567,0.307836 -1.82884,0.684079 l -1.22395,0.684079 v 1.961753 1.961756 h 3.70416 3.70417 z m -7.67292,-0.425098 v -1.725143 l -1.28335,0.732956 c -0.70585,0.403126 -1.33093,0.844172 -1.38907,0.980101 -0.0949,0.221771 1.98573,1.665261 2.47399,1.716434 0.10914,0.01143 0.19843,-0.755517 0.19843,-1.704348 z m 4.00844,-6.741522 c 0.0218,-1.74625 0.0516,-3.323828 0.0661,-3.505729 0.0158,-0.196967 -0.29457,-0.330729 -0.76729,-0.330729 -0.47273,0 -0.78305,0.133762 -0.7673,0.330729 0.0146,0.181901 0.0443,1.759479 0.0662,3.505729 l 0.0397,3.175 h 0.66146 0.66145 z m -1.02684,-3.358354 c 0.25743,-0.06708 0.61462,-0.06267 0.79375,0.0098 0.17913,0.07248 -0.0315,0.127362 -0.46805,0.12197 -0.43657,-0.0054 -0.58313,-0.06469 -0.3257,-0.131774 z"
     id="path34" />
</svg>
