<?xml version="1.0" standalone="no"?>
<!DOCTYPE svg PUBLIC "-//W3C//DTD SVG 20010904//EN"
 "http://www.w3.org/TR/2001/REC-SVG-20010904/DTD/svg10.dtd">
<svg version="1.0" xmlns="http://www.w3.org/2000/svg"
 width="284.000000pt" height="284.000000pt" viewBox="0 0 284.000000 284.000000"
 preserveAspectRatio="xMidYMid meet">
<metadata>
Created by potrace 1.11, written by Peter Selinger 2001-2013
</metadata>
<g transform="translate(0.000000,284.000000) scale(0.100000,-0.100000)"
fill="#000000" stroke="none">
<path d="M0 2824 c0 -14 3 -14 15 -4 8 7 15 14 15 16 0 2 -7 4 -15 4 -8 0 -15
-7 -15 -16z"/>
<path d="M90 2831 c0 -6 5 -13 10 -16 18 -11 10 -25 -14 -25 -17 0 -31 -11
-46 -35 -12 -19 -23 -35 -25 -35 -2 0 -1 16 2 35 4 23 2 35 -6 35 -8 0 -11
-73 -11 -261 l0 -260 21 6 c23 8 20 -3 -9 -37 -13 -16 -13 -20 2 -43 14 -22
15 -25 1 -25 -22 0 -22 -208 0 -250 9 -17 17 -30 18 -30 1 0 17 4 35 9 38 11
40 6 10 -26 -22 -24 -22 -25 -5 -55 l17 -30 -27 7 c-61 16 -58 24 -61 -157 -1
-93 1 -168 5 -168 17 0 30 17 39 50 l10 35 18 -33 c13 -25 22 -32 37 -28 10 4
29 9 42 12 l22 6 -21 -23 c-34 -38 -36 -47 -18 -74 21 -32 15 -38 -24 -24 -28
9 -35 8 -68 -17 l-36 -28 7 42 c4 28 3 42 -4 42 -8 0 -11 -67 -11 -215 0 -185
2 -215 15 -215 59 0 390 96 462 134 l28 14 -34 19 c-18 10 -54 35 -79 56 -26
20 -53 37 -62 37 -8 0 -27 -14 -43 -32 l-27 -33 6 41 c6 41 6 42 -32 54 l-39
13 43 15 c41 13 44 16 39 46 -2 17 -14 57 -26 88 -13 37 -21 81 -21 123 0 65
-6 75 -28 53 -8 -8 -10 -3 -5 25 4 29 2 38 -11 42 -9 3 -24 7 -33 10 -27 9 29
34 61 28 15 -3 26 -1 26 6 0 6 -18 11 -44 11 -43 0 -44 0 -55 44 -6 25 -11 56
-11 69 0 33 35 62 71 59 16 -2 29 1 29 7 0 6 -11 11 -25 11 -20 0 -25 6 -31
35 -3 20 -4 50 0 68 l6 32 -26 -30 -26 -30 4 33 c4 29 2 33 -26 40 l-31 9 31
16 c33 17 44 34 44 70 l0 22 18 -23 c11 -14 24 -21 34 -17 16 6 19 12 64 110
14 33 45 77 67 98 40 37 40 37 14 37 -20 0 -31 -9 -46 -37 l-20 -38 -1 34 c0
30 -2 33 -26 28 l-26 -5 31 32 c22 23 31 42 31 66 0 33 0 33 20 15 20 -18 21
-18 45 5 27 26 34 16 10 -16 -21 -27 -18 -47 9 -73 18 -17 33 -21 57 -18 l34
4 -32 1 c-18 1 -33 6 -33 12 0 5 14 32 31 59 16 28 46 86 65 131 34 77 35 83
19 106 -22 34 -40 30 -70 -13 l-25 -38 0 33 c0 28 -3 32 -27 32 l-28 1 33 28
c21 18 32 36 32 54 0 27 0 27 -75 27 -77 0 -84 -4 -65 -40 9 -16 6 -21 -15
-26 -16 -4 -34 -21 -45 -43 l-20 -36 2 30 c3 27 0 30 -22 27 l-25 -4 28 29
c46 49 38 63 -38 63 -36 0 -65 -4 -65 -9z m33 -311 c6 0 19 7 29 17 22 20 24
5 2 -25 -14 -21 -14 -25 0 -47 16 -25 16 -25 -14 -25 -23 0 -33 -7 -45 -30
-20 -38 -28 -38 -23 0 4 26 1 30 -26 36 l-31 7 33 15 c26 13 34 23 39 56 6 37
7 38 16 18 6 -12 15 -22 20 -22z"/>
<path d="M468 2828 c9 -9 15 -9 24 0 9 9 7 12 -12 12 -19 0 -21 -3 -12 -12z"/>
<path d="M910 2830 c0 -5 4 -10 9 -10 6 0 13 5 16 10 3 6 -1 10 -9 10 -9 0
-16 -4 -16 -10z"/>
<path d="M1022 2788 c-68 -88 -98 -112 -138 -111 -22 1 -45 10 -60 24 -13 12
-27 19 -31 15 -12 -11 31 -46 60 -48 15 -1 27 -3 27 -4 0 -1 -10 -24 -21 -51
-12 -26 -32 -73 -44 -103 -13 -30 -39 -93 -59 -139 -20 -46 -34 -86 -32 -89 3
-2 17 -2 31 2 17 4 25 13 26 29 0 12 4 31 8 41 6 17 10 15 29 -17 21 -36 22
-37 69 -31 l48 6 -33 -29 -32 -28 20 -30 c27 -41 25 -48 -10 -30 -40 21 -53
19 -80 -10 -32 -34 -40 -31 -33 11 6 37 -5 54 -37 54 -12 0 -15 -16 -15 -82 0
-46 -4 -95 -9 -111 -7 -24 -6 -26 10 -20 20 7 14 -8 -19 -44 -24 -28 -17 -39
31 -47 22 -3 65 -17 96 -31 31 -14 58 -25 61 -25 2 0 5 10 7 23 4 20 6 19 27
-15 22 -36 24 -37 69 -31 l47 6 -28 -31 -29 -30 18 -33 c31 -59 33 -112 11
-274 -9 -65 -17 -158 -17 -206 0 -83 2 -89 43 -162 47 -85 93 -139 155 -181
24 -16 54 -51 72 -82 l30 -53 -51 -48 c-28 -26 -61 -54 -72 -62 -47 -30 -234
-253 -307 -366 -43 -66 -92 -139 -109 -163 -17 -23 -26 -42 -21 -42 6 0 10
-13 10 -30 0 -16 -2 -30 -4 -30 -67 0 -390 -61 -405 -76 -2 -2 124 -4 280 -3
l284 0 32 47 c18 26 64 92 102 147 38 55 104 136 146 180 42 44 105 110 140
147 l62 67 39 -14 c22 -8 49 -14 60 -15 17 0 22 -8 27 -42 15 -104 113 -310
218 -460 l41 -58 112 0 113 0 -39 83 c-22 45 -54 120 -70 167 -17 47 -34 90
-38 95 -4 6 -22 53 -40 105 -17 52 -37 109 -45 125 -36 79 -85 194 -85 198 0
3 26 7 58 9 102 8 241 74 323 154 102 100 226 279 265 384 13 35 13 35 13 -32
1 -37 5 -70 11 -73 6 -4 8 31 6 97 -2 57 -8 102 -12 102 -5 -1 -19 -5 -31 -9
-22 -6 -23 -4 -23 69 l0 75 103 31 c56 18 126 45 155 61 78 44 106 53 98 34
-4 -10 1 -15 15 -15 11 0 34 -7 50 -16 17 -8 33 -13 37 -10 7 8 4 10 -41 32
l-37 19 35 36 35 36 -22 97 c-19 83 -25 96 -43 96 -28 0 -203 -43 -304 -75
-92 -29 -100 -27 -101 30 0 25 -27 110 -54 176 -6 14 14 24 118 57 158 52 239
66 340 59 80 -5 136 8 136 33 0 15 -16 12 -30 -5 -24 -29 -37 -16 -44 43 -4
31 -12 73 -18 93 -10 35 -15 38 -82 58 -148 44 -289 20 -588 -102 -71 -29
-100 -35 -160 -35 -92 -1 -178 -32 -273 -98 -40 -28 -156 -13 -285 38 -41 16
-76 31 -78 32 -4 4 -71 250 -69 253 1 1 39 -16 84 -38 218 -104 330 -93 692
66 204 90 312 124 410 132 74 5 124 -6 243 -52 13 -5 15 -2 11 14 -3 11 -29
34 -58 50 -61 35 -90 68 -107 122 l-11 39 -198 0 -198 0 -88 -39 c-48 -22
-131 -59 -183 -83 -158 -74 -223 -93 -320 -92 -98 1 -152 18 -272 89 -69 40
-78 49 -88 85 -6 22 -15 40 -19 40 -5 0 -27 -24 -49 -52z m-27 -268 c9 -17 28
-33 50 -40 40 -13 45 -25 14 -33 l-22 -6 22 -36 c29 -49 27 -51 -19 -14 -38
31 -40 31 -64 15 -35 -23 -39 -21 -32 18 6 32 4 36 -36 61 l-43 26 45 -3 c42
-3 45 -1 48 25 4 32 16 28 37 -13z m98 -395 c17 -36 20 -39 72 -50 l30 -7 -25
-18 c-25 -19 -25 -19 -7 -50 24 -39 18 -46 -16 -20 -30 24 -50 25 -67 5 -20
-25 -30 -17 -30 23 0 32 -5 40 -38 59 l-37 22 43 1 c41 0 42 1 42 35 0 45 12
45 33 0z m705 9 c116 -33 159 -93 148 -203 -12 -115 -46 -315 -57 -338 -6 -11
-33 -33 -58 -47 -26 -14 -74 -42 -107 -61 -54 -33 -64 -36 -112 -31 -83 10
-175 56 -212 108 -32 43 -32 44 -26 133 3 50 15 119 25 154 11 35 19 67 18 70
-3 12 112 176 135 191 66 42 152 51 246 24z m-395 -184 c5 -4 -5 -29 -21 -55
l-30 -48 -16 56 c-9 30 -16 58 -16 62 0 9 72 -4 83 -15z m-198 -258 c13 -23
28 -38 43 -40 16 -3 21 -9 18 -20 -3 -9 -8 -29 -12 -44 -8 -36 -19 -35 -90 7
-96 56 -94 54 -41 54 l47 1 0 40 c0 50 9 51 35 2z"/>
<path d="M1590 2002 c0 -14 81 -75 88 -67 4 4 -11 22 -33 41 -40 34 -55 41
-55 26z"/>
<path d="M1765 1940 c-50 -18 -81 -49 -34 -35 70 22 93 33 97 43 5 15 -2 14
-63 -8z"/>
<path d="M1546 1854 c-8 -22 11 -54 33 -54 20 0 31 19 31 51 0 24 -55 27 -64
3z"/>
<path d="M1712 1838 c-17 -17 -15 -53 3 -68 13 -11 22 -10 50 3 53 25 43 77
-15 77 -14 0 -31 -5 -38 -12z"/>
<path d="M1497 1653 c-13 -13 -7 -61 12 -84 14 -18 31 -23 79 -27 34 -2 73 -1
87 2 24 6 26 11 23 49 -3 38 -6 43 -38 54 -38 13 -152 17 -163 6z"/>
<path d="M1383 2833 c15 -2 39 -2 55 0 15 2 2 4 -28 4 -30 0 -43 -2 -27 -4z"/>
<path d="M535 2700 c3 -5 26 -10 51 -10 24 0 44 5 44 10 0 6 -23 10 -51 10
-31 0 -48 -4 -44 -10z"/>
<path d="M2600 2672 c0 -11 69 -26 78 -18 8 9 1 13 -40 20 -22 4 -38 3 -38 -2z"/>
<path d="M681 2313 c1 -10 5 -31 9 -48 7 -28 8 -28 9 12 0 23 -3 45 -9 48 -5
3 -9 -2 -9 -12z"/>
<path d="M595 1934 l-30 -14 34 3 c19 1 36 8 39 15 5 15 -5 14 -43 -4z"/>
<path d="M2740 1743 c0 -5 9 -19 20 -33 21 -26 27 -12 10 21 -10 19 -30 26
-30 12z"/>
<path d="M406 1722 c-8 -13 25 -95 43 -106 15 -10 14 -1 -6 37 -9 17 -19 43
-23 57 -4 16 -9 20 -14 12z"/>
<path d="M978 1700 c-4 -19 -9 -43 -13 -52 -4 -11 -3 -18 3 -18 13 0 26 59 20
87 -2 11 -6 5 -10 -17z"/>
<path d="M240 1654 c0 -14 4 -23 10 -19 6 3 10 15 10 26 0 10 -4 19 -10 19 -5
0 -10 -12 -10 -26z"/>
<path d="M486 1621 c-9 -14 9 -48 48 -89 37 -41 164 -124 179 -119 6 2 -27 28
-74 59 -95 63 -112 79 -132 127 -8 20 -17 29 -21 22z"/>
<path d="M2791 1126 c-25 -25 -64 -54 -88 -63 -40 -17 -56 -33 -33 -33 40 0
176 106 168 131 -2 5 -23 -11 -47 -35z"/>
<path d="M714 1045 c26 -19 42 -19 26 0 -7 8 -20 15 -29 15 -13 -1 -13 -3 3
-15z"/>
<path d="M826 999 c-15 -23 -34 -59 -42 -81 -16 -47 -16 -48 -6 -48 4 0 14 17
21 38 8 20 29 58 47 85 22 30 29 47 20 47 -7 0 -26 -18 -40 -41z"/>
<path d="M2487 895 c5 -27 8 -80 8 -117 0 -38 3 -68 9 -68 13 0 2 192 -13 215
-9 16 -10 11 -4 -30z"/>
<path d="M745 865 c-5 -2 -104 -34 -220 -71 -116 -37 -280 -86 -365 -109
l-155 -42 -3 -177 c-1 -97 -1 -176 2 -176 2 0 48 14 102 31 132 40 298 81 471
114 l142 27 6 40 7 41 30 -54 c32 -60 64 -96 74 -86 4 4 -4 20 -18 35 -14 15
-36 47 -48 72 -13 25 -27 48 -32 51 -6 4 -5 36 2 85 18 117 27 215 20 218 -3
2 -9 2 -15 1z"/>
<path d="M2345 738 c3 -13 9 -69 12 -125 7 -121 -5 -165 -70 -256 -44 -61
-143 -161 -182 -183 -11 -7 -17 -15 -13 -19 13 -13 91 50 158 129 93 108 124
171 128 263 5 80 -14 213 -30 213 -6 0 -7 -9 -3 -22z"/>
<path d="M2745 725 c-47 -11 -124 -45 -149 -66 -6 -5 -21 -17 -33 -27 -20 -16
-23 -29 -29 -155 l-7 -138 24 5 c13 3 76 15 139 26 63 12 123 23 133 26 15 5
17 22 17 175 0 193 8 180 -95 154z"/>
<path d="M2512 627 c-23 -25 -28 -37 -13 -37 10 0 45 50 39 56 -3 2 -14 -6
-26 -19z"/>
<path d="M1322 289 c-37 -65 -62 -147 -67 -223 -5 -81 6 -55 24 54 6 38 25 94
46 133 37 73 39 77 28 77 -5 0 -19 -19 -31 -41z"/>
<path d="M986 97 c-17 -22 -26 -46 -25 -68 l1 -34 11 35 c5 19 21 50 34 68 13
17 20 32 14 32 -5 0 -21 -15 -35 -33z"/>
<path d="M1650 99 c0 -5 15 -29 32 -52 18 -23 34 -44 35 -46 2 -2 6 -2 9 2 3
3 -9 28 -27 56 -32 49 -49 63 -49 40z"/>
<path d="M2725 20 l-100 -17 108 -2 c101 -1 107 0 107 19 0 11 -3 19 -7 19 -5
-1 -53 -9 -108 -19z"/>
</g>
</svg>
