<?xml version="1.0" encoding="utf-8"?>
<!-- Generator: Adobe Illustrator 16.2.1, SVG Export Plug-In . SVG Version: 6.00 Build 0)  -->
<!DOCTYPE svg PUBLIC "-//W3C//DTD SVG 1.1//EN" "http://www.w3.org/Graphics/SVG/1.1/DTD/svg11.dtd">
<svg version="1.1" id="Layer_1" xmlns="http://www.w3.org/2000/svg" xmlns:xlink="http://www.w3.org/1999/xlink" x="0px" y="0px"
	 width="220.601px" height="94.5px" viewBox="0 0 220.601 94.5" enable-background="new 0 0 220.601 94.5" xml:space="preserve">
<g>
	<g>
		<path fill="#FFFFFF" d="M69.487,41.444h4.515c4.319,0,7.341,1.351,7.341,6.149c0,4.638-3.11,6.257-7.341,6.257h-4.515V41.444z
			 M72.794,51.397h1.279c2.471,0,3.857-1.281,3.857-3.75c0-2.471-1.439-3.751-3.857-3.751h-1.279V51.397z"/>
		<path fill="#FFFFFF" d="M92.222,53.851h-2.915v-1.707h-0.036c-0.64,1.334-1.919,1.92-3.377,1.92c-2.524,0-3.537-1.777-3.537-3.697
			V44.59h3.199v4.479c0,1.74,0.604,2.328,1.476,2.328c1.315,0,1.99-0.906,1.99-2.898V44.59h3.2V53.851z"/>
		<path fill="#FFFFFF" d="M94.123,40.52h3.199v7.961h0.034l2.663-3.891h3.497l-3.213,4.247l3.479,5.014h-3.87l-2.557-4.586h-0.034
			v4.586h-3.199V40.52z"/>
		<path fill="#FFFFFF" d="M106.609,50.153c0.178,1.279,1.155,1.777,2.719,1.777c0.871,0,1.867-0.195,2.826-0.711v2.258
			c-1.031,0.408-2.204,0.586-3.395,0.586c-3.058,0-5.386-1.795-5.386-4.854c0-3.055,2.08-4.833,4.959-4.833
			c3.431,0,4.675,2.436,4.675,5.188v0.588H106.609z M110.128,48.339c0-1.065-0.497-1.936-1.777-1.936
			c-1.155,0-1.706,0.871-1.777,1.936H110.128z"/>
		<path fill="#FFFFFF" d="M115.193,41.444h2.934l3.893,10.309l3.82-10.309h2.934v12.406h-1.777V43.115h-0.035l-4.107,10.735h-1.742
			l-4.105-10.735h-0.035v10.735h-1.777V41.444z"/>
		<path fill="#FFFFFF" d="M138.566,53.478c-0.641,0.23-1.369,0.586-2.861,0.586c-3.217,0-4.693-1.955-4.693-4.906
			c0-2.682,1.689-4.584,4.248-4.584c3.021,0,4,2.204,4,5.118h-6.471c0,1.795,1.404,3.021,2.986,3.021
			c1.102,0,2.383-0.568,2.791-0.906V53.478z M137.482,48.446c0-1.385-0.818-2.522-2.258-2.522c-1.635,0-2.311,1.35-2.436,2.522
			H137.482z"/>
		<path fill="#FFFFFF" d="M147.738,52.569h-0.035c-0.445,0.676-1.477,1.494-3.094,1.494c-2.736,0-3.893-2.436-3.893-4.906
			c0-2.434,1.279-4.584,3.91-4.584c1.582,0,2.488,0.622,3.004,1.457h0.035v-5.51h1.672v13.331h-1.6V52.569z M145,52.712
			c1.885,0,2.666-1.865,2.666-3.377c0-1.687-0.871-3.411-2.684-3.411s-2.523,1.705-2.488,3.358
			C142.459,50.704,143.205,52.712,145,52.712z"/>
		<path fill="#FFFFFF" d="M153.994,42.76h-1.885v-1.884h1.885V42.76z M152.217,44.786h1.67v9.065h-1.67V44.786z"/>
		<path fill="#FFFFFF" d="M162.525,46.315c-0.639-0.268-1.279-0.391-1.812-0.391c-1.867,0-2.914,1.669-2.914,3.393
			c0,1.617,0.869,3.395,3.021,3.395c0.568,0,1.279-0.178,1.795-0.516l0.123,1.494c-0.691,0.32-1.492,0.373-2.096,0.373
			c-2.738,0-4.623-2.15-4.623-4.746c0-2.754,1.85-4.745,4.623-4.745c0.674,0,1.545,0.16,2.025,0.355L162.525,46.315z"/>
		<path fill="#FFFFFF" d="M166.471,42.76h-1.883v-1.884h1.883V42.76z M164.693,44.786h1.672v9.065h-1.672V44.786z"/>
		<path fill="#FFFFFF" d="M169.244,44.786h1.617v1.439h0.037c0.496-1.03,1.705-1.652,2.967-1.652c2.348,0,3.396,1.457,3.396,3.891
			v5.387h-1.672v-4.693c0-2.114-0.463-3.145-1.92-3.233c-1.902,0-2.754,1.527-2.754,3.731v4.195h-1.672V44.786z"/>
		<path fill="#FFFFFF" d="M186.877,53.478c-0.641,0.23-1.369,0.586-2.861,0.586c-3.219,0-4.693-1.955-4.693-4.906
			c0-2.682,1.689-4.584,4.248-4.584c3.021,0,4,2.204,4,5.118H181.1c0,1.795,1.404,3.021,2.986,3.021
			c1.102,0,2.381-0.568,2.791-0.906V53.478z M185.793,48.446c0-1.385-0.818-2.522-2.258-2.522c-1.635,0-2.311,1.35-2.436,2.522
			H185.793z"/>
	</g>
	<g>
		<path fill="#FFFFFF" d="M52.889,53.642c-2.133,1.559-5.254,2.434-5.527,2.506v-0.002c0.236-0.115,2.801-1.359,3.941-2.477
			c0.543-0.533,0.982-1.318,1.27-1.965c-0.137,0.117-0.24,0.336-1.58,1.055c-1.273,0.68-3.414,1.443-3.631,1.521v-0.004
			c0.188-0.104,1.707-0.951,2.635-1.992c0.551-0.623,0.998-1.178,1.225-1.732c-1.086,0.865-3.625,1.799-3.859,1.885v-0.004
			c0.145-0.088,1.09-0.676,1.865-1.574c0.566-0.66,0.625-1.086,0.711-1.43c-1.191,0.945-2.412,1.125-2.576,1.145v-0.01
			c0.152-0.102,1.18-0.826,1.23-2.273c-0.938,0.852-1.744,0.551-2.123,0.213c-0.375-0.332-0.365-1.051-0.365-1.051V37.55h-1.258
			v0.922H43.17V37.55h-1.256v0.922h-1.676V37.55h-1.262v11.367c0,0,0.021,3.232,2.984,5.674c2.074,1.709,5.4,3.326,5.4,3.326
			c0.273-0.133,3.412-1.684,4.779-2.898c0.982-0.873,1.443-1.441,1.771-2.189C53.623,53.101,53.275,53.36,52.889,53.642z"/>
		<g>
			<path fill="#FFFFFF" d="M51.25,46.491v-7.996H50.1v9.527c0,0,0.035,0.682-0.162,1.406C51.447,48.454,51.25,46.491,51.25,46.491z"
				/>
			<path fill="#FFFFFF" d="M52.717,47.426v-9.875h-1.15v11.297c0,0,0.037,0.775-0.34,1.697
				C52.711,49.345,52.717,47.426,52.717,47.426z"/>
			<path fill="#FFFFFF" d="M54.182,48.063v-9.568h-1.148v11c0,0-0.096,1.508-0.455,2.201C54.201,50.655,54.182,48.063,54.182,48.063
				z"/>
			<path fill="#FFFFFF" d="M55.654,48.849V37.552H54.5v12.928c0,0-0.062,1.166-0.582,2.344
				C55.725,51.083,55.654,48.849,55.654,48.849z"/>
			<path fill="#FFFFFF" d="M49.785,45.79v-8.238h-1.15v9.722c0,0,0,0.731-0.039,1.01C49.928,47.137,49.785,45.79,49.785,45.79z"/>
		</g>
	</g>
</g>
<path fill="#FFFFFF" d="M31.821,63.06h-0.251V31.44h31.6v31.62H31.821L31.821,63.06z M62.669,62.558V31.94H32.07v30.617H62.669
	L62.669,62.558z"/>
</svg>
